<svg xmlns="http://www.w3.org/2000/svg" width="18.74" height="24" viewBox="0 0 18.74 24">
  <path d="M7.77 24c-.18-.11-.32-.24-.27-.47s.14-.27.31-.3h.24a.55.55 0 0 0 .48-.42 5.81 5.81 0 0 0 .06-.93c0-.12 0-.21-.18-.24a6.29 6.29 0 0 1-.74-.22c-.12 0-.16 0-.18.13a3.55 3.55 0 0 0 0 .65 1 1 0 0 1 0 .3.34.34 0 0 1-.45.25.37.37 0 0 1-.29-.42c0-.42 0-.84.06-1.26a.31.31 0 0 0-.13-.3A2.87 2.87 0 0 1 5.5 17.9c0-.19 0-.21-.19-.22a5.72 5.72 0 0 1-2.57-.79 1.33 1.33 0 0 1 1-2.45h.11a4.43 4.43 0 0 1-.42-2.72c0-.12 0-.17-.11-.21a2.79 2.79 0 0 1-1.68-2.69.92.92 0 0 0-.52-.89l-.65-.32a.69.69 0 0 1-.41-.65.63.63 0 0 1 .4-.64A2 2 0 0 0 1.77 5a.69.69 0 0 1 1.18-.16c.09.1.12.08.2 0a2 2 0 0 1 .79-.6.32.32 0 0 0 .18-.2 2.89 2.89 0 0 1 1.56-1.57.22.22 0 0 0 .17-.21.6.6 0 0 1 .39-.54A2 2 0 0 0 7.58.38a.61.61 0 0 1 .63-.39.66.66 0 0 1 .64.39q.15.27.27.54c0 .1.08.14.21.11a3.58 3.58 0 0 1 3.52 1.14.19.19 0 0 0 .22.08 1.51 1.51 0 0 1 .3 0c.28 0 .55.07.77-.23a.5.5 0 0 1 .56-.11l.82.28a.41.41 0 0 0 .36 0l.68-.25c.26-.09.39 0 .51.24s0 .39-.29.5-.41.14-.61.23a1.24 1.24 0 0 1-1 0c-.16-.07-.32-.12-.5-.18a3.6 3.6 0 0 0 .18.63 1.4 1.4 0 0 1 .1.57c0 .13 0 .16.15.14a5.66 5.66 0 0 1 .58 0 2.26 2.26 0 0 1 .93.3 2.52 2.52 0 0 1-.1-.58 1.11 1.11 0 0 1 .14-.51.33.33 0 0 1 .49-.14.37.37 0 0 1 .17.51.5.5 0 0 0 0 .36c.08.22.15.43.23.64a.83.83 0 0 1 0 .72c-.1.16 0 .24.13.32a2.84 2.84 0 0 1 1.1 1.71 2.68 2.68 0 0 1-.13 1.63.26.26 0 0 0 0 .31.61.61 0 0 1 .09.68 2 2 0 0 0 0 1.8.63.63 0 0 1-.16.78.69.69 0 0 1-.77.15l-.78-.27c-.1 0-.15 0-.15.11a4.1 4.1 0 0 1-.47 1.92 1.77 1.77 0 0 1 .72-.05 1.33 1.33 0 0 1 .47 2.43 5.36 5.36 0 0 1-2.18.79 4.4 4.4 0 0 1-.51.05c-.16 0-.17.06-.15.2a2.86 2.86 0 0 1-1.16 2.88.36.36 0 0 0-.15.33q0 .75.06 1.5a1.31 1.31 0 0 1-1 1.38s0 0-.06 0h-.56a1.43 1.43 0 0 1-1.09-1.52v-.53c0-.17-.06-.18-.19-.17a2.66 2.66 0 0 1-.89 0c-.15 0-.19.06-.19.19a5 5 0 0 1 0 .77 1.29 1.29 0 0 1-1.15 1.26Z"/>
  <path d="M8.24 24a1.42 1.42 0 0 0 1.11-1.61v-.49c0-.16.05-.21.21-.19a4.18 4.18 0 0 0 1 0c.15 0 .21 0 .21.18v.77a1.32 1.32 0 0 0 .9 1.26s.1 0 .11.08Z" fill="#fefefe"/>
  <path d="M6.98 22.74c.3 0 .41-.13.42-.42s0-.59 0-.89c0-.12 0-.19.17-.12a4.65 4.65 0 0 0 .92.27c.11 0 .15.06.14.18v.91a.61.61 0 0 1-.67.62.4.4 0 0 0-.46.24 1.92 1.92 0 0 1-.52-.79Z" fill="#7fa3d9"/>
  <path d="M17.05 3.08a.38.38 0 0 0-.5.3 1 1 0 0 0 0 .79 3 3 0 0 1 .1.29 2.88 2.88 0 0 0-1.06-.4c-.45 0-.45 0-.56-.51a2.13 2.13 0 0 1-.11-.57c0-.08 0-.22.15-.18.65.32 1.19-.07 1.76-.27.17-.05.17-.22.17-.37a1.06 1.06 0 0 1 .05.92Z" fill="#ee95a1"/>
  <path d="M10.05 16.73a8 8 0 0 1-4.08-1 3.7 3.7 0 0 1-2-2.84 4.07 4.07 0 0 1 1-3.1 6 6 0 0 1 3.57-2 6.9 6.9 0 0 1 5.47 1.08 4.45 4.45 0 0 1 1.94 2.74 3.55 3.55 0 0 1-1.47 3.87 6.74 6.74 0 0 1-3.11 1.19 8.75 8.75 0 0 1-1.32.06Z" fill="#c3e5f7"/>
  <path d="M9.97 21.03a5.83 5.83 0 0 1-2.51-.56 2.35 2.35 0 0 1-1-3.46.23.23 0 0 1 .33-.11 10 10 0 0 0 6.48 0c.17-.06.24 0 .32.11a2.35 2.35 0 0 1-1.09 3.52 6.44 6.44 0 0 1-2.53.5Z" fill="#92d7f9"/>
  <path d="M7.48 4.31a.72.72 0 0 0 .71.43.7.7 0 0 0 .66-.51 1.89 1.89 0 0 1 1.08-1.15c.75-.32.81-.86.2-1.42a2.65 2.65 0 0 1 1.93.79 1.32 1.32 0 0 0 1.28.51c.48-.08.47 0 .65.44a1 1 0 0 1 0 .74 2.48 2.48 0 0 1-.59 1 10.76 10.76 0 0 0-1.39 1.83c0 .06-.05.16-.18.13a8.52 8.52 0 0 0-3.3-.07c-.16 0-.11-.16-.11-.25s.07-.41.12-.62 0-.37-.23-.53a2 2 0 0 1-.87-1.09c-.03-.08-.09-.17.04-.23Z" fill="#faeeca"/>
  <path d="M13.3 6.37a7.87 7.87 0 0 1 1.07-1.23 1.4936 1.4936 0 1 1 1.93 2.28c-.21.16-.44.3-.65.45-.13 0-.2-.14-.3-.21a8.54 8.54 0 0 0-1.87-1.09c-.08-.04-.23-.03-.18-.2Zm-8.81 1.5-.23-.14c0-.09.09-.1.14-.13a.71.71 0 0 0-.05-1.26c-.24-.13-.5-.25-.75-.37s-.26-.2-.14-.42a1.49 1.49 0 0 1 2.3-.41 7.93 7.93 0 0 1 1.08 1.23c.05.14-.07.15-.15.18a8.65 8.65 0 0 0-1.28.67c-.36.19-.6.45-.92.65Z" fill="#7fa3d9"/>
  <path d="M7.48 4.31a1.14 1.14 0 0 0 .37.83 1.53 1.53 0 0 0 .56.48.36.36 0 0 1 .22.47 4.86 4.86 0 0 0-.15.66c0 .09 0 .2.05.28-.21.11-.34.07-.48-.15a10.84 10.84 0 0 0-1.71-2.16 2.18 2.18 0 0 0-1.46-.66 2 2 0 0 1 1.27-1c.1 0 .17.06.26.09a1.43 1.43 0 0 1 1 1c.01.01.04.09.07.16Z" fill="#f6dab0"/>
  <path d="M17.54 6.58a2.08 2.08 0 0 1 .44 1.78 2.13 2.13 0 0 1-1.65 1.68c-.12 0-.19 0-.25-.09a4.29 4.29 0 0 0-.6-.8c-.1-.1-.06-.15 0-.22a7.58 7.58 0 0 1 .9-.71 2.37 2.37 0 0 0 1.16-1.64Z" fill="#faeeca"/>
  <path d="m3.54 10.89-.12-.06a2.05 2.05 0 0 1-1.06-1.31c0-.12 0-.15.11-.17a.69.69 0 0 0 .57-.43c.12-.25.25-.5.37-.76s.09-.11.19-.05c.35.26.7.52 1 .81.09.08.11.13 0 .24a4.92 4.92 0 0 0-1 1.61s.02.11-.06.12Z" fill="#f6dab0"/>
  <path d="M13.3 6.37c.07.15.23.16.36.22A7.84 7.84 0 0 1 15.5 7.7c.06 0 .1.12.15.17l-.69.6c-.07.07-.12.06-.2 0a6.93 6.93 0 0 0-2-1.11c-.11 0-.1-.08-.05-.16a6.27 6.27 0 0 1 .59-.83Zm-8.81 1.5a4.92 4.92 0 0 1 1.16-.86 7.49 7.49 0 0 1 1.06-.53c.06 0 .12 0 .13-.11a7.91 7.91 0 0 1 .58.81c.07.1.08.14-.06.19a6.72 6.72 0 0 0-2 1.11.13.13 0 0 1-.2 0Z" fill="#5c88cc"/>
  <path d="M7.44 1.9a1.86 1.86 0 0 0 .48-.75c.07-.15.15-.29.24-.46l.4.81a.87.87 0 0 0 .47.47c.26.11.51.24.81.38-.54.32-1.2.45-1.41 1.12-.09.05-.15 0-.2-.06a3.09 3.09 0 0 1-.81-1.44.25.25 0 0 1 .02-.07Z" fill="#79dcda"/>
  <path d="M1.68 6.5a2.36 2.36 0 0 0 .5-.85c.06-.1.1-.21.17-.36.14.28.28.52.39.77a1 1 0 0 0 .57.55l.75.37c-.55.31-1.21.44-1.41 1.12-.2 0-.28-.18-.39-.3a3.11 3.11 0 0 1-.6-1.1.18.18 0 0 1 .02-.2Z" fill="#cabae2"/>
  <path d="M12.74 22.16v.56a.62.62 0 0 1-.61.6.6.6 0 0 1-.62-.57v-1c0-.1 0-.13.12-.15a4.44 4.44 0 0 0 1-.29c.13-.06.15 0 .15.11s-.05.52-.04.74Z" fill="#7fa3d9"/>
  <path d="M16.82 15.09a.62.62 0 0 1 .33 1.15 4.68 4.68 0 0 1-2 .69h-.14c-.02 0 0-.11.09-.14a5.64 5.64 0 0 0 .76-.61 5.13 5.13 0 0 0 .76-.85.5.5 0 0 1 .2-.24ZM5.05 16.93a4.64 4.64 0 0 1-2-.69.64.64 0 0 1-.27-.72.62.62 0 0 1 .6-.43.61.61 0 0 1 .2.19 5.37 5.37 0 0 0 1.44 1.41l.13.1s.08.07.06.11-.16.04-.16.03Z" fill="#c3e5f7"/>
  <path d="M5.05 16.93h.16a5.86 5.86 0 0 1-1.84-1.8h.05a9.55 9.55 0 0 1 1.52.71 6.25 6.25 0 0 0 .92.63c.13.07.16.12.08.25-.27.31-.4.35-.89.21Zm11.77-1.84a4.87 4.87 0 0 1-.81 1 5.12 5.12 0 0 1-1 .79c0 .07.09 0 .12.06a1.84 1.84 0 0 1-.62.06c-.2 0-.21-.26-.3-.4s.09-.12.15-.18a1.59 1.59 0 0 0 .22-.13 7.53 7.53 0 0 1 1.93-1.1.54.54 0 0 1 .31-.1Z" fill="#7fa3d9"/>
  <path d="M17.91 10a2 2 0 0 0 .13 2 3.25 3.25 0 0 1-.62-.18 1.86 1.86 0 0 0-.56-.15c-.1 0-.12-.06-.13-.13a3.51 3.51 0 0 0-.21-.72c0-.1 0-.12.08-.14a3.55 3.55 0 0 0 1.31-.68Z" fill="#ecc971"/>
  <path d="M1.68 6.5a2.79 2.79 0 0 0 1 1.6 2.53 2.53 0 0 1-.28.54 5.17 5.17 0 0 0-.59-1.06 5.85 5.85 0 0 0-1.08-.61Z" fill="#b7a1d9"/>
  <path d="M7.44 1.9a3.85 3.85 0 0 0 .66 1.29c.1.11.18.24.33.28l-.26.57c-.25-.35-.32-.78-.6-1.07a6.6 6.6 0 0 0-1.09-.61Z" fill="#5ac687"/>
  <path d="M15.05 2.8c-.13 0-.1.13-.09.21a4.54 4.54 0 0 0 .19.79c0 .16.13.25.31.23h.11a3 3 0 0 0-.73.05c-.05 0-.15 0-.11-.07a1.22 1.22 0 0 0-.11-.86c-.06-.19-.12-.37-.2-.58a2.74 2.74 0 0 1 .63.23Z" fill="#e47c8b"/>
  <path d="M6.61 11.34a1.14 1.14 0 0 1 1 .95 1.08 1.08 0 0 1-.58 1 1.65 1.65 0 0 1-1.84-.09 1 1 0 0 1 0-1.63 1.79 1.79 0 0 1 1-.34 3.71 3.71 0 0 0 .42.11Zm7.44-.1a1.88 1.88 0 0 1 .9.29 1 1 0 0 1 0 1.68 1.66 1.66 0 0 1-1.9.05 1 1 0 0 1-.52-.9 1.11 1.11 0 0 1 .74-1 1.68 1.68 0 0 1 .24-.06 2 2 0 0 0 .54-.06Z" fill="#fefefe"/>
  <path d="M10.05 10.37h.4a1.05 1.05 0 0 1 1.11 1.24 1.51 1.51 0 0 1-2.19 1.34 1.68 1.68 0 0 1-.79-1.76 1 1 0 0 1 1-.82Z"/>
  <path d="M14.05 11.24a.41.41 0 0 1-.5.09 1.21 1.21 0 0 1-.09-1.05c0-.14.18-.2.33-.19s.29.1.3.25a2 2 0 0 1-.04.9Zm-7.44.1a.41.41 0 0 1-.48-.1 2.27 2.27 0 0 1 0-.9c0-.15.15-.23.3-.25a.34.34 0 0 1 .33.17 1.32 1.32 0 0 1-.15 1.08Z" fill="#010101"/>
  <path d="M10.14 11.1a2 2 0 0 1 .51 0c.11 0 .2.1.21.22a1 1 0 0 1-.31.9.66.66 0 0 1-.73.15.87.87 0 0 1-.54-.74c-.07-.42 0-.56.48-.57Z" fill="#444c55"/>
</svg>
