<svg xmlns="http://www.w3.org/2000/svg" width="23.94" height="23.24" viewBox="0 0 23.94 23.24">
  <path d="M5.28 10.92c-.28-.08-.35-.16-.35-.46V8.67c0-.19-.06-.23-.23-.23H3.18A3.14 3.14 0 0 1 .05 5.82s0-.08 0-.1V2.63c.09 0 .07-.13.08-.2A3.15 3.15 0 0 1 3.03 0h17.7a3.15 3.15 0 0 1 3.19 2.49 2.81 2.81 0 0 1 .07.65v2.17a3.16 3.16 0 0 1-3.12 3.14h-1.49c-.32 0-.32 0-.32.32v13.56a1.61 1.61 0 0 1 0 .31.67.67 0 0 1-1.14.48c-.23-.17-.45-.37-.67-.55a1 1 0 0 0-1.43 0l-.36.3a1.74 1.74 0 0 1-2.1.07c-.26-.17-.5-.35-.75-.52a1 1 0 0 0-1.3 0l-.68.49a1.75 1.75 0 0 1-2.24-.09l-.36-.3a1.05 1.05 0 0 0-1.3 0c-.22.17-.43.36-.65.54a.68.68 0 0 1-.75.14.67.67 0 0 1-.41-.68V12.31c0-.35.06-.43.35-.51a.32.32 0 0 1 .38.27 1.4 1.4 0 0 1 0 .35v9.86c0 .04.17-.08.24-.15a2.09 2.09 0 0 1 1.44-.62 1.84 1.84 0 0 1 1.09.37c.14.1.26.22.4.32a1 1 0 0 0 1.29.05l.71-.5a1.9 1.9 0 0 1 2.13 0c.23.18.48.35.72.52a.92.92 0 0 0 .36.17 1.13 1.13 0 0 0 1-.3l.27-.22a1.83 1.83 0 0 1 2.26 0l.41.34c.1.09.17.08.18-.07V3.34c0-.44 0-.44-.44-.44h-6a2.25 2.25 0 0 1-.26 0h-2a.49.49 0 0 1-.57-.43c0-.3.17-.4.47-.41h10.58a1.88 1.88 0 0 1 1.93 1.93 4.52 4.52 0 0 1-.06 1 1.83 1.83 0 0 1-1.77 1.46h-.73c-.17 0-.26 0-.25.24s0 .54 0 .82c0 .11.05.2.18.19a14.12 14.12 0 0 0 1.84 0 2.35 2.35 0 0 0 2-2.31V3.14A2.36 2.36 0 0 0 20.72.85H3.11A2.36 2.36 0 0 0 .78 3.13V5.4a2.37 2.37 0 0 0 2.38 2.33h1.42c.19 0 .27-.07.26-.26s0-.53 0-.79-.07-.21-.21-.21h-.71A1.83 1.83 0 0 1 2.05 4.8a4.31 4.31 0 0 1 0-1.19 1.8 1.8 0 0 1 1.8-1.49h3.74c.36 0 .49.1.54.41s-.2.42-.54.43-1 0-1.45 0-.47 0-.47.47v6.91a2.11 2.11 0 0 1 0 .35.32.32 0 0 1-.39.23Z"/>
  <path d="M8.98 2.46c.08.29.17.36.47.36h2.05c.07.12 0 .21-.05.31a16.34 16.34 0 0 0-1.15 2.85 15.79 15.79 0 0 0-.55 2.43c0 .27 0 .28.25.28h5.2a1.31 1.31 0 0 1 .28 0c.06 0 .15 0 .14.12a.65.65 0 0 1-.39.05H8.5a1.37 1.37 0 0 0-1 .38 1.34 1.34 0 0 0 .87 2.29h.84a.47.47 0 0 1 .31.06 3.3 3.3 0 0 1 .11.82 1 1 0 0 1 0 .59.42.42 0 0 1-.31.07h-.91a1.34 1.34 0 0 0-.68 2.48 1.46 1.46 0 0 0 .79.18h6.7a.86.86 0 0 1 .39 0c.08.06 0 .09 0 .11a.77.77 0 0 1-.3 0h-4.56c-.33 0-.33 0-.22.3a19.81 19.81 0 0 0 2.62 4.88c.27.37.55.73.84 1.09 0 .08.16.15.08.27a.72.72 0 0 1-.37-.18c-.24-.17-.48-.35-.72-.51a1.74 1.74 0 0 0-2 0l-.74.52a1 1 0 0 1-1.35 0 2.67 2.67 0 0 0-1-.64 1.74 1.74 0 0 0-1.54.32l-.64.52c-.07-.08 0-.17 0-.25v-9.91c0-.35-.05-.42-.35-.51v-.88c.31-.09.35-.15.35-.51V3.12c0-.22.06-.27.27-.26h1.77c.27 0 .37-.09.43-.36a1.08 1.08 0 0 1 .8-.04Z" fill="#e7e7f4"/>
  <path d="M14.07 22.48a3.63 3.63 0 0 0-.57-.78 21.92 21.92 0 0 1-1.63-2.43 18.32 18.32 0 0 1-1.45-3.15.45.45 0 0 1 0-.24h5.27c.09 0 .13-.09.21-.12a1.32 1.32 0 0 0 .93-1.5 1.35 1.35 0 0 0-1.27-1.13h-.26a.39.39 0 0 0-.42.23.19.19 0 0 1-.13.13 1.34 1.34 0 0 1-.88-.07.55.55 0 0 0-.55-.28h-3.29c-.13 0-.27 0-.38-.08 0-.47-.12-.92-.09-1.39.11-.11.25-.08.37-.08h5.51a1.34 1.34 0 0 0 .51-2.6c-.11 0-.23 0-.31-.14s-.18 0-.27 0H9.88c-.17 0-.23 0-.2-.23a17.38 17.38 0 0 1 1.8-5.58.5.5 0 0 0 0-.13h6.57c.19 0 .24 0 .24.24v19.19a.39.39 0 0 1 0 .23l-.59-.49a1.76 1.76 0 0 0-2.3 0c-.13.11-.26.23-.39.33a1 1 0 0 1-.94.07Z" fill="#f1effd"/>
  <path d="M8.98 2.46H8.1a.37.37 0 0 0-.42-.34H3.85a1.74 1.74 0 0 0-1.74 1.75 5.15 5.15 0 0 0 0 1 1.73 1.73 0 0 0 1.66 1.42h1c.13 0 .17 0 .16.16v1.1c0 .09 0 .16-.12.15a16.36 16.36 0 0 1-2.1 0 2.42 2.42 0 0 1-2-2.33V3.08A2.46 2.46 0 0 1 3.08.71h17.51a2.6 2.6 0 0 1 2 .73 2.42 2.42 0 0 1 .71 1.66v2.27a2.45 2.45 0 0 1-2.4 2.38h-1.64c-.14 0-.19 0-.18-.19V6.51c0-.15 0-.17.18-.18a6.2 6.2 0 0 0 1.22 0 1.73 1.73 0 0 0 1.4-1.6 4.2 4.2 0 0 0 0-1.12 1.71 1.71 0 0 0-1.71-1.46H9.41a.39.39 0 0 0-.43.31Z" fill="#7a8b9a"/>
  <path d="M4.92 4.23v1.21c0 .16 0 .2-.2.2h-.8a1 1 0 0 1-1.05-.87 3 3 0 0 1 0-1.11 1 1 0 0 1 1-.83h.91c.13 0 .18 0 .17.17Zm14.1 0V3.04c0-.19 0-.23.22-.22h.82a1 1 0 0 1 1 .88 3.07 3.07 0 0 1 0 1.13 1 1 0 0 1-1 .8h-.93c-.14 0-.18 0-.17-.18Z" fill="#6b7d8e"/>
  <path d="M15.62 8.81a1.41 1.41 0 0 1 .11 2.79 2.68 2.68 0 0 1-.4 0H8.47a1.41 1.41 0 0 1-1.43-1.4 1.39 1.39 0 0 1 1.43-1.41h7.15Zm-5.99 4.21h3.81c.24 0 .41.08.46.33s0 .35-.32.44H8.72a1.29 1.29 0 0 0-.51.07.58.58 0 0 0-.36.68.6.6 0 0 0 .56.5h7.17a.62.62 0 0 0 .54-.53.6.6 0 0 0-.38-.66 1.82 1.82 0 0 0-.57-.07c-.27 0-.39-.16-.38-.39s.17-.36.5-.38a1.5 1.5 0 0 1 1.34.56 1.41 1.41 0 0 1-.94 2.26H8.56a1.41 1.41 0 1 1-.12-2.81Z"/>
  <path d="M8.73 5.26a1.08 1.08 0 0 1 .86 1.1.91.91 0 0 1-.34.66 1.65 1.65 0 0 1-2 0 1 1 0 0 1 .19-1.64 1.08 1.08 0 0 1 .45-.17c.1 0 .13-.07.17-.13s.06.1.08.15a.26.26 0 0 0 .46.13c.02-.03.05-.1.13-.1Z" fill="#fe95a2"/>
  <path d="M8.73 5.26c-.09.17-.21.31-.43.26s-.28-.23-.27-.43a1.0004 1.0004 0 0 1 2-.06.39.39 0 0 1-.3.5c-.2 0-.34-.1-.4-.36s-.12-.3-.32-.29-.29.17-.28.38Z"/>
  <path d="M14.77 13.4a.41.41 0 0 0 .48.33h.28a.71.71 0 0 1 .66.74.7.7 0 0 1-.7.67H10.1a.44.44 0 0 1-.11-.2 8.89 8.89 0 0 1-.22-.89c0-.24 0-.29.25-.29h3.33a.76.76 0 0 0 .26 0 .38.38 0 0 0 .29-.38 3.64 3.64 0 0 0 .87.02Z" fill="#e7e7f4"/>
  <path d="M14.37 17.26h1.08a1.4 1.4 0 0 1 1.45 1.42 1.43 1.43 0 0 1-1.47 1.4h-2a1.32 1.32 0 0 1-1.4-1.07 1.4 1.4 0 0 1 1.17-1.72 9.82 9.82 0 0 1 1.17-.03Z"/>
  <path d="M15.26 4.62a1.18 1.18 0 0 1 0 .46c0 .11 0 .15.15.14a1.82 1.82 0 0 1 1 .14 1.05 1.05 0 0 1 .65.92 1 1 0 0 1-.61.93A1.62 1.62 0 0 1 14.63 7a.92.92 0 0 1 0-1.37.75.75 0 0 0 .07-.12.22.22 0 0 1 .11 0c.27 0 .37-.08.38-.35v-.37c0-.12 0-.14.07-.17Z" fill="#fe95a2"/>
  <path d="M12.24 6.12a.75.75 0 0 1 0-1.15 1.19 1.19 0 0 0-.57.1.36.36 0 0 1-.44-.16.34.34 0 0 1 .19-.5 4.77 4.77 0 0 1 .65-.17.69.69 0 0 1 .74.34.71.71 0 0 1 0 .83.18.18 0 0 0 0 .25.75.75 0 0 1-.75 1.16l-.6-.15a.35.35 0 0 1-.24-.45.36.36 0 0 1 .44-.23 2.6 2.6 0 0 0 .58.13Z"/>
  <path d="M15.26 4.62v.5c0 .38-.21.52-.56.36a1.39 1.39 0 0 1-.08-1 .32.32 0 0 1 .33-.16.33.33 0 0 1 .31.3Z" fill="#010101"/>
  <path d="M9.54 9.52h5.86a.71.71 0 1 1 0 1.41H9.48a.49.49 0 0 1-.07-.37c0-.28.06-.55 0-.83a.26.26 0 0 1 .13-.21Z" fill="#e7e7f4"/>
  <path d="M9.54 9.52c0 .47-.07.93 0 1.39H8.49a.71.71 0 1 1 0-1.41Zm4.07 4.21c-.08.07-.17 0-.25 0h-3.31c-.24 0-.27 0-.21.28s.17.72.26 1.08H8.44a.7.7 0 0 1-.11-1.39.44.44 0 0 1 .16 0Z" fill="#dcdbeb"/>
  <path d="M14.45 17.96h1a.71.71 0 1 1 0 1.41h-2a.71.71 0 1 1 0-1.41Z" fill="#e7e7f4"/>
</svg>
