<svg xmlns="http://www.w3.org/2000/svg" width="23.95" height="23.96" viewBox="0 0 23.95 23.96">
  <path d="M18.2 2.39c0 .29-.23.34-.46.35-1.07.09-2.15.17-3.22.2h-1.31c-.13 0-.17 0-.17.17v1.26c0 .19 0 .23.23.23a1.11 1.11 0 0 1 1.19 1.17v.82c0 .27 0 .3.27.35a1.28 1.28 0 0 1 1 1.24 5.48 5.48 0 0 0 1.59 3.8 7.09 7.09 0 0 1 .94 8.3c-.15.27-.24.31-.55.24s-.27-.3-.14-.56a7.12 7.12 0 0 0 .35-.74 6.23 6.23 0 0 0-1.16-6.71 6.69 6.69 0 0 1-1.64-2.92 5.49 5.49 0 0 1-.15-1.21c0-.5-.22-.73-.72-.73H9.83a.52.52 0 0 0-.25 0 .61.61 0 0 0-.46.65 4.75 4.75 0 0 1-.06.84.65.65 0 0 1-.16.38c-.1.11-.21.19-.36.09a.4.4 0 0 1-.25-.53 3.64 3.64 0 0 0 .07-.81 1.33 1.33 0 0 1 1-1.37c.12 0 .12-.1.12-.19v-1a1.11 1.11 0 0 1 1.18-1.18c.2 0 .25-.05.24-.24V3.05c0-.12 0-.18-.16-.18-2.66 0-5.3-.31-7.95-.51l-1.67-.14a1.17 1.17 0 0 1-1.07-.83s0-.08-.05-.1V.82A1.05 1.05 0 0 1 .5.03a1.36 1.36 0 0 1 .43-.14h.66c.41.05.83 0 1.25.07.73 0 1.46.11 2.19.16l2.09.17c1.07.09 2.14.12 3.22.17h2.52c1.27 0 2.53-.08 3.8-.17l3.25-.26c.76-.06 1.52-.1 2.29-.13h.81a1.82 1.82 0 0 1 .56.31 1.17 1.17 0 0 1-.73 2l-3.37.28c-.24 0-.4-.07-.45-.31s0-.36.23-.43a2 2 0 0 1 .48-.07c1-.07 2-.15 3-.24a.42.42 0 0 0 .41-.42.41.41 0 0 0-.49-.36l-1.84.15-2.65.22-2.28.17c-.35 0-.7 0-1 .05-1.48.07-3 .09-4.42.05s-3-.13-4.43-.26C4.78.93 3.52.83 2.26.74A8.08 8.08 0 0 1 1.4.66h-.12a.4.4 0 0 0-.45.37.43.43 0 0 0 .41.41l1.18.1c.88.06 1.76.14 2.63.21l2.12.17c1.09.09 2.18.13 3.27.16s2.27.06 3.41 0h1.35c.85 0 1.69-.12 2.54-.17a.5.5 0 0 1 .32 0c.11.18.21.29.14.48Z"/>
  <path d="M8.51 9.68c.3 0 .37-.09.43-.38a5.54 5.54 0 0 0 .1-1 .6.6 0 0 1 .48-.65h2.39c.12 0 .16.07.18.17a4.51 4.51 0 0 1 .08.53 5.72 5.72 0 0 0 1.43 2.9 7.72 7.72 0 0 1 2 3.67c.06.26.09.53.13.79a.25.25 0 0 1 0 .22.72.72 0 0 1-.46 0c-.07-.06-.06-.15-.07-.23v-.28c0-.22-.12-.35-.29-.35s-.28.12-.28.35a1.26 1.26 0 0 0 .1.74c0 .12-.08.18-.14.26a.86.86 0 0 0 .21 1.27 1.48 1.48 0 0 0 .57.26.4.4 0 0 1 .23.1 1.73 1.73 0 0 1-.16.78 7.34 7.34 0 0 1-1.55 2.64 8.32 8.32 0 0 1-2.2 1.67l-.18.07a4.06 4.06 0 0 1-1.57-.3 6.45 6.45 0 0 1-4.38-5.89 6.58 6.58 0 0 1 .71-3.23 8.26 8.26 0 0 1 1.3-1.76 5.85 5.85 0 0 0 .56-.75.65.65 0 0 0 .07-.79 6.23 6.23 0 0 0 .31-.81Z" fill="#f8ee92"/>
  <path d="M15.72 15.88a7.4 7.4 0 0 0-.53-2.18 8.69 8.69 0 0 0-1.71-2.53 5.57 5.57 0 0 1-1.36-2.86v-.16c-.09-.5-.09-.5-.59-.5h-2a.37.37 0 0 1 .25 0h4.51a.64.64 0 0 1 .72.68 6 6 0 0 0 1.7 4.11 6.39 6.39 0 0 1 .92 7.57c-.15.27-.14.37.06.58a5 5 0 0 1-.53.68c-.36 0-.57.18-.81.4a6.22 6.22 0 0 1-3.57 1.62 7 7 0 0 1-1 0c-.1 0-.21 0-.26-.1a7.34 7.34 0 0 0 4.08-5.1c.14-.1.3-.07.45-.11a1.41 1.41 0 0 0 .8-.48.82.82 0 0 0-.08-1.12 1.42 1.42 0 0 0-.77-.41c-.12-.01-.22.01-.28-.09Z" fill="#f9d282"/>
  <path d="M18.2 2.39c-.05-.28-.18-.38-.45-.35-1.24.09-2.48.17-3.73.22h-3.29c-1.74 0-3.47-.15-5.2-.3l-3.72-.3h-.56c-.35 0-.57-.23-.55-.51S.95.7 1.29.73l2.4.19 2.58.21a65.9 65.9 0 0 0 6.74.24c1.83 0 3.66-.15 5.48-.31l3.14-.25.91-.08h.18a.48.48 0 0 1 .51.44.47.47 0 0 1-.46.49l-1.74.14-1.63.14c-.29 0-.36.1-.39.39a2.83 2.83 0 0 0-.81.06Z" fill="#77738b"/>
  <path d="M11.49 23.2a5.44 5.44 0 0 0 2-.12 6.17 6.17 0 0 0 3.09-1.72.44.44 0 0 1 .6-.12c.16.28.15.38-.09.61a6.87 6.87 0 0 1-7.1 1.78 6.78 6.78 0 0 1-4.93-5.45 6.86 6.86 0 0 1 1.7-6.15 6.64 6.64 0 0 0 .94-1.24.41.41 0 0 1 .51-.26c.23.19.26.32.11.58a6.54 6.54 0 0 1-1 1.31 6.43 6.43 0 0 0 3.07 10.61 3.72 3.72 0 0 0 1.1.17Z"/>
  <path d="M10.47 5.37c.07-.06.16 0 .25 0h2.52c.37 0 .51.14.51.5v.91c0 .14 0 .18-.18.17h-1.55c-.09-.09-.07-.2-.07-.31v-.79c0-.27-.06-.36-.37-.36h-.86a.32.32 0 0 1-.25-.12Z" fill="#6c6580"/>
  <path d="M10.47 5.37h1.23c.19 0 .28.06.3.24v1.3h-1.66c-.13 0-.18 0-.18-.16v-1a.36.36 0 0 1 .31-.38Z" fill="#76728b"/>
  <path d="M12.34 3.88a4.7 4.7 0 0 1 0 .65c0 .31-.31.11-.46.14s-.29.1-.28-.14V3.18c0-.45.29-.09.45-.13s.28-.11.28.13.01.42.01.7Z" fill="#6c657f"/>
  <path d="M15.72 15.88a1.48 1.48 0 0 1 1.15.52.94.94 0 0 1-.29 1.41 1.86 1.86 0 0 1-1 .27 4.33 4.33 0 0 1-.56-.16 1 1 0 0 1-.32-1.71.6.6 0 0 0 .56-.28Zm-6.46.35a.91.91 0 0 1 .13 1.37 1.45 1.45 0 0 1-1.31.48 1.51 1.51 0 0 1-.73-.27 1 1 0 0 1 .08-1.7 1.73 1.73 0 0 1 1.26-.16.61.61 0 0 0 .57.28Z" fill="#fe95a2"/>
  <path d="M11.97 16.62a1.32 1.32 0 0 1-1-.43.34.34 0 0 1 0-.51.35.35 0 0 1 .5 0 .66.66 0 0 0 1 0 .37.37 0 0 1 .51 0 .36.36 0 0 1 0 .52 1.32 1.32 0 0 1-1.01.42Z"/>
  <path d="M9.26 16.23c-.33.11-.47 0-.57-.28s0-.38 0-.56a.35.35 0 0 1 .35-.36.33.33 0 0 1 .34.36c0 .28.13.6-.12.84Zm5.99-.28c-.1.32-.24.39-.56.28a1.39 1.39 0 0 1-.1-1 .32.32 0 0 1 .37-.17.32.32 0 0 1 .28.32c.01.18.01.37.01.57Z" fill="#010101"/>
</svg>
