<svg xmlns="http://www.w3.org/2000/svg" width="23.94" height="22.83" viewBox="0 0 23.94 22.83">
  <path d="M0 10.01a.88.88 0 0 0 .11-.39 3.73 3.73 0 0 1 .85-1.56.41.41 0 0 0 .13-.33V6.66a1 1 0 0 1 .54-.92c.2-.1.2-.23.2-.4a1 1 0 0 1 .73-1.05 1 1 0 0 1 .35 0H4.4a1 1 0 0 1 1.08 1.09.39.39 0 0 0 .23.41 1 1 0 0 1 .51.93c0 .16 0 .21.2.21.55 0 .55 0 .55-.56v-4A2.21 2.21 0 0 1 9.29.03h5.38a2.21 2.21 0 0 1 2.31 2.3v1a.38.38 0 0 1-.34.44.24.24 0 0 1-.31-.08.56.56 0 0 1-.12-.4v-1A1.43 1.43 0 0 0 14.72.82H9.23a1.42 1.42 0 0 0-1.48 1.47v4.23c0 .28 0 .32.33.32h7.59a1.47 1.47 0 0 0 .21 0c.33 0 .34 0 .34-.33v-.82a5 5 0 0 1 0-.55.34.34 0 0 1 .42-.34c.27.07.34.16.34.44v1.43c0 .19 0 .26.25.26h3a3.63 3.63 0 0 1 3.72 3.7v8.56a3.62 3.62 0 0 1-3.7 3.69H4.61c-.34 0-.4 0-.5-.33a.33.33 0 0 1 .24-.41.85.85 0 0 1 .32 0h15.59a2.86 2.86 0 0 0 2.92-2.92v-3.61c0-.33 0-.34-.35-.34H18.6c-.33 0-.35 0-.39.35a6.26 6.26 0 0 1-5.43 5.47 4.08 4.08 0 0 1-.93.06 6.82 6.82 0 0 0-.79-.07 6.26 6.26 0 0 1-4.88-3.8 5.52 5.52 0 0 1-.45-1.74c0-.19-.09-.27-.29-.27H1.02c-.19 0-.25.08-.25.26v3.77a2.85 2.85 0 0 0 1.9 2.59 1.43 1.43 0 0 1 .34.14.3.3 0 0 1 .16.42c-.15.28-.26.33-.56.23a3.61 3.61 0 0 1-2.56-2.87s0-.1 0-.12Z"/>
  <path d="M12.58 22.12h-8c-.33 0-.42.07-.49.37a4.24 4.24 0 0 1-.94-.05.42.42 0 0 0-.36-.44 2.9 2.9 0 0 1-2.1-2.88v-3.71c0-.18.05-.22.22-.22h4.56c.23 0 .29.06.32.28a6.1 6.1 0 0 0 3.25 4.86 5.72 5.72 0 0 0 2.56.72 1.81 1.81 0 0 1 .23 0c0 .06-.09 0-.15.08.23.23.45.48.7.69.1.11.21.16.2.3Z" fill="#e26274"/>
  <path d="M16.67 4.76c-.28.06-.36.15-.36.44v.42a.42.42 0 0 1-.31.07H8a.42.42 0 0 1-.31-.07V2.14A1.46 1.46 0 0 1 9.16.71h5.65a1.47 1.47 0 0 1 1.46 1.5v1.17c0 .39.08.37.36.42a5.68 5.68 0 0 0 .04.96Z" fill="#ee9e4a"/>
  <path d="m12.58 22.12-.8-.77c-.06-.07-.14-.13-.15-.24h.21a6.28 6.28 0 0 0 4.13-1.47 6.11 6.11 0 0 0 2.18-4.08c0-.33 0-.33.38-.33h4.49c.19 0 .23.05.23.23v3.74a2.93 2.93 0 0 1-3 3h-7.72Z" fill="#ee95a1"/>
  <path d="M9.51 9.13a6.46 6.46 0 0 0-2.63 2.17 6.08 6.08 0 0 0-1.09 2.9c0 .3 0 .3-.35.3H.93c-.18 0-.23-.05-.23-.23v-3.69a3 3 0 0 1 3-3h16.59a.86.86 0 0 1 .39 0c-.12.12-.28.08-.42.08h-9.87c-.57 0-.5 0-.65.51-.07.35-.13.66-.23.96Z" fill="#edca72"/>
  <path d="M9.51 9.13c-.1-.09 0-.19 0-.28.07-.35.18-.7.26-1.06a.18.18 0 0 1 .21-.16h10.69a2.92 2.92 0 0 1 2.47 2.15 3.23 3.23 0 0 1 .1.76v3.77c0 .18-.05.21-.22.21h-4.55c-.23 0-.29-.06-.32-.28a6.06 6.06 0 0 0-3.82-5.12 6 6 0 0 0-4.56-.07Z" fill="#f5ec83"/>
  <path d="M11.95 20.38a5.52 5.52 0 1 1 5.54-5.42 5.52 5.52 0 0 1-5.54 5.42Z" fill="#80a4da"/>
  <path d="M7.67 5.62h8.59v1.12c0 .11 0 .16-.15.14H7.89c-.2 0-.25-.05-.24-.25s.02-.67.02-1.01Z" fill="#e9842b"/>
  <path d="M3.67 6.28H5.1a.38.38 0 0 1 .4.25c.09.26 0 .35-.24.35H3.19a3.39 3.39 0 0 0-1.24.39c-.14.08-.17 0-.16-.1V6.7c0-.31.13-.44.44-.44Z" fill="#80a4d9"/>
  <path d="M3.67 5.58h-.84c-.1 0-.26.09-.27-.13s0-.43.24-.47h1.65a.38.38 0 0 1 .35.54c0 .1-.11.07-.17.07Z" fill="#444c55"/>
  <path d="M11.96 4.64H9.32a.81.81 0 0 1-.9-.9V2.29a.8.8 0 0 1 .84-.84h5.41a.8.8 0 0 1 .83.83v1.54a.8.8 0 0 1-.81.82Zm8.08 4a1.7 1.7 0 1 1-1.7 1.68 1.7 1.7 0 0 1 1.7-1.68Zm-8.07 1.67a4.55 4.55 0 1 1-4.53 4.56 4.55 4.55 0 0 1 4.53-4.56Z"/>
  <path d="M20.05 9.35a1 1 0 0 1 1 1 1 1 0 1 1-2 0 1 1 0 0 1 1-1Z" fill="#ee95a1"/>
  <path d="M8.14 14.87a3.84 3.84 0 1 1 3.83 3.83 3.82 3.82 0 0 1-3.83-3.83Z" fill="#444c55"/>
  <path d="M13.3 14.47a1.38 1.38 0 1 1-1.1-1h.19s0 .07.06.11a1 1 0 0 0 .67.73c.07.08.14.09.18.16Z" fill="#93d8fb"/>
</svg>
