<svg xmlns="http://www.w3.org/2000/svg" width="23.95" height="23.95" viewBox="0 0 23.95 23.95">
  <path d="M19.65 10.29a4.65 4.65 0 0 0 .71-1.09c0-.1.13-.1.22-.1H21a3.76 3.76 0 0 0 2.26-1.42 3.06 3.06 0 0 0 .69-1.75V4.85a.07.07 0 0 1 0-.05A10.78 10.78 0 0 0 22.49.85a.62.62 0 0 0-.82-.29.65.65 0 0 0-.36.81 1.08 1.08 0 0 1-.55 1.36l-1.51.88a2.87 2.87 0 0 0-1.55 2.7c0 .06 0 .13-.07.15a1.39 1.39 0 0 0-.67.39c-.1.08-.14 0-.2 0a1.4 1.4 0 0 0-.7-.44 1.64 1.64 0 0 0-1.13.15.32.32 0 0 1-.34 0 5.29 5.29 0 0 0-.6-.36.27.27 0 0 1-.2-.25 1.64 1.64 0 0 0 0-.32 1.38 1.38 0 0 0-1.15-1.14 4.18 4.18 0 0 0-1 0 1.27 1.27 0 0 0-1.24 1 1.21 1.21 0 0 1-.76 1 .68.68 0 0 1-.65.06 1.35 1.35 0 0 0-1.61.3c-.09.08-.13.06-.2 0a4 4 0 0 0-.73-.69c-1.52-.83-3-1.67-4.48-2.58a1.14 1.14 0 0 0-1.06-.09 1.26 1.26 0 0 0-.6 1.89c.69 1.13 1.4 2.24 2 3.42a6.14 6.14 0 0 0 1.43 1.91s.13.07.11.17H1.7a1.63 1.63 0 0 0-.49 0 1.39 1.39 0 0 0-1.07 1.14 1.37 1.37 0 0 0 .54 1.44l2.55 1.94a.36.36 0 0 1 .16.33v2.55c0 .31.07.39.37.48a.32.32 0 0 0 .38-.27 1.32 1.32 0 0 0 0-.28v-2.19c0-.31 0-.32.32-.32h6.7c.32 0 .33 0 .33.35v6.77c0 .34 0 .35-.35.35H5.96a1.91 1.91 0 0 1-1.89-1.56 2.48 2.48 0 0 1-.06-.54v-1.33c0-.3-.18-.45-.43-.39a.38.38 0 0 0-.33.43v1.45a2.65 2.65 0 0 0 1.17 2.24 3.27 3.27 0 0 0 1.2.47h12.63a2.41 2.41 0 0 0 1.08-.31 2.82 2.82 0 0 0 1.36-2.47v-5.37a.61.61 0 0 1 .27-.55c.76-.57 1.52-1.14 2.27-1.72a1.58 1.58 0 0 0 .68-1v-.61c-.06-.14 0-.29-.12-.42a1.39 1.39 0 0 0-1.29-.81h-3c-.09 0-.11 0-.06-.12a2.92 2.92 0 0 1 .21-.27Zm-7.68.62a.71.71 0 0 1-.7-.7.72.72 0 0 1 .7-.7.71.71 0 0 1 .71.71.71.71 0 0 1-.71.69Z"/>
  <path d="M3.65 18.67a.42.42 0 0 0 .34-.47v-2.36c0-.16 0-.23.22-.23h2.26a.56.56 0 0 1 .07.38v5.22a2.23 2.23 0 0 0 .81 1.77c.08.06.17.12.15.24a12.31 12.31 0 0 1-1.82 0 2 2 0 0 1-1.67-1.95v-1.49c0-.28-.09-.37-.37-.41a3.2 3.2 0 0 0 .01-.7Z" fill="#ca7a71"/>
  <path d="M8.24 4.45a.84.84 0 0 1-.67-.33.26.26 0 0 1-.07-.11 1.7 1.7 0 0 0-1-1.05.82.82 0 0 1 0-1.48 6.69 6.69 0 0 0 1-1 .84.84 0 0 1 1.48 0 4 4 0 0 0 1.05 1.05.85.85 0 0 1 0 1.48 4.19 4.19 0 0 0-1.05 1.05.88.88 0 0 1-.74.39Zm5.73-1.3a.69.69 0 0 1 .5-.68 1 1 0 0 0 .57-.59.72.72 0 0 1 1-.39 1.08 1.08 0 0 1 .46.63.38.38 0 0 0 .25.24 1.83 1.83 0 0 1 .39.21.68.68 0 0 1 0 1.17 2.06 2.06 0 0 0-.86.87.67.67 0 0 1-1.16 0 1.66 1.66 0 0 0-.83-.82.61.61 0 0 1-.32-.64Z"/>
  <path d="M17.25 15.39a.46.46 0 0 0 .45.23h2.08c.12 0 .19 0 .19.15v4.77c0 .08-.09.06-.13 0a1.67 1.67 0 0 0-.73-.33s-.08 0-.1-.09a3.54 3.54 0 0 1 0-.46c0-.22-.16-.36-.32-.34s-.24.14-.25.36a3.75 3.75 0 0 0 0 .58.23.23 0 0 1-.11.17.67.67 0 0 0-.25.81.82.82 0 0 0 .75.51 1.17 1.17 0 0 0 1-.26.14.14 0 0 1 .16-.05 1.9 1.9 0 0 1-1.83 1.76h-5.63c-.09 0-.14 0-.14-.12v-1.71c.12 0 .17.07.24.12a1.19 1.19 0 0 0 1.29.11.67.67 0 0 0 .14-1.17.57.57 0 0 1-.14-.13c0-.14.07-.27.06-.41s0-.15 0-.23-.06-.31-.24-.36-.28.09-.35.23a1.49 1.49 0 0 0 0 .42c0 .1 0 .2-.15.23a1.79 1.79 0 0 0-.72.35.09.09 0 0 1-.09 0v-4.77c0-.19.05-.23.23-.23h3.48a.49.49 0 0 0 .48-.23c0-.16.1-.21.24-.21h.25c.05.09.14.15.14.3Z" fill="#e7aba8"/>
  <path d="M7.48 23.24a6.92 6.92 0 0 1-.6-.61 2.19 2.19 0 0 1-.42-1.26v-5.74h4.95c.12 0 .21 0 .21.17v7.29c0 .12 0 .17-.17.17Z" fill="#d38881"/>
  <path d="M16.62 8.02a7.69 7.69 0 0 0-.39-.69.62.62 0 0 0-.56-.29 2.16 2.16 0 0 0-.82.24.46.46 0 0 1-.5-.07 2.83 2.83 0 0 0-.83-.5.57.57 0 0 1-.43-.56 3.39 3.39 0 0 0-.08-.44.71.71 0 0 0-.71-.62h-.65a.71.71 0 0 0-.71.62c0 .19-.07.37-.09.56a.46.46 0 0 1-.28.39 1.28 1.28 0 0 0-.42.21.43.43 0 0 0-.11.2 5.14 5.14 0 0 0-.32 2.77 5.34 5.34 0 0 0 3.09 4.15.23.23 0 0 0 .24 0 1.88 1.88 0 0 1 .23-.16l2.69-2.05c.36-.28.37-.27 0-.56a.41.41 0 0 1-.2-.4 1.62 1.62 0 0 0 0-.69 1.13 1.13 0 0 1 .61-1.29.63.63 0 0 0 .24-.82Zm-4.65 1.52a.71.71 0 0 1 .71.71.71.71 0 0 1-.71.69.71.71 0 0 1-.7-.7.72.72 0 0 1 .7-.73Z" fill="#144a8a"/>
  <path d="M17.25 15.39a.52.52 0 0 0-.73 0c0-.36-.08-.47-.46-.47h-3c0-.09.06-.1.11-.13l3.08-2.36a4.57 4.57 0 0 1 2.82-1h3.32a.74.74 0 0 1 .78.51.75.75 0 0 1-.31.9l-2.55 1.94a.52.52 0 0 1-.36.12h-2.29c-.32.02-.43.12-.41.49Z" fill="#d38881"/>
  <path d="M10.91 14.91H3.98a.61.61 0 0 1-.39-.13l-2.52-1.93a.75.75 0 0 1-.32-.9.74.74 0 0 1 .8-.51h3.34a4.5 4.5 0 0 1 2.71.92c1.06.79 2.1 1.6 3.14 2.39Z" fill="#ca7a71"/>
  <path d="M10.16 6.84c-.09.41-.27.8-.34 1.22a5.35 5.35 0 0 0 .32 3 5.39 5.39 0 0 0 2.83 2.86.32.32 0 0 0 .09 0c-.31.24-.62.47-.92.72-.12.1-.2.08-.32 0L8.11 11.8c-.09-.06-.17-.14-.26-.19s-.22-.2 0-.32a.66.66 0 0 0 .34-.76 2.94 2.94 0 0 1 0-1 .33.33 0 0 0-.12-.33c-.17-.14-.33-.29-.5-.42a.68.68 0 0 1-.21-.9 7.16 7.16 0 0 1 .39-.66.68.68 0 0 1 .83-.25l.57.21a.41.41 0 0 0 .45-.07 2.08 2.08 0 0 1 .56-.27Z" fill="#153982"/>
  <path d="M22.03 4.64a.41.41 0 0 0 .11.56 2.59 2.59 0 0 1 .76 1.32.42.42 0 0 1 0 .31 2.92 2.92 0 0 1-2.44 1.5 1 1 0 0 1-.77-.32c-.27-.32-.58-.61-.87-.91-.08-.08 0-.17 0-.26a3 3 0 0 1 1.21-1.58c.49-.33 1-.6 1.53-.89h.1c.13.07.29.11.37.27Z" fill="#f1cdcc"/>
  <path d="M16.56 10.21c-.16-.4.05-.63.35-.87a1.34 1.34 0 0 0 .34-1.67c-.06-.13-.06-.19.06-.28.5-.37.4-.37.82 0s.9.91 1.36 1.35a.26.26 0 0 1 0 .4c-.38.49-.75 1-1.12 1.48a.41.41 0 0 1-.28.18 3.88 3.88 0 0 0-.94.27.29.29 0 0 1-.29 0 .67.67 0 0 1-.3-.86Z" fill="#b7ccf3"/>
  <path d="M7.43 10.71c-.11.19-.31.27-.45.42s-.12 0-.17 0a5.19 5.19 0 0 0-1.86-.38.22.22 0 0 1-.19-.06l-.91-.92a3.72 3.72 0 0 0 1.71-.93c.09 0 .13.08.19.13l1.52 1.52a1.12 1.12 0 0 1 .16.22Z" fill="#fea957"/>
  <path d="M3.33 6.61a3.94 3.94 0 0 0 .66-1c0-.08.07-.1.15 0l1.61.88c.13.06.11.16.1.25a2.67 2.67 0 0 1-.8 1.59c-.11 0-.16-.06-.21-.12l-1.4-1.39c-.05-.06-.14-.11-.11-.21Z" fill="#fbcec4"/>
  <path d="M3.33 6.61c.56.58 1.13 1.16 1.72 1.72a2.69 2.69 0 0 1-1.57.79.24.24 0 0 1-.32-.1c-.27-.53-.56-1-.84-1.56-.05-.08-.07-.14.05-.19a4 4 0 0 0 .96-.66Z" fill="#fea994"/>
  <path d="M21.56 4.39c-.46.33-1 .56-1.44.87a2.89 2.89 0 0 0-1.31 1.84c-.53-.34-.49-.86-.41-1.37.12-.72.59-1.09 1.44-1.24a2.67 2.67 0 0 1 1.09 0 .38.38 0 0 0 .5-.22c.07.02.12.04.13.12Z" fill="#e7aba8"/>
  <path d="M19.03 20.15a3.75 3.75 0 0 1 .92.39 4.13 4.13 0 0 1 0 .93 1.32 1.32 0 0 1-1.37.32.77.77 0 0 1-.6-.85.68.68 0 0 1 .27-.49l.15-.14h.11a.29.29 0 0 0 .44-.11s.03-.05.08-.05Z" fill="#fe8294"/>
  <path d="m21.56 4.39-.13-.08c0-.32-.06-.4-.36-.47a3.79 3.79 0 0 0-.73-.1c.24-.15.44-.27.65-.38a1.86 1.86 0 0 0 1.06-1.77 9.66 9.66 0 0 1 .82 1.83.61.61 0 0 1-.23.37 3.35 3.35 0 0 1-1 .61Z" fill="#8e5ec4"/>
  <path d="M12.34 20.59a1.45 1.45 0 0 1 .75-.4c.12 0 .15-.1.15-.22a.81.81 0 0 1 0-.41c.1.07.07.18.08.27 0 .52 0 .55.53.51a.8.8 0 0 1 .48.71 1 1 0 0 1-.68.75 1.32 1.32 0 0 1-1.34-.38 5.75 5.75 0 0 1 .03-.83Z" fill="#fe8294"/>
  <path d="M7.43 10.71c-.63-.61-1.27-1.23-1.87-1.87a3.77 3.77 0 0 0 .93-1.68c.32.18.33.24.19.54a1.36 1.36 0 0 0 .41 1.68.7.7 0 0 1 .34.75 3.74 3.74 0 0 0 0 .58Z" fill="#fec76d"/>
  <path d="M2.81 6.09a2.35 2.35 0 0 1-.76.56c-.08 0-.13 0-.19-.06C1.5 6 1.13 5.4.78 4.8a.54.54 0 0 1 .49-.81 3 3 0 0 0 1 1.44 2.91 2.91 0 0 1 .54.66Z" fill="#00307c"/>
  <path d="M2.81 6.09c-.42-.44-.87-.85-1.25-1.33a1.29 1.29 0 0 1-.29-.77.47.47 0 0 1 .34.12l1.67 1c.12.08.14.14.07.26a2.24 2.24 0 0 1-.54.72Z" fill="#144a8a"/>
  <path d="M21.65 4.4a3.59 3.59 0 0 1 .67-.42 2.44 2.44 0 0 0 .55-.56 5.92 5.92 0 0 1 .38 2 4.94 4.94 0 0 0-.61-.76c-.23-.22-.35-.23-.61-.06Z" fill="#aa7cdc"/>
  <path d="M9.75 2.22a.23.23 0 0 1-.13.17 2.29 2.29 0 0 1-.58.24.5.5 0 0 0-.4.4 2 2 0 0 1-.26.6c-.1.16-.19.16-.29 0a2.15 2.15 0 0 1-.28-.64.41.41 0 0 0-.34-.34 2.63 2.63 0 0 1-.6-.25c-.2-.13-.2-.22 0-.35a1.81 1.81 0 0 1 .54-.22.51.51 0 0 0 .41-.42 2.06 2.06 0 0 1 .25-.57c.11-.18.2-.18.31 0a2.1 2.1 0 0 1 .26.62.45.45 0 0 0 .36.36 2.81 2.81 0 0 1 .62.26c.07.03.13.07.13.14Z" fill="#fec76e"/>
  <path d="M15.72 4.21a1.15 1.15 0 0 1-.21-.43.51.51 0 0 0-.41-.41.88.88 0 0 1-.42-.21.86.86 0 0 1 .42-.2.51.51 0 0 0 .41-.42 1 1 0 0 1 .21-.41 1 1 0 0 1 .21.44.48.48 0 0 0 .39.38 1.12 1.12 0 0 1 .44.21.94.94 0 0 1-.44.21.46.46 0 0 0-.38.37 1.32 1.32 0 0 1-.22.47Z" fill="#fec76d"/>
  <path d="M16.16 20.82a1.19 1.19 0 0 1-1-.6.36.36 0 0 1 .09-.52.35.35 0 0 1 .5.14.48.48 0 0 0 .88 0 .36.36 0 0 1 .48-.14.36.36 0 0 1 .11.51 1.17 1.17 0 0 1-1.06.61Z"/>
  <path d="M13.88 20.34c-.36.21-.6.07-.61-.34v-.44a.35.35 0 0 1 .42-.28.37.37 0 0 1 .28.43 1.05 1.05 0 0 1-.09.63Zm5.15-.19c-.17.33-.35.37-.65.16a1.48 1.48 0 0 1 0-.78.29.29 0 0 1 .34-.25.33.33 0 0 1 .34.32c-.02.18-.04.42-.03.55Z" fill="#010101"/>
  <path d="M11.98 8.8a1.43 1.43 0 0 0-1.41 1.4 1.4 1.4 0 0 0 1.41 1.41 1.4 1.4 0 0 0 1.4-1.39 1.42 1.42 0 0 0-1.4-1.42Zm0 2.11a.71.71 0 0 1-.7-.7.72.72 0 0 1 .7-.7.71.71 0 0 1 .71.71.71.71 0 0 1-.72.69Z"/>
</svg>
