<svg xmlns="http://www.w3.org/2000/svg" width="23.95" height="21.23" viewBox="0 0 23.95 21.23">
  <path d="M1.61 12.63c-.26 0-.3-.24-.3-.47v-7c0-.17 0-.25-.2-.31A1.64 1.64 0 0 1 0 3.32v-1.7A1.67 1.67 0 0 1 1.61-.01h20.53a1.67 1.67 0 0 1 1.8 1.33v2.29c-.08.07-.07.18-.11.27a1.62 1.62 0 0 1-1 1 .22.22 0 0 0-.18.25v2.12a.38.38 0 0 1-.29.44.36.36 0 0 1-.47-.34 4 4 0 0 1 0-.49V5.38a.49.49 0 0 0-.05-.29c-.08-.08-.17-.06-.27-.06H2.33c-.17 0-.25.06-.24.23v6.7a2 2 0 0 1 0 .35.34.34 0 0 1-.48.32Z"/>
  <path d="M21.92 4.96V7.2c0 .31.1.42.41.44-.14.21 0 .46-.07.69-.29.2-.27.51-.27.81v6.21a1.59 1.59 0 0 1-1.15 1.6 1 1 0 0 1-.39.05H4.13a.82.82 0 0 1-.67-.3A1.76 1.76 0 0 1 3 15.55V5.27c0-.32 0-.33.33-.33h18.35a.44.44 0 0 1 .24.02Z" fill="#e79d79"/>
  <path d="M20.5 16.96a1.51 1.51 0 0 0 1.43-1.54V8.85a.43.43 0 0 1 .34-.5c.31.1.36.17.36.5v6.47a2.23 2.23 0 0 1-1.81 2.31c-.13 0-.15.09-.15.2v1.87a1.44 1.44 0 0 1-1.5 1.5h-1.03a1.44 1.44 0 0 1-1.49-1.49v-1.8c0-.2-.06-.23-.25-.23H7.61c-.17 0-.24 0-.23.22v1.83a1.44 1.44 0 0 1-1.46 1.47H4.78a1.45 1.45 0 0 1-1.47-1.46v-1.87c0-.15 0-.21-.18-.25a2.23 2.23 0 0 1-1.78-2.24v-1.56a.45.45 0 0 1 .34-.51.33.33 0 0 1 .42.26 1 1 0 0 1 0 .3v1.49a1.47 1.47 0 0 0 1.29 1.53 6.09 6.09 0 0 0 1 .09h15.8a.89.89 0 0 0 .3-.02Z"/>
  <path d="M20.5 16.96a.46.46 0 0 1-.23 0H3.7a1.56 1.56 0 0 1-1.69-1.71v-1.47c0-.34-.05-.4-.37-.49a2.72 2.72 0 0 0 0-.7c.31 0 .4-.12.4-.44v-7c0-.22.07-.26.28-.26h19.64H3.4c-.31 0-.31 0-.31.31v10.24a1.76 1.76 0 0 0 .66 1.36.38.38 0 0 0 .29.06H20.5Z" fill="#e28c66"/>
  <path d="M22.46.73a.93.93 0 0 1 .78.89v1.73a1 1 0 0 1-.93.91H2.14a.81.81 0 0 1-.43-.68 8.45 8.45 0 0 1 0-2.19 1 1 0 0 1 .13-.38.48.48 0 0 1 .48-.29h19.92a.74.74 0 0 1 .22.01Z" fill="#f9d282"/>
  <path d="M22.46.73h-20a.7.7 0 0 0-.73.7 11 11 0 0 0 0 1.52 2 2 0 0 0 .19 1c.06.11.16.19.22.3h-.51a.94.94 0 0 1-.94-.94V1.65A1 1 0 0 1 1.63.7h20.51a.66.66 0 0 1 .32.03Z" fill="#feb56f"/>
  <path d="M11.98 14.77H6.3a1.93 1.93 0 0 1-2.05-2.05v-4a1.92 1.92 0 0 1 2-2.05h11.37a1.92 1.92 0 0 1 2 2v4.05a1.92 1.92 0 0 1-2 2Z"/>
  <path d="M6.63 18.75v1.05a.74.74 0 0 1-.74.72H4.7a.75.75 0 0 1-.74-.75v-1a.39.39 0 0 1 .31-.08h2a.37.37 0 0 1 .36.06Zm13.33 0v1a.75.75 0 0 1-.74.75h-1.18a.75.75 0 0 1-.74-.75v-1a.39.39 0 0 1 .31-.08h2a.37.37 0 0 1 .35.08Z" fill="#e28c66"/>
  <path d="M6.63 18.75H3.98v-.89c0-.12 0-.16.16-.16h2.35c.12 0 .17 0 .16.16-.02.3-.01.59-.02.89Zm13.33 0h-2.65v-.89c0-.12 0-.16.16-.16h2.35c.12 0 .17 0 .16.16-.02.3-.01.59-.02.89Z" fill="#d7713f"/>
  <path d="M11.94 3.52a1.87 1.87 0 0 1-1.38-.62.34.34 0 0 1 0-.51.33.33 0 0 1 .51 0 1.27 1.27 0 0 0 1.87 0 .32.32 0 0 1 .49 0 .36.36 0 0 1 0 .52 2 2 0 0 1-1.49.61Z"/>
  <path d="M7.8 2.22v.44a.34.34 0 0 1-.37.34.32.32 0 0 1-.32-.35v-.86a.34.34 0 0 1 .33-.35.34.34 0 0 1 .37.34c0 .18-.01.29-.01.44Zm9.04.01v.44a.33.33 0 0 1-.33.33.33.33 0 0 1-.37-.31v-.93a.34.34 0 0 1 .37-.32.34.34 0 0 1 .33.35v.44Z" fill="#010000"/>
  <path d="M11.96 14.07H6.31a1.24 1.24 0 0 1-1.36-1.35v-4a1.23 1.23 0 0 1 1.32-1.33h11.39a1.22 1.22 0 0 1 1.33 1.34v4.05a1.23 1.23 0 0 1-1.32 1.33Z" fill="#f9d282"/>
  <path d="M11.98 9.38h2.87a1.29 1.29 0 0 1 1.3 1.12 1.32 1.32 0 0 1-1.08 1.5 2 2 0 0 1-.35 0H9.21a1.33 1.33 0 0 1-1.41-1.08 1.3 1.3 0 0 1 1.23-1.57h2.95Z"/>
  <path d="M11.97 11.33H9.14a.62.62 0 0 1-.66-.77.62.62 0 0 1 .55-.47h5.7a.62.62 0 0 1 .68.79.6.6 0 0 1-.61.45h-2.85Z" fill="#feb56f"/>
</svg>
