<svg xmlns="http://www.w3.org/2000/svg" width="29.56" height="24" viewBox="0 0 29.56 24">
  <path d="M6.44 19.96c-.36.19-.48.17-.74-.14a11.57 11.57 0 0 1-2.35-4.24.34.34 0 0 0-.37-.3 3.29 3.29 0 0 1-2.93-2.66v-1.03a6.14 6.14 0 0 1 .35-1 3.25 3.25 0 0 1 2.64-1.8.34.34 0 0 0 .35-.27A11.55 11.55 0 0 1 10.31 1a11.66 11.66 0 0 1 11.35 1.24c.34.23.37.33.25.7a.38.38 0 0 1-.51.22.9.9 0 0 1-.3-.17 11.11 11.11 0 0 0-5.31-1.91 3.85 3.85 0 0 0-.48 0 10.45 10.45 0 0 0-4.69.8 10.81 10.81 0 0 0-5.76 5.47q-.16.33-.3.66c-.06.14-.06.23.13.26a1.67 1.67 0 0 1 .68.23.17.17 0 0 0 .24 0 4.53 4.53 0 0 1 2.53-1.15 10.14 10.14 0 0 1 4 .16 3.82 3.82 0 0 1 1.55.73.5.5 0 0 0 .48.1 2.56 2.56 0 0 1 1.26 0 .39.39 0 0 0 .4-.06 5 5 0 0 1 2.62-1 9.59 9.59 0 0 1 4 .28 3.23 3.23 0 0 1 1.49.85.26.26 0 0 0 .35.06 1.5 1.5 0 0 1 .57-.2c.21 0 .23-.12.16-.29a11.44 11.44 0 0 0-1.27-2.33 15.8 15.8 0 0 0-1.24-1.47c-.26-.27-.25-.51 0-.7s.44-.17.71.1a11.66 11.66 0 0 1 3 4.92c.07.2.14.28.37.29a3.31 3.31 0 0 1 3 3.08 3.27 3.27 0 0 1-2.64 3.42.93.93 0 0 0-.84.73 11.66 11.66 0 0 1-9.33 7.85 11.54 11.54 0 0 1-9.6-2.57c-.25-.2-.27-.35-.11-.68a.41.41 0 0 1 .54-.15 1.15 1.15 0 0 1 .29.2 11 11 0 0 0 5.69 2.36c.56.07 1.11 0 1.67 0a10.15 10.15 0 0 0 4.15-1 11 11 0 0 0 5-4.53 11 11 0 0 0 1.4-4.24c.07-.66 0-1.32 0-2a2 2 0 0 0-.54.27c-.22.12-.44.26-.67.38a.85.85 0 0 0-.5.56 2.92 2.92 0 0 1-2.36 1.82 9.34 9.34 0 0 1-1.74.18 7.52 7.52 0 0 1-2.66-.42 2.45 2.45 0 0 1-1.26-1 5.33 5.33 0 0 1-.62-1.24c0-.13-.08-.25-.13-.38a.59.59 0 0 0-.53-.41.57.57 0 0 0-.54.41 9.19 9.19 0 0 1-.5 1.22 2.86 2.86 0 0 1-1.88 1.53 8 8 0 0 1-2.28.29 8.27 8.27 0 0 1-2-.24 2.8 2.8 0 0 1-2.12-1.76.87.87 0 0 0-.5-.56c-.34-.18-.67-.38-1-.57-.14-.08-.2-.08-.21.11a11 11 0 0 0 1.46 6.08 11.65 11.65 0 0 0 1.23 1.74c.23.32.23.47-.02.69Z"/>
  <path d="M15.24.92a10.39 10.39 0 0 1 4.27 1 11.25 11.25 0 0 1 1.64.95c.31.21.42.2.71 0l.65.54c-.18.31-.17.44.09.7a11 11 0 0 1 2.52 3.85c0 .09.07.18.11.29a1.72 1.72 0 0 0-1.05.29c-.07.05-.12.07-.19 0a3.44 3.44 0 0 0-2.1-1.09 9.36 9.36 0 0 0-4.7.13 3.17 3.17 0 0 0-1.4.77.22.22 0 0 1-.25 0 2.3 2.3 0 0 0-1.53 0 .18.18 0 0 1-.23 0 4.43 4.43 0 0 0-2.37-1 10.63 10.63 0 0 0-3.33 0c-.09-.16 0-.3.08-.43A12.7 12.7 0 0 1 9.8 4.46a11.59 11.59 0 0 1 3.82-2.92 6.3 6.3 0 0 1 1.62-.62Z" fill="#fcde9a"/>
  <path d="M6.44 19.96a.53.53 0 0 0-.09-.72 11.06 11.06 0 0 1-2.65-8.13 2.87 2.87 0 0 1 .65.34c.26.14.5.3.76.43a.68.68 0 0 1 .42.53c0 .11-.13.16-.21.23a1.74 1.74 0 0 0 .12 3 2.93 2.93 0 0 0 2 .42.81.81 0 0 1 .31 0c.13 0 .15.16.2.27a11.42 11.42 0 0 0 5 5.65 11.26 11.26 0 0 0 2.07.92c.1 0 .24 0 .25.19a10.5 10.5 0 0 1-5.28-1.07 10.66 10.66 0 0 1-2.23-1.42.51.51 0 0 0-.7 0 4.7 4.7 0 0 1-.62-.64Z" fill="#fec76e"/>
  <path d="M15.24 23.08c-.43-.22-.91-.34-1.35-.54a10.82 10.82 0 0 1-2.38-1.43 11.44 11.44 0 0 1-2.85-3.23 17.22 17.22 0 0 1-.87-1.78c0-.11.08-.11.15-.13a2.27 2.27 0 0 0 1.59-1.52.18.18 0 0 1 0-.07 10.93 10.93 0 0 0 2.06-.24 3 3 0 0 0 2.16-1.78 7.45 7.45 0 0 0 .36-1 .63.63 0 0 1 .63-.48.64.64 0 0 1 .61.48c0 .17.1.33.15.5a3.39 3.39 0 0 0 3.29 2.42l1.13.07a.36.36 0 0 1 .08.12 2.32 2.32 0 0 0 2.17 1.57 2.66 2.66 0 0 0 2.29-.77 1.68 1.68 0 0 0-.14-2.56c-.12-.1-.29-.17-.35-.33a.71.71 0 0 1 .42-.53c.47-.25.92-.52 1.4-.8a10.79 10.79 0 0 1-.11 2.79 11 11 0 0 1-6.53 8.32 9.66 9.66 0 0 1-3.91.92Z" fill="#fcde9a"/>
  <path d="M15.24.92c-.56.26-1.15.42-1.7.7a11.8 11.8 0 0 0-3.43 2.56 10.57 10.57 0 0 0-2 3 .61.61 0 0 0 0 .11 7.82 7.82 0 0 0-1.64.52 2.54 2.54 0 0 0-.84.64c-.07.1-.13.13-.23.06a1.68 1.68 0 0 0-1.06-.28 10.5 10.5 0 0 1 1.9-3.34 11 11 0 0 1 8.86-4Z" fill="#fec76e"/>
  <path d="M13.85 9.41a1.52 1.52 0 0 1 1.74-.06.4.4 0 0 0 .6-.14 1.72 1.72 0 0 1 1.05-.76 8.51 8.51 0 0 1 5.21 0 1.52 1.52 0 0 1 1 .9.41.41 0 0 0 .63.19c.22-.12.43-.25.65-.36a.64.64 0 0 1 .88.22.63.63 0 0 1-.25.9c-.57.34-1.15.66-1.72 1a.5.5 0 0 0-.29.3 2.33 2.33 0 0 1-2.29 1.8 8.89 8.89 0 0 1-3-.15 2.06 2.06 0 0 1-1.45-1.16 2.91 2.91 0 0 1-.32-.83 1.54 1.54 0 0 0-2.31-1c-.11 0-.13-.08-.13-.15a2.41 2.41 0 0 1 0-.7Z" fill="#767bc0"/>
  <path d="M13.85 9.41c.1.17 0 .36.06.53s0 .24.06.33a1.61 1.61 0 0 0-.7 1 4.81 4.81 0 0 1-.28.75 2.13 2.13 0 0 1-1.69 1.29 8.93 8.93 0 0 1-3.3 0 2.12 2.12 0 0 1-1.77-1.56.8.8 0 0 0-.4-.5c-.54-.3-1.07-.61-1.6-.92a.64.64 0 0 1-.33-.91.68.68 0 0 1 1-.2c.2.11.38.23.58.33a.4.4 0 0 0 .6-.19 1.73 1.73 0 0 1 1.22-1 8.83 8.83 0 0 1 3.79-.26 5 5 0 0 1 1.45.49 1.51 1.51 0 0 1 .78.65.49.49 0 0 0 .53.17Z" fill="#5c63a5"/>
  <path d="M9.54 14.38a1.91 1.91 0 0 1-1 1.4 5.57 5.57 0 0 1-.76.32 4 4 0 0 1-1.42 0 2.47 2.47 0 0 1-1.73-1.22 1.76 1.76 0 0 1 .51-2.21 3.19 3.19 0 0 1 .38-.26l.24.45a2.86 2.86 0 0 0 2.08 1.34 10.05 10.05 0 0 0 1.7.18Zm14.48-1.97a1.92 1.92 0 0 1 1.09 1.76 1.88 1.88 0 0 1-.93 1.51 3 3 0 0 1-3.77-.39 1.38 1.38 0 0 1-.44-.91 12.53 12.53 0 0 0 1.73-.18 2.9 2.9 0 0 0 2.32-1.79Z" fill="#fe8194"/>
  <path d="M28.69 11.99a2.44 2.44 0 0 1-1.92 2.39c-.2.05-.27 0-.22-.2a11.64 11.64 0 0 0 .17-3.06c0-.41-.1-.81-.12-1.21s0-.34.32-.25a2.46 2.46 0 0 1 1.77 2.33Zm-25.7-2.4a13.46 13.46 0 0 0 0 4.78 2.38 2.38 0 0 1-2.17-2.23 2.41 2.41 0 0 1 2.17-2.55Z" fill="#fec76e"/>
  <path d="M14.78 14.79a1.42 1.42 0 0 1-1.08-.47.42.42 0 0 1 0-.61.41.41 0 0 1 .61 0 .61.61 0 0 0 .94 0 .42.42 0 0 1 .62 0 .43.43 0 0 1 0 .64 1.39 1.39 0 0 1-1.09.44Zm4.99-5.96a7.45 7.45 0 0 1 2 .23 1.29 1.29 0 0 1 1 1.54 4.94 4.94 0 0 1-.27 1.15 1.22 1.22 0 0 1-.93.82 7 7 0 0 1-3.5 0 1.21 1.21 0 0 1-.77-.61 4 4 0 0 1-.48-1.38 1.26 1.26 0 0 1 1-1.49 7.27 7.27 0 0 1 1.95-.26Zm-10.06 0a8 8 0 0 1 2 .21 1.28 1.28 0 0 1 1 1.51 4.29 4.29 0 0 1-.46 1.33 1.22 1.22 0 0 1-.78.64 6.92 6.92 0 0 1-3.64 0 1.14 1.14 0 0 1-.75-.67 4.32 4.32 0 0 1-.35-1.5 1.26 1.26 0 0 1 .89-1.25 6.86 6.86 0 0 1 2.09-.27Z"/>
  <path d="M19.78 9.69a7.19 7.19 0 0 1 1.79.22.45.45 0 0 1 .39.56 4.52 4.52 0 0 1-.2.9.52.52 0 0 1-.45.39 7.37 7.37 0 0 1-2.77 0 .69.69 0 0 1-.55-.45 4.88 4.88 0 0 1-.26-.82.45.45 0 0 1 .39-.61 7.16 7.16 0 0 1 1.66-.19Z" fill="#5c63a5"/>
  <path d="M9.62 11.89a7.51 7.51 0 0 1-1.37-.12.52.52 0 0 1-.45-.39 4.09 4.09 0 0 1-.22-1 .42.42 0 0 1 .35-.48 7.29 7.29 0 0 1 2.46-.2 5.82 5.82 0 0 1 1 .14c.36.09.48.27.41.63 0 .15-.09.3-.12.45a1 1 0 0 1-1.07.88 9.2 9.2 0 0 1-.99.09Z" fill="#424b8b"/>
</svg>
