<svg xmlns="http://www.w3.org/2000/svg" width="23.94" height="23.92" viewBox="0 0 23.94 23.92">
  <path d="M20.35 11.26c.25 0 .34.2.33.45a8.67 8.67 0 0 1-1.49 4.59l-.16.23c.23.06.29.23.33.42.08.38.17.76.24 1.14 0 .16.1.2.26.2a12.33 12.33 0 0 1 1.61 0 2.81 2.81 0 0 1 2.39 2.3s0 .08 0 .09v.8a1.21 1.21 0 0 0-.11.37 2.79 2.79 0 0 1-2.09 2 1.5 1.5 0 0 1-.42 0H9.98a2.76 2.76 0 0 1-2.27-1c-.09-.11-.17-.1-.29-.07-1.3.34-2.62.64-3.92 1a2.82 2.82 0 0 1-3.12-1.32 2.83 2.83 0 0 1 1.24-4 9.76 9.76 0 0 1 1.52-.42l3.14-.82c.05-.09.15-.1.24-.12 1.56-.42 3.12-.82 4.68-1.22a2.86 2.86 0 0 1 3.58 2.06.25.25 0 0 0 .28.22h.49a.23.23 0 0 0 .26-.23c0-.32.12-.64.17-1a1.18 1.18 0 0 1 1-1.06 1.09 1.09 0 0 1 .51.05l.63.18a.28.28 0 0 0 .36-.13 8 8 0 0 0 1.44-3.72c0-.24 0-.47.05-.7a.35.35 0 0 1 .38-.29ZM12.06 0c0 .09.14 0 .21.06a1 1 0 0 1 .65 1 2.33 2.33 0 0 0-.05.79A1.46 1.46 0 0 0 14 3.03a8.81 8.81 0 0 1 3.31 1.54c.11.09.17 0 .25 0a4.74 4.74 0 0 1 1.19-.74.54.54 0 0 1 .73.2 3.84 3.84 0 0 1 .58 2.58 1.66 1.66 0 0 1-.22.66.37.37 0 0 0 0 .39 8.17 8.17 0 0 1 .77 2.36c0 .27 0 .37-.27.49a.34.34 0 0 1-.46-.28c0-.17-.07-.34-.11-.5a8 8 0 0 0-.43-1.36c-.06-.16-.13-.19-.27-.07a4.36 4.36 0 0 1-1 .64.71.71 0 0 1-1.09-.37 4.18 4.18 0 0 1-.52-1.92 2.52 2.52 0 0 1 .29-1.19c.14-.24.13-.25-.1-.41a8 8 0 0 0-2.5-1.17 4.42 4.42 0 0 1-.78-.25 2.17 2.17 0 0 1-1.08-1.11 2.23 2.23 0 0 1-.16-1.35c0-.12.05-.26-.08-.34s-.24 0-.35.06a6.12 6.12 0 0 0-3 4.63 6 6 0 0 0 .76 3.79 1.11 1.11 0 0 1-.3 1.58 1.11 1.11 0 0 1-1.27 0 6.92 6.92 0 0 1-2-2.14c-.1-.17-.19-.34-.28-.51a.32.32 0 0 0-.3-.23.34.34 0 0 0-.31.24 7.82 7.82 0 0 0-.5 1.48 7.84 7.84 0 0 0 .57 5.09 8.31 8.31 0 0 0 .72 1.22c.16.24.13.39-.06.54s-.41.12-.59-.15a8.49 8.49 0 0 1-.82-8.53 1 1 0 0 1 .95-.67 1 1 0 0 1 1 .63 6.58 6.58 0 0 0 1.89 2.33c.18.13.35.22.55.06s.17-.3 0-.56a6.93 6.93 0 0 1 .75-7.93A5.92 5.92 0 0 1 11.71.02Z"/>
  <path d="M5.74 16.59c.17-.22.08-.4 0-.61a7.77 7.77 0 0 1-.75-7.73c.07-.16.16-.3.36-.31s.31.14.4.31a6.86 6.86 0 0 0 2.17 2.58 1.06 1.06 0 0 0 1.69-.68 1.18 1.18 0 0 0-.2-.82 5.89 5.89 0 0 1-.8-3.08A6.18 6.18 0 0 1 11.79.81c.12-.07.24-.13.37 0s.12.22.09.36a2.37 2.37 0 0 0 .13 1.39 21.78 21.78 0 0 0-.46 2.78 17.1 17.1 0 0 0 0 2.58 15.62 15.62 0 0 0 .34 2.47 18 18 0 0 0 .57 1.9.63.63 0 0 1-.8.39 1.34 1.34 0 0 1-.36-.22c-.17-.12-.31-.12-.41 0a.32.32 0 0 0 0 .46 1.31 1.31 0 0 0 1.53.22c.08 0 .16-.13.27-.12.23.36.4.76.63 1.12a12.49 12.49 0 0 0 2.28 2.79.31.31 0 0 1 .1.13c-.07.38-.13.77-.19 1.15 0 .08 0 .12-.14.12h-.1a1.93 1.93 0 0 1-.76 0c-.22-.09-.16-.43-.26-.65a2.83 2.83 0 0 0-3.24-1.64l-5.07 1.31c-.07-.2-.25-.31-.38-.46Z" fill="#fad383"/>
  <path d="M7.07 3.35a3.78 3.78 0 0 1-.39 1.61.52.52 0 0 1-.66.29 3.53 3.53 0 0 1-1.52-1A2.32 2.32 0 0 1 4.09 2a3.44 3.44 0 0 1 .27-.76.52.52 0 0 1 .66-.29 3.39 3.39 0 0 1 1.53 1 2 2 0 0 1 .52 1.4Z"/>
  <path d="M16.04 17.02a6.5 6.5 0 0 1-1.21-1.19 12.66 12.66 0 0 1-1.7-2.58.58.58 0 0 1-.09-.26c0-.07 0-.11.07-.16s.13-.22 0-.34a.32.32 0 0 0-.33-.17.11.11 0 0 1-.11 0 12.09 12.09 0 0 1-.74-2.58 15 15 0 0 1-.24-3.35 17.12 17.12 0 0 1 .22-2.26 14.27 14.27 0 0 1 .28-1.45c0-.06 0-.13.09-.14a2.29 2.29 0 0 0 1.64 1.27 7.91 7.91 0 0 1 2.84 1.31c.12.09.15.16.06.29a2.66 2.66 0 0 0-.26 2 4.67 4.67 0 0 0 .5 1.3.57.57 0 0 0 .79.27 4.67 4.67 0 0 0 1.36-.9 7.79 7.79 0 0 1 .61 1.84c0 .08 0 .16.05.23 0 .3.12.37.42.39a3.54 3.54 0 0 1 0 .73c-.29 0-.36.15-.37.46a8 8 0 0 1-1.52 4.41.3.3 0 0 1-.4.13c-.2-.08-.4-.12-.6-.18a1 1 0 0 0-1.43.85Z" fill="#fee6b1"/>
  <path d="M19.35 20.06c0 .16.12.3.32.33a.35.35 0 0 0 .38-.43c-.05-.28-.12-.55-.18-.82 0-.1 0-.16.12-.16h1.49a2.13 2.13 0 0 1 1.75 2 2.16 2.16 0 0 1-1.67 2.14.55.55 0 0 1-.18 0h-5.45a2.61 2.61 0 0 1-.71-1 5.81 5.81 0 0 1-.56-3c0-.12 0-.23.15-.25h.87c-.06.34-.13.67-.17 1a.34.34 0 0 0 .43.39.43.43 0 0 0 .28-.32.43.43 0 0 1 .31-.08h2.51a.43.43 0 0 1 .31.2ZM2.9 18.89l3.58-.93 3-.77a.17.17 0 0 1 .17 0 2.72 2.72 0 0 0-.41 1.1c0 .1-.08.11-.15.13a2.78 2.78 0 0 0-2 2.46 2.59 2.59 0 0 0 .14 1.1c0 .11 0 .15-.09.18l-2.31.58c-.15.06-.24-.05-.34-.14a5.28 5.28 0 0 1-1.54-2.83 3.43 3.43 0 0 1-.09-.44.59.59 0 0 1 .04-.44Z" fill="#e38d66"/>
  <path d="M11.99 21.1a2.1 2.1 0 0 1-2.09 2.1 2.12 2.12 0 0 1-2.13-2.12 2.12 2.12 0 0 1 2.11-2.09 2.1 2.1 0 0 1 2.11 2.11Z" fill="#d77140"/>
  <path d="M14.82 18.99a.23.23 0 0 0-.09.18 6.36 6.36 0 0 0 .39 2.66 6.08 6.08 0 0 0 .82 1.36h-4.17a2.83 2.83 0 0 0 .92-2.09 2.79 2.79 0 0 0-.93-2.11Zm-11.92-.1a5.57 5.57 0 0 0 1.08 3.07 5.83 5.83 0 0 0 .63.68.29.29 0 0 0 .21.09 15.86 15.86 0 0 1-1.8.47 2.06 2.06 0 0 1-2-1.05 2.12 2.12 0 0 1 .15-2.37 1.79 1.79 0 0 1 1.08-.72c.2-.04.42-.11.65-.17Zm16.45 1.17h-3.13l.39-2.25c0-.24.08-.49.13-.73s.22-.41.52-.34l1.32.38c.08 0 .14 0 .16.14.21.92.41 1.92.61 2.8Z" fill="#de7e52"/>
  <path d="M11.99 18.29h-1.87c-.16 0-.19 0-.15-.2a2.13 2.13 0 0 1 2-1.49 2.12 2.12 0 0 1 2 1.5c0 .16 0 .19-.16.19-.57-.01-1.2 0-1.82 0Z" fill="#d77140"/>
  <path d="M19.41 6.18a2.07 2.07 0 0 1-.75 1.51 2.73 2.73 0 0 1-.83.55c-.07 0-.14.09-.19 0a2.82 2.82 0 0 1-.4-1.83 2.37 2.37 0 0 1 1.36-1.68c.37-.19.37-.19.52.18a3.21 3.21 0 0 1 .29 1.27Z" fill="#fad383"/>
  <path d="M9.44 12.92a1.09 1.09 0 0 1 .38.69 1.16 1.16 0 0 1-1 1.11 1.6 1.6 0 0 1-1.44-.32.93.93 0 0 1-.1-1.32 1.42 1.42 0 0 1 1.38-.46h.16a.51.51 0 0 0 .62.3Z" fill="#fe95a2"/>
  <path d="M12.72 12.3a.37.37 0 0 1 .49.13c.15.24 0 .4-.17.56a1.39 1.39 0 0 1-1.88-.09.37.37 0 0 1-.09-.45.34.34 0 0 1 .56-.07.68.68 0 0 0 1.09-.08Z" fill="#010000"/>
  <path d="M9.44 12.92c-.33.12-.49 0-.57-.3v-.53a.35.35 0 0 1 .34-.37.34.34 0 0 1 .36.35c-.01.29.11.6-.13.85Z" fill="#010100"/>
  <path d="M6.35 3.33a2.63 2.63 0 0 1-.21 1.08c0 .05 0 .12-.12.09a2 2 0 0 1-1.34-1.48 2.71 2.71 0 0 1 .21-1.25c0-.05 0-.1.11-.07a2.11 2.11 0 0 1 1.35 1.28.76.76 0 0 1 0 .16 1.67 1.67 0 0 1 0 .19Z" fill="#fad383"/>
  <path d="M15.42 12.63a1.88 1.88 0 0 1 1.1.08 1.1 1.1 0 0 1 .73 1 1 1 0 0 1-.65.93 1.56 1.56 0 0 1-1.67-.15.91.91 0 0 1-.05-1.5.66.66 0 0 0 .54-.36Z" fill="#fe95a2"/>
  <path d="M15.42 12.63c-.1.32-.22.38-.54.32a1.32 1.32 0 0 1-.12-1.06.34.34 0 0 1 .38-.16.32.32 0 0 1 .26.32 5.52 5.52 0 0 1 .02.58Z" fill="#010101"/>
</svg>
