<svg xmlns="http://www.w3.org/2000/svg" width="23.95" height="22.55" viewBox="0 0 23.95 22.55">
  <path d="M23.95 5.76c-.08 0-.06.09-.07.14a2.3 2.3 0 0 1-.61 1l-1.21 1.2a.84.84 0 0 0-.26.87 4.4 4.4 0 0 1-.17 2.61.21.21 0 0 0 0 .25 2.09 2.09 0 0 1 .23.29c.18.29.16.42-.11.63a.3.3 0 0 1-.42-.08c-2.18-2.38-4.54-4.58-6.79-6.89-.05 0-.11-.09-.15-.14s-.24-.16-.4-.05a3.38 3.38 0 0 1-1.35.58 3.62 3.62 0 0 1-2.72-.54c-.28-.17-.28-.17-.51.06L7.64 7.46a2.1 2.1 0 0 1-2.28.52 2.1 2.1 0 0 1-1.49-1.83 2.08 2.08 0 0 1 .62-1.83l2.26-2.27c.22-.21.22-.23 0-.44A6.25 6.25 0 0 0 6.1 1a1.32 1.32 0 0 0-1.71.12L1.16 4.44a1.3 1.3 0 0 0-.09 1.76c.43.53.93 1 1.4 1.45a1.62 1.62 0 0 1 .49 1 .79.79 0 0 1-.09.5c-.09.17-.22.21-.43.15a.4.4 0 0 1-.25-.45.76.76 0 0 0-.25-.65c-.41-.42-.83-.83-1.24-1.24a2.11 2.11 0 0 1 0-3.14L3.79.73a2.11 2.11 0 0 1 3.15 0l.63.63a.17.17 0 0 0 .25.05 3.9 3.9 0 0 1 2.9-.32c1.39.37 2.8.72 4.2 1.08a.88.88 0 0 0 .91-.25c.39-.41.8-.81 1.2-1.21a2.11 2.11 0 0 1 3.12 0l2.57 2.56a3.72 3.72 0 0 1 1.23 1.76Z"/>
  <path d="M2.43 9.28c.33 0 .44-.12.46-.44a1.44 1.44 0 0 0-.41-1.11L1.16 6.44a1.4 1.4 0 0 1 0-2.14c1-1 2.08-2.07 3.11-3.11a1.41 1.41 0 0 1 2.11 0c.2.19.38.39.58.57s.09.14 0 .22c-.79.78-1.57 1.56-2.35 2.35a2.17 2.17 0 0 0 .4 3.47 2.15 2.15 0 0 0 2.57-.3q1-.94 1.92-1.92c.12-.12.2-.15.36 0a3.53 3.53 0 0 0 4.2 0c.1-.07.16-.11.27 0 2.24 2.26 4.49 4.5 6.74 6.75a1.18 1.18 0 0 1 .22.28.42.42 0 0 0 .48.24 2 2 0 0 1 0 1 .85.85 0 0 0-.56.37 1.35 1.35 0 0 1-2 0l-3-3-.18-.18c-.18-.16-.32-.17-.45 0s-.13.28 0 .45c.73.74 1.46 1.47 2.2 2.2.32.32.65.64 1 1a1.36 1.36 0 0 1 0 2 1.36 1.36 0 0 1-1.92-.09l-2.79-2.96-.37-.37c-.17-.15-.29-.16-.43 0a.28.28 0 0 0 0 .43c.25.26.51.51.76.76l2.38 2.38a1.36 1.36 0 0 1 .44 1.27 1.31 1.31 0 0 1-1 1.06 1.31 1.31 0 0 1-1.36-.37c-.62-.6-1.23-1.23-1.85-1.84-.41-.42-.83-.83-1.24-1.24a.85.85 0 0 0-.17-.16.23.23 0 0 0-.32 0 .26.26 0 0 0-.09.33 1.27 1.27 0 0 0 .21.25l3.13 3.1a1.35 1.35 0 0 1 0 2 1.36 1.36 0 0 1-1.68.14 2.6 2.6 0 0 1-.36-.3L3.94 12.9a3.89 3.89 0 0 1-1.17-2.14.66.66 0 0 0-.35-.43 5.65 5.65 0 0 1 .01-1.05Z" fill="#fecdb7"/>
  <path d="M2.39 10.29a.38.38 0 0 1 .39.35 4.13 4.13 0 0 0 1.24 2.25c2.74 2.71 5.46 5.45 8.19 8.17a1.29 1.29 0 0 0 1.86.12 1.29 1.29 0 0 0 0-1.91l-3.09-3.09c0-.06-.11-.11-.15-.17a.33.33 0 0 1 0-.45.34.34 0 0 1 .45 0l.17.16 3.11 3.11a1.29 1.29 0 0 0 1.46.28 1.32 1.32 0 0 0 .77-1.24 1.36 1.36 0 0 0-.44-.92l-3.07-3.08a.65.65 0 0 1-.12-.23.32.32 0 0 1 .06-.44.32.32 0 0 1 .43 0 1.25 1.25 0 0 1 .17.16l3.09 3.09a1.29 1.29 0 0 0 2.06-.21 1.3 1.3 0 0 0-.22-1.63l-3.09-3.09-.16-.17a.33.33 0 0 1 0-.44.32.32 0 0 1 .43-.05 1.25 1.25 0 0 1 .17.16l3 3a1.3 1.3 0 0 0 2.12-.15.4.4 0 0 1 .47-.16c.24.22.26.35.06.62a2 2 0 0 1-1.83.85c-.14 0-.16 0-.15.15a2 2 0 0 1-2.2 2.18c-.15 0-.15 0-.14.15a2 2 0 0 1-2.21 2.19c-.21 0-.12.1-.12.18a2 2 0 0 1-2 2.17 1.81 1.81 0 0 1-1-.3.21.21 0 0 0-.32 0 2 2 0 0 1-3.35-.82 2.07 2.07 0 0 1-.07-.74c0-.16 0-.19-.18-.18a2 2 0 0 1-2.14-1.64 2 2 0 0 1 0-.54c0-.13 0-.17-.16-.16a1.9 1.9 0 0 1-1.21-.27 1.94 1.94 0 0 1-1-1.88c0-.15 0-.19-.18-.19a2 2 0 0 1-2-1.17 1.94 1.94 0 0 1 .47-2.28c.23-.23.34-.42.18-.73a2.64 2.64 0 0 1-.14-.57c.04-.23.16-.33.39-.44Z"/>
  <path d="M21.01 11.22c-.08-.09-.12-.17-.18-.23q-3.1-3.09-6.2-6.2c-.31-.3-.42-.3-.74 0a2.88 2.88 0 0 1-3.82 0c-.34-.29-.44-.29-.76 0-.71.71-1.42 1.43-2.13 2.13a1.43 1.43 0 0 1-1.57.35A1.4 1.4 0 0 1 4.66 6a1.34 1.34 0 0 1 .39-1.11c.81-.82 1.6-1.65 2.44-2.43a3.17 3.17 0 0 1 3.09-.71l4.18 1.07a1.5 1.5 0 0 0 1.55-.43l1.23-1.22a1.4 1.4 0 0 1 2.09 0l3.16 3.16a1.41 1.41 0 0 1 0 2.08c-.41.41-.81.82-1.23 1.22a1.54 1.54 0 0 0-.44 1.56 3.59 3.59 0 0 1-.11 2.03Z" fill="#feb696"/>
  <path d="M8.65 13.29a1.29 1.29 0 0 1 1-.14 1 1 0 0 1 .66 1.22 1.66 1.66 0 0 1-1.48 1.25 1 1 0 0 1-1-.83 1.4 1.4 0 0 1 .33-1.06.51.51 0 0 0 .49-.44Zm5.07-5.14a1.38 1.38 0 0 1 1.15-.32 1 1 0 0 1 .69 1.27 1.59 1.59 0 0 1-1.53 1.2 1 1 0 0 1-.92-1.14 1.5 1.5 0 0 1 .18-.5.07.07 0 0 1 .05 0c.29-.02.34-.28.38-.51Z" fill="#ee95a1"/>
  <path d="M13.72 8.15c.08.35-.06.51-.43.51l-.13-.02c-.14-.12-.3-.18-.46 0s-.11.31 0 .47a.34.34 0 0 1-.06.5.37.37 0 0 1-.5-.08 1 1 0 0 1 .09-1.43 1 1 0 0 1 1.49.05Zm-5.07 5.14c0 .38-.16.52-.51.44A1 1 0 0 1 8 12.29a1 1 0 0 1 1.41-.13.36.36 0 0 1 0 .61.32.32 0 0 1-.39 0c-.16-.13-.33-.19-.49 0s-.06.35.06.5Zm3.6-2.28a1.3 1.3 0 0 1-1.27 1.25c-.25 0-.41-.13-.42-.34s.12-.34.38-.37a.58.58 0 0 0 .6-.6c0-.26.15-.4.37-.38s.35.17.34.44Z"/>
  <path d="M4.51 14.33a1.69 1.69 0 0 1-1.07.51 1.24 1.24 0 0 1-1.21-.75 1.25 1.25 0 0 1 .21-1.42c.24-.28.24-.28.46 0a10.92 10.92 0 0 0 1.05 1.1Zm2.76 2.82 1.87 1.87a1.51 1.51 0 0 1-1.22.49 1.33 1.33 0 0 1-.78-.39 1.33 1.33 0 0 1-.36-1 1.68 1.68 0 0 1 .49-.97ZM4.94 14.8l1.87 1.87c-.69.6-1.37.68-1.92.19a1.29 1.29 0 0 1-.45-1 1.65 1.65 0 0 1 .5-1.06Zm4.68 4.66 1.74 1.75c.1.09.1.14 0 .24a1.31 1.31 0 0 1-1.83.06 1.3 1.3 0 0 1-.1-1.81Z" fill="#feb696"/>
</svg>
