<svg xmlns="http://www.w3.org/2000/svg" width="22.74" height="23.95" viewBox="0 0 22.74 23.95">
  <path d="M18.29 15.29a.41.41 0 0 1-.1.54L14.03 20a3 3 0 0 1-1.45.81 2.56 2.56 0 0 0-1.3.73c-.63.65-1.27 1.28-1.91 1.92a1.4 1.4 0 0 1-2.13 0l-3.63-3.61a1.36 1.36 0 0 1 0-2.13 1.49 1.49 0 0 0 .55-1.33v-2.46a1.94 1.94 0 0 0-.61-1.46l-3-3a1.9 1.9 0 0 1 0-2.75 1.91 1.91 0 0 1 2.39-.19l.26.18V4.38a.38.38 0 0 1 .34-.43.34.34 0 0 1 .41.27 1 1 0 0 1 0 .3v2.81a2.09 2.09 0 0 1 0 .25.47.47 0 0 1-.31.38.39.39 0 0 1-.35-.11c-.19-.17-.36-.37-.56-.54a1.15 1.15 0 0 0-1.17-.27 1.1 1.1 0 0 0-.42 1.84c.89.91 1.79 1.8 2.69 2.7a5.35 5.35 0 0 1 .51.55 2.58 2.58 0 0 1 .62 1.69v2.15a.65.65 0 0 0 0 .24c.08 0 .11-.06.15-.1.34-.35.7-.68 1-1.06a1.87 1.87 0 0 0 .46-1.28V9.56a1.93 1.93 0 0 1 1.1-1.78 2 2 0 0 1 2.76 1.28l.06.24a.25.25 0 0 0 .17-.12l1.51-1.5a.62.62 0 0 0 .2-.48V3.58a.7.7 0 0 0-.42-.72.72.72 0 0 0-1 .57 2.72 2.72 0 0 0 0 .28v3a1 1 0 0 1 0 .34.4.4 0 0 1-.42.3.4.4 0 0 1-.37-.36 1.51 1.51 0 0 1 0-.3V2.55a1.8 1.8 0 0 0 0-.4.7.7 0 0 0-.84-.53.69.69 0 0 0-.59.7v3.69a1.35 1.35 0 0 1 0 .35.47.47 0 0 1-.46.42.43.43 0 0 1-.35-.48V1.82a1.88 1.88 0 0 0 0-.47.75.75 0 0 0-.68-.58.74.74 0 0 0-.7.46 1.22 1.22 0 0 0-.08.5V6.1a1.82 1.82 0 0 1 0 .33.4.4 0 0 1-.37.34.4.4 0 0 1-.4-.26.86.86 0 0 1-.05-.39V2.89a.7.7 0 0 0-.75-.76.69.69 0 0 0-.61.37c0 .09-.08.2-.14.29a.3.3 0 0 1-.42.17c-.26-.12-.32-.23-.26-.5a1.52 1.52 0 0 1 2-1l.19.09v-.1a1.49 1.49 0 0 1 1-1.37s.1 0 .11-.07h.53a1.58 1.58 0 0 1 1.18 1.07 1.54 1.54 0 0 1 2.39 1.15 1.59 1.59 0 0 1 1-.2 1.5 1.5 0 0 1 1.27 1.49v3.24c1.23-.73 2.13-.48 2.58.72a1.58 1.58 0 0 1 1.11-.47 1.43 1.43 0 0 1 .89.3 1.54 1.54 0 0 1 .45 1.92 1.53 1.53 0 0 1 .86 2.48s.09 0 .13.07a1.49 1.49 0 0 1 .61 2.44 3.31 3.31 0 0 1-.26.27.4.4 0 0 1-.57.09.31.31 0 0 1 0-.51c.11-.15.25-.25.36-.4a.74.74 0 0 0-.45-1.2.81.81 0 0 0-.74.28c-.73.74-1.47 1.48-2.21 2.21a1.62 1.62 0 0 1-.19.18.45.45 0 0 1-.52 0 .43.43 0 0 1 0-.54 1.54 1.54 0 0 1 .17-.19l3-3a.76.76 0 0 0 .23-.91.74.74 0 0 0-1-.35 1.54 1.54 0 0 0-.34.28c-.84.85-1.69 1.69-2.53 2.53a1.62 1.62 0 0 1-.19.18.39.39 0 0 1-.53 0 .44.44 0 0 1 0-.56 1.53 1.53 0 0 1 .18-.18l3.17-3.18a.84.84 0 0 0 .31-.63.73.73 0 0 0-1.06-.66 1.57 1.57 0 0 0-.4.32l-3.06 3.06-.2.19a.35.35 0 0 1-.51 0 .41.41 0 0 1-.11-.5 1 1 0 0 1 .22-.27l2.17-2.17.16-.17a.71.71 0 0 0 0-1 .71.71 0 0 0-1 0l-1.57 1.34-1.75 1.75-.18.17a.43.43 0 0 1-.47.07.41.41 0 0 1-.25-.38v-.8a1.09 1.09 0 0 0-.42-.87 1.08 1.08 0 0 0-1.19-.14 1.09 1.09 0 0 0-.65 1v4.32a2.58 2.58 0 0 1-.77 1.86l-2.44 2.44a.69.69 0 0 0 0 1.16l3.56 3.56a.66.66 0 0 0 1.1 0l1.9-1.91a3.14 3.14 0 0 1 1.49-.87 3 3 0 0 0 1.45-.85l3.85-3.85a2.18 2.18 0 0 1 .22-.21c.23-.13.39-.1.55.11Z"/>
  <path d="M18.29 15.29c-.26-.18-.38-.17-.61.06l-4 4a2.81 2.81 0 0 1-1.36.77 2.92 2.92 0 0 0-1.41.79l-2 2a.71.71 0 0 1-1.15 0l-3.62-3.62a.72.72 0 0 1 0-1.16c.8-.8 1.6-1.61 2.41-2.41a2.61 2.61 0 0 0 .83-2V9.54a1.19 1.19 0 0 1 1.6-1.15 1.23 1.23 0 0 1 .79 1.09v.77a.36.36 0 0 0 .21.4.39.39 0 0 0 .46-.13l3.22-3.23a.87.87 0 0 1 .71-.29.79.79 0 0 1 .68.53.79.79 0 0 1-.21.86l-2 2-.43.43c-.19.2-.21.41-.05.56s.35.14.55-.06l3.32-3.33a.85.85 0 0 1 .8-.27.8.8 0 0 1 .4 1.35c-.39.4-.78.78-1.18 1.17l-2.14 2.15-.14.14a.34.34 0 0 0 0 .48.34.34 0 0 0 .47 0l.15-.15 2.69-2.69a.81.81 0 0 1 .85-.24.76.76 0 0 1 .55.64.8.8 0 0 1-.28.75l-3 3-.16.16a.37.37 0 0 0 0 .53.36.36 0 0 0 .52 0l1.11-1.1 1.22-1.23a.81.81 0 0 1 1.22-.07.82.82 0 0 1-.09 1.22l-.14.15c-.21.21-.22.31-.07.57a3 3 0 0 0-.72.74Z" fill="#fecdb7"/>
  <path d="M3.53 2.96a.38.38 0 0 0 .42-.31.8.8 0 0 1 .93-.59.8.8 0 0 1 .65.85v3.34a.48.48 0 0 0 .09.35.35.35 0 0 0 .34.11.33.33 0 0 0 .26-.27 1.15 1.15 0 0 0 0-.26V1.57A.81.81 0 0 1 7.28.74a.79.79 0 0 1 .54.65v4.77a2.09 2.09 0 0 0 0 .25.34.34 0 0 0 .33.31.34.34 0 0 0 .35-.29 1.06 1.06 0 0 0 0-.25V2.37a.79.79 0 0 1 .66-.84.8.8 0 0 1 .94.84v4.39c0 .38.11.55.36.54s.34-.16.34-.53V3.52a.81.81 0 0 1 .69-.81.8.8 0 0 1 .87.56 1 1 0 0 1 0 .3v3.77a.31.31 0 0 1-.09.25c-.62.61-1.23 1.23-1.85 1.85h-.07a2 2 0 0 0-.54-1.24 1.86 1.86 0 0 0-2-.47A1.91 1.91 0 0 0 6.6 9.49v4.23a2 2 0 0 1-.61 1.49l-1.14 1.14a.36.36 0 0 1 0-.24v-2.25a2.59 2.59 0 0 0-.81-2l-3-3a1.19 1.19 0 0 1-.26-1.42 1.2 1.2 0 0 1 1.9-.32l.55.55a.34.34 0 0 0 .41.12.37.37 0 0 0 .24-.39V4.27c0-.27-.1-.37-.37-.43a4.78 4.78 0 0 0 .02-.88Z" fill="#feb696"/>
  <path d="M20.5 3.46a.36.36 0 0 1-.14.26l-1.75 1.75a.34.34 0 0 1-.53 0c-.15-.15-.14-.34 0-.53l1.75-1.75a.38.38 0 0 1 .42-.12.34.34 0 0 1 .25.39ZM16 3.29v1.09c0 .36-.12.39-.33.4a.36.36 0 0 1-.37-.39V2.15a.34.34 0 0 1 .35-.38.34.34 0 0 1 .35.38c.01.38 0 .76 0 1.14Z"/>
  <path d="M21.29 7.33h1c.26 0 .4.13.4.34s-.14.36-.4.36h-2.12a.36.36 0 0 1-.4-.36c0-.21.16-.34.42-.34Z" fill="#010101"/>
  <path d="M11.29 16.74a1.13 1.13 0 0 1-1.13-1 1.31 1.31 0 0 1 .78-1.38.82.82 0 0 1 .71.11 2.47 2.47 0 0 1 .72.72.81.81 0 0 1-.1 1.1 1.4 1.4 0 0 1-.98.45Z"/>
  <path d="M9.78 13.69a3.55 3.55 0 0 1 .06.57.74.74 0 0 1-.78.61 1.32 1.32 0 0 1-1.11-1.11.76.76 0 0 1 1.1-.73 1.45 1.45 0 0 1 .34.2.78.78 0 0 0 .39.46Zm3.88 3.76a3.17 3.17 0 0 1 .17.38.76.76 0 0 1-.9 1.06 1.29 1.29 0 0 1-.95-1.11c0-.54.34-.85 1-.74a.28.28 0 0 0 .22 0c.09.28.22.38.46.41Z" fill="#ee95a1"/>
  <path d="M13.66 17.45c-.33.06-.48-.07-.47-.43a1.61 1.61 0 0 1 .43-.47.31.31 0 0 1 .46 0 .32.32 0 0 1 0 .46 1.56 1.56 0 0 1-.42.44Zm-3.88-3.76c-.33-.06-.39-.14-.39-.46a1.68 1.68 0 0 1 .44-.48.31.31 0 0 1 .46 0 .31.31 0 0 1 0 .44 1.49 1.49 0 0 1-.51.5Z" fill="#010101"/>
  <path d="M11.29 16.04a.5.5 0 0 1-.48-.41.68.68 0 0 1 .3-.57.18.18 0 0 1 .16 0 2.84 2.84 0 0 1 .48.5.17.17 0 0 1 0 .25.77.77 0 0 1-.46.23Z" fill="#434b54"/>
</svg>
