<svg xmlns="http://www.w3.org/2000/svg" width="23.94" height="19.31" viewBox="0 0 23.94 19.31">
  <path d="M21.99 2.17c.28-.13.38-.11.58.13a6 6 0 0 1 1.33 3.11s0 .09 0 .11v1.4a4.09 4.09 0 0 0-.15.76 11 11 0 0 1-2.25 4.51 23.5 23.5 0 0 1-5.21 4.69c-1.19.82-2.44 1.55-3.71 2.25a1.24 1.24 0 0 1-1.26 0 38.13 38.13 0 0 1-4.63-2.89c-.25-.18-.28-.28-.18-.57s.31-.25.55-.09.57.4.86.6a36.35 36.35 0 0 0 3.25 2l.45.26a.56.56 0 0 0 .62 0l.28-.16c1.07-.59 2.12-1.21 3.14-1.9a30 30 0 0 0 3.09-2.4 16.51 16.51 0 0 0 3-3.4 8.66 8.66 0 0 0 1.37-3.47 5.38 5.38 0 0 0-1.11-4.32.8.8 0 0 1-.13-.19.33.33 0 0 1 .11-.43Z"/>
  <path d="M21.99 2.17a.39.39 0 0 0 0 .53 5.65 5.65 0 0 1 1 5.46 10.84 10.84 0 0 1-2.25 4 24.69 24.69 0 0 1-5.66 4.78c-.8.51-1.61 1-2.45 1.44-.11.06-.19 0-.28 0-1.09-.62-2.14-1.28-3.16-2a25.45 25.45 0 0 1-3.37-2.84 14.47 14.47 0 0 1-2.68-3.63 8.17 8.17 0 0 1-.91-3.36 5.57 5.57 0 0 1 1.22-3.89A5.5 5.5 0 0 1 6.24.75a6.09 6.09 0 0 1 2.43.36 8.21 8.21 0 0 1 3 1.88c.24.22.39.23.62 0a8 8 0 0 1 2.93-1.84 6.29 6.29 0 0 1 5.55.5.87.87 0 0 0 .71.16 3.73 3.73 0 0 1 .51.36Z" fill="#fe4e54"/>
  <path d="M21.47 1.72a.41.41 0 0 1-.53 0 6.34 6.34 0 0 0-6.57-.26 7.89 7.89 0 0 0-2 1.45c-.3.28-.42.27-.71 0A7.88 7.88 0 0 0 7.4.75 5.25 5.25 0 0 0 6.21.68a6.87 6.87 0 0 0-3.35 1.24 5.19 5.19 0 0 0-2 3.59 6.92 6.92 0 0 0 .58 3.48 12.31 12.31 0 0 0 2.17 3.45 19.1 19.1 0 0 0 2.2 2.11 1 1 0 0 1 .25.28c.07.15.12.29-.05.41a.38.38 0 0 1-.55 0 18.08 18.08 0 0 1-4.18-4.71A8.69 8.69 0 0 1-.01 5.99 6 6 0 0 1 4.15.36a7.4 7.4 0 0 1 6.76 1.09 6.19 6.19 0 0 1 .9.7c.12.11.18.1.3 0a8.25 8.25 0 0 1 3.67-2 6.81 6.81 0 0 1 5.5.91c.33.25.33.38.19.66Z"/>
  <path d="M6.02 15.25a.43.43 0 0 0-.16-.57 19.07 19.07 0 0 1-3-3.07 10.3 10.3 0 0 1-2-4.24A5.46 5.46 0 0 1 5.46.79a6.53 6.53 0 0 1 .76-.08 5.73 5.73 0 0 0-2.63 1.77 5.28 5.28 0 0 0-1.25 2.83A7.52 7.52 0 0 0 3.2 9.8a13.15 13.15 0 0 0 1.87 2.74 18.38 18.38 0 0 0 1.75 1.78 29.76 29.76 0 0 0 2.57 2 35.53 35.53 0 0 0 3 1.92.34.34 0 0 0 .19.07l-.28.16a.59.59 0 0 1-.66 0 37.79 37.79 0 0 1-4.48-2.81c-.27-.19-.36-.19-.61 0a4.33 4.33 0 0 1-.53-.41Z" fill="#d93940"/>
  <path d="M11.88 10.57a1.77 1.77 0 0 1-1.21-.56.36.36 0 0 1 0-.52.35.35 0 0 1 .5 0 1.09 1.09 0 0 0 1.62 0 .36.36 0 0 1 .5 0 .36.36 0 0 1 0 .52 1.85 1.85 0 0 1-1.41.56Z"/>
  <path d="M7.97 9.44v.42a.34.34 0 0 1-.35.33.33.33 0 0 1-.34-.32 5.89 5.89 0 0 1 0-.84.33.33 0 0 1 .35-.33.34.34 0 0 1 .34.34v.4Zm8.7 0v.42a.35.35 0 0 1-.36.33.33.33 0 0 1-.33-.33 5.75 5.75 0 0 1 0-.83.35.35 0 0 1 .69 0v.42Z" fill="#020101"/>
</svg>
