<svg xmlns="http://www.w3.org/2000/svg" width="24" height="24" viewBox="0 0 24 24">
  <path d="M15.2 0h5.66a.83.83 0 0 1 .72.91v.64a.88.88 0 0 1-.49.86.37.37 0 0 0-.21.37v2.84a.53.53 0 0 0 .2.44c.72.6 1.42 1.22 2.13 1.82a2.46 2.46 0 0 1 .66.81 3.84 3.84 0 0 1 .13.54v.66a2.71 2.71 0 0 1-1.51 1.85 1.29 1.29 0 0 1-.67.18c-.18 0-.24.08-.24.25v1.76c0 .31-.08.4-.37.47s-.45-.17-.46-.51 0-.92 0-1.38 0-.92-.49-1.15L14.7 6.55l-1.1-.94a2.22 2.22 0 0 0-3-.08c-.72.57-1.4 1.19-2.1 1.79l-3.8 3.29c-.41.35-.8.72-1.24 1a.28.28 0 0 0-.11.22 1 1 0 0 0 0 .17v9.32a1.82 1.82 0 0 0 1 1.64c.24.15.29.12.29-.16v-5.79a2.58 2.58 0 0 1 .71-1.83 2.47 2.47 0 0 1 1.88-.8h1.7a2.57 2.57 0 0 1 2.37 1.71 2.78 2.78 0 0 1 .16 1v5.74c0 .37 0 .37.36.37h7.06a1.9 1.9 0 0 0 1.94-1.91v-5.58a.5.5 0 0 1 .43-.5c.3.06.4.18.41.5v5.69a2.73 2.73 0 0 1-1.81 2.49c-.2.06-.4 0-.6.09H4.87a2.2 2.2 0 0 1-1.22-.41 2.68 2.68 0 0 1-1.19-2.24v-9.07c0-.33 0-.33-.32-.36a1.14 1.14 0 0 1-.32-.07 2.68 2.68 0 0 1-1.68-1.62A2 2 0 0 1 .79 7.9c.85-.71 1.68-1.44 2.52-2.16.29-.25.41-.28.66-.15a.45.45 0 0 1 0 .71c-.38.33-.76.66-1.15 1s-1 .88-1.54 1.32a1.17 1.17 0 0 0-.19 1.63 2.85 2.85 0 0 0 .63.62 1.13 1.13 0 0 0 1.41 0c.44-.34.84-.72 1.26-1.08a3.36 3.36 0 0 0 .29-.24l2.18-1.88c.84-.72 1.67-1.45 2.51-2.16a9.49 9.49 0 0 1 1-.8 3.13 3.13 0 0 1 3.77.27c1.15 1 2.31 2 3.46 3s2.15 1.83 3.2 2.77a1.24 1.24 0 0 0 1.87-.05 2.69 2.69 0 0 0 .44-.51 1.17 1.17 0 0 0-.28-1.54l-3.14-2.69-3.06-2.61-1.81-1.56a4.32 4.32 0 0 0-4.9-.4 11.59 11.59 0 0 0-1.59 1.26c-1 .84-2 1.69-3 2.52a.42.42 0 0 1-.67 0 .37.37 0 0 1 .11-.52c.38-.37.79-.7 1.19-1.05.92-.79 1.84-1.58 2.77-2.36A4.59 4.59 0 0 1 11.39.11h1.12a4.5 4.5 0 0 1 1.82.5c.1.05.15 0 .2-.08A.75.75 0 0 1 15.2 0Z"/>
  <path d="M21.24 14.35a4.15 4.15 0 0 0 0 .93c-.3.09-.36.17-.36.48v5.51a1.94 1.94 0 0 1-1.45 2 2.22 2.22 0 0 1-.57.07h-7.28c-.17 0-.22 0-.22-.22v-6.05a2.48 2.48 0 0 0-2.1-2.51 10.45 10.45 0 0 0-2.5 0 2.39 2.39 0 0 0-1.43.77c-.12 0-.1-.11-.1-.17a17.24 17.24 0 0 1 .08-2.69 5 5 0 0 1 1.73-3c1-.83 1.91-1.65 2.87-2.47.36-.31.7-.62 1.06-.92a1.69 1.69 0 0 1 2.18 0c.8.67 1.58 1.36 2.37 2L18 10.21l1.81 1.56a3.86 3.86 0 0 0 .89.6.33.33 0 0 1 .16.13v1.43c-.03.28.08.39.38.42Z" fill="#ece9fd"/>
  <path d="M3.99 5.69a2.48 2.48 0 0 0 .71-.62.37.37 0 0 0 .59 0L9.11 1.8a4.36 4.36 0 0 1 5.76-.06l8 6.82a1.21 1.21 0 0 1 .08 1.85l-.33.34a1.22 1.22 0 0 1-1.76.07l-4.88-4.2c-.62-.53-1.23-1.07-1.86-1.6a3 3 0 0 0-4.11 0L4.83 9.47l-.11.08a1.34 1.34 0 0 1-.75-.42 4 4 0 0 1-1.13-1.55.33.33 0 0 1 0-.33l1.16-1a.37.37 0 0 0-.01-.56Z" fill="#fe8194"/>
  <path d="M20.82 12.47a4.19 4.19 0 0 1-1.36-.92l-1.91-1.64-1.44-1.25-1.88-1.6c-.36-.31-.72-.61-1.07-.93a1.67 1.67 0 0 0-2.27 0c-.71.64-1.46 1.25-2.19 1.88-.5.43-1 .88-1.51 1.31a5.47 5.47 0 0 0-1.14 1.26 5.11 5.11 0 0 0-.77 2.32c-.06.73 0 1.46 0 2.19 0 .07 0 .15.05.2a2.79 2.79 0 0 0-.67 1.94v5.97a1.93 1.93 0 0 1-1.4-1.65v-9.53a.55.55 0 0 1 .25-.49c.58-.44 1.12-.92 1.67-1.4l5.3-4.56a2.35 2.35 0 0 1 3.2 0l6.7 5.77a.41.41 0 0 0 .13.1c.37.14.41.44.37.77a2.26 2.26 0 0 0-.06.26Z" fill="#cdccfc"/>
  <path d="M7.43 15.19h1.55a1.78 1.78 0 0 1 1.63 1.73v6.23c0 .11 0 .14-.15.14h-4a.35.35 0 0 1-.07-.28v-6.18a2 2 0 0 1 .78-1.54 1.2 1.2 0 0 1 .26-.1Z" fill="#93e2fc"/>
  <path d="M7.43 15.19a2.36 2.36 0 0 0-.9 1.34 2.19 2.19 0 0 0 0 .51v6.24h-1c-.36 0-.22 0-.22-.22v-5.9a1.86 1.86 0 0 1 2.12-1.97Z" fill="#40cffb"/>
  <path d="M2.76 7.26a3.11 3.11 0 0 0 .73 1.36 3.52 3.52 0 0 0 1.19.94c-.52.46-1 .93-1.58 1.36a1.08 1.08 0 0 1-1.25.11 2.28 2.28 0 0 1-1-1 1.15 1.15 0 0 1 .27-1.44c.58-.43 1.1-.87 1.64-1.33Z" fill="#ec5067"/>
  <path d="m20.09 5.3-3.23-2.77c0-.08.1 0 .15 0h2.89c.13 0 .23 0 .22.17v2.55a.43.43 0 0 1-.03.05Z" fill="#524d62"/>
  <path d="M16.75.71h3.85c.12 0 .22 0 .23.18s0 .48 0 .72a.13.13 0 0 1-.12.14 2.9 2.9 0 0 1-.51 0h-3.24c-.27 0-.31-.05-.32-.31a3.68 3.68 0 0 1 0-.47.31.31 0 0 1 .11-.26Z" fill="#f7e569"/>
  <path d="M16.75.71a2.89 2.89 0 0 0 0 .88c0 .16.13.14.24.14h3.71a.43.43 0 0 1-.25 0H16.2a.52.52 0 0 1-.4-.14 3.72 3.72 0 0 0-.48-.41.33.33 0 0 1-.11-.4c0-.14.18-.12.3-.12Z" fill="#fac861"/>
  <path d="M15.88 20.81h-2.5a1 1 0 0 1-1-.84 1 1 0 0 1 .65-1.19c.12 0 .32 0 .36-.11a1.17 1.17 0 0 0 0-.46V15.7a1.12 1.12 0 0 1 1.21-1.23h2.53a1.12 1.12 0 0 1 1.2 1.22v2.78c0 .15 0 .22.19.26a1.0448 1.0448 0 0 1-.2 2.08h-2.48Zm-2.4-10.04a1.54 1.54 0 0 1-1.17 1.55 1.49 1.49 0 0 1-1.74-1.34 1.07 1.07 0 0 1 1.15-1.32 3.8 3.8 0 0 1 .89 0 1 1 0 0 1 .87 1.11Z"/>
  <path d="M15.85 10.46c.21.09.43.1.64.21a1 1 0 0 1 .64.87 1 1 0 0 1-.59 1 1.66 1.66 0 0 1-1.81-.18 1 1 0 0 1 .05-1.5 2.15 2.15 0 0 1 .52-.27.83.83 0 0 0 .55-.13Zm-7.1.1a1.67 1.67 0 0 1 .67.41 1 1 0 0 1-.39 1.55 1.56 1.56 0 0 1-1.6-.06 1 1 0 0 1 .07-1.76 4.41 4.41 0 0 1 .7-.23.87.87 0 0 0 .55.09Z" fill="#fe95a2"/>
  <path d="M8.75 10.56a.38.38 0 0 1-.55-.09 2.23 2.23 0 0 1 0-.77.35.35 0 0 1 .36-.33.34.34 0 0 1 .34.35c-.05.28.05.58-.15.84Zm7.1-.1a.37.37 0 0 1-.55.1 1.33 1.33 0 0 1-.08-1c0-.15.18-.22.35-.2a.32.32 0 0 1 .31.3 2.28 2.28 0 0 1-.03.8Z" fill="#010101"/>
  <path d="M8.85 20.81a1 1 0 0 1-1-1.05 1.05 1.05 0 0 1 1-1.06 1.06 1.06 0 1 1 0 2.11Z"/>
  <path d="M14.17 19.41h4.16a.35.35 0 1 1 0 .7h-4.2a.49.49 0 0 1 .04-.7Z" fill="#524d61"/>
  <path d="M17.7 18c0 .22.08.53 0 .65s-.43 0-.67.05-.52.08-.65 0 0-.44-.05-.68-.09-.52 0-.65.44 0 .67 0 .53-.08.66 0-.02.4.04.63Z" fill="#93e2fb"/>
  <path d="M16.95 16.57c-.22 0-.52.09-.65 0s0-.44-.05-.67-.1-.52 0-.65.44 0 .67-.05h.28a.38.38 0 0 1 .41.38v.91c0 .11-.07.12-.16.12h-.56Z" fill="#40cffa"/>
  <path d="M15.54 18a3.65 3.65 0 0 0 0 .47c0 .17 0 .24-.21.23h-1c-.14 0-.21 0-.2-.18v-1.06c0-.12 0-.18.17-.17h1.09c.13 0 .16 0 .16.16s-.01.38-.01.55Z" fill="#40cffb"/>
  <path d="M15.54 15.89v.54c0 .18 0 .16-.16.16h-1.12c-.11 0-.14 0-.14-.15v-.82a.4.4 0 0 1 .45-.44h.77c.14 0 .2 0 .19.17a4.87 4.87 0 0 0 .01.54Z" fill="#93e2fc"/>
  <path d="M14.17 19.41a.87.87 0 0 0 0 .69h-.68a.33.33 0 0 1-.36-.34.34.34 0 0 1 .36-.36c.21 0 .44.01.68.01Z" fill="#454252"/>
  <path d="M12.02 10.36h.23c.59 0 .59.18.49.69a.79.79 0 0 1-.76.61.85.85 0 0 1-.71-.84c0-.35.08-.45.45-.46Z" fill="#2a2f3d"/>
  <path d="M9.21 19.76a.37.37 0 0 1-.36.35.35.35 0 0 1 0-.7.36.36 0 0 1 .36.35Z" fill="#f4e369"/>
</svg>
