<svg xmlns="http://www.w3.org/2000/svg" width="23.94" height="19.64" viewBox="0 0 23.94 19.64">
  <path d="M0 13.52a1.07 1.07 0 0 1 1.2-.74h3.31c.19 0 .23-.06.23-.23V4.62A4.54 4.54 0 0 1 7.9.21a4.31 4.31 0 0 1 1.33-.22h10.59a3.07 3.07 0 0 1 3 2.66 3.41 3.41 0 0 1 .05.55 2.86 2.86 0 0 0 .79 2 .89.89 0 0 1 .26.85.91.91 0 0 1-1 .74H18.4a.37.37 0 0 1-.41-.35c0-.21.09-.31.26-.38a.9.9 0 0 1 .48-.02h4c.13 0 .29 0 .36-.09s-.08-.24-.16-.33a3.65 3.65 0 0 1-.8-1.71c-.09-.4 0-.81-.12-1.21A2.3 2.3 0 0 0 19.67.76a2.39 2.39 0 0 0-2.28 2.13c-.1 1 0 2-.05 3-.1 3.7 0 7.4-.05 11.1a.43.43 0 0 1 0 .16 2.62 2.62 0 0 1-2.47 2.42H4.4a3.34 3.34 0 0 1-3.26-2.63 9.5 9.5 0 0 1-.1-1.06 2.62 2.62 0 0 0-.61-1.39 2.65 2.65 0 0 1-.43-.62Z"/>
  <path d="M17.31 17.21V2.98A2.41 2.41 0 0 1 19.62.72a2.35 2.35 0 0 1 2.46 2c.07.39.05.79.09 1.18a.51.51 0 0 1-.38.08h-4.05c-.35 0-.35 0-.35.35v1.82a.54.54 0 0 1-.06.33v10.34a.63.63 0 0 1-.02.39Z" fill="#c69f8d"/>
  <path d="M17.36 6.51V4.16c0-.2.07-.23.24-.23h4.62a3.57 3.57 0 0 0 .95 1.81.22.22 0 0 1 .05.28.25.25 0 0 1-.27.13H18.5c-.31 0-.38.06-.49.35Z" fill="#dcb8a4"/>
  <path d="M12.73 15.04a2.6 2.6 0 0 0-2.7-2.28H8.58c-.31 0-.41.11-.44.41a1.33 1.33 0 0 1-.79-.05c-.1-.3-.18-.36-.48-.36H5.58c-.15 0-.18 0-.18-.18V4.51A3.81 3.81 0 0 1 9.31.69h8.43a3.28 3.28 0 0 0-1.06 1.66 3.73 3.73 0 0 0-.12 1V15.9a.4.4 0 0 1-.27.12c-.22 0-.43 0-.65.05-.85 0-1.71.07-2.56.05a.55.55 0 0 1-.31-.07c-.04-.33.05-.66-.04-1.01Z" fill="#edcdb8"/>
  <path d="M7.39 13.14a3 3 0 0 1 .79.05.39.39 0 0 0 .44.3h1.82a1.84 1.84 0 0 1 1.63 1.74v1.7a2.61 2.61 0 0 0 .74 1.88l.06.07c0 .06-.11 0-.16 0H4.48a2.58 2.58 0 0 1-2.5-1.58.15.15 0 0 1 0-.09c.1-.1.23-.07.35-.07H5.6a.92.92 0 0 0 .56-.14.78.78 0 0 0 .29-.87.77.77 0 0 0-.7-.53h-3.7c-.12 0-.27 0-.35-.12a3.4 3.4 0 0 0-.87-1.6c-.09-.08-.16-.18-.09-.31s.17-.13.29-.13h5.89a.42.42 0 0 0 .47-.3Z" fill="#fce1ce"/>
  <path d="M12.81 16.04h1.07c.61 0 1.22 0 1.83-.05.3 0 .59-.06.89-.09a6.77 6.77 0 0 1 0 1.56 1.91 1.91 0 0 1-2 1.47 1.92 1.92 0 0 1-1.78-1.79 7.93 7.93 0 0 1-.01-1.1Z" fill="#dcb8a4"/>
  <path d="M1.73 15.53a.49.49 0 0 0 .29 0h3.7a.88.88 0 0 1 .87.86.82.82 0 0 1-.87.83H2.01a1.75 1.75 0 0 1-.19-.81 7.16 7.16 0 0 0-.09-.88Z" fill="#edcdb8"/>
  <path d="M12.73 15.04a3.29 3.29 0 0 1 0 1Z" fill="#dcb8a4"/>
  <path d="M11.02 8.28H7.26a.33.33 0 0 1-.33-.33.34.34 0 0 1 .31-.36h7.4a.74.74 0 0 1 .21 0 .33.33 0 0 1 .3.36.32.32 0 0 1-.32.33h-3.81Zm.01 1.76H7.24a.33.33 0 0 1-.31-.32.33.33 0 0 1 .27-.36 1 1 0 0 1 .24 0h7.42a.34.34 0 0 1 .29.37.33.33 0 0 1-.31.32h-3.81Zm1.83 1.71h-1.84c-.27 0-.44-.13-.44-.34s.17-.36.45-.36h3.7c.3 0 .46.12.46.34s-.15.36-.44.36Zm-1.82-6.17a2 2 0 0 1-1.24-.4.36.36 0 0 1-.13-.51.36.36 0 0 1 .53-.07 1.38 1.38 0 0 0 1.65 0c.22-.14.42-.12.54.05a.37.37 0 0 1-.15.54 2.06 2.06 0 0 1-1.2.39Z"/>
  <path d="M7.61 4.59a1.69 1.69 0 0 1 0 .32.33.33 0 0 1-.36.3.32.32 0 0 1-.32-.33v-.6a.35.35 0 0 1 .34-.35.35.35 0 0 1 .36.33v.33Zm7.54-.02v.31a.33.33 0 0 1-.35.33.32.32 0 0 1-.34-.31 3.53 3.53 0 0 1 0-.65.32.32 0 0 1 .34-.32.35.35 0 0 1 .35.34c.01.1 0 .2 0 .3Z" fill="#010101"/>
  <path d="M9.03 17.26h-.3a.79.79 0 0 1-.82-.84.8.8 0 0 1 .83-.84h.7a.83.83 0 0 1 .85.83.85.85 0 0 1-.86.85Z" fill="#edcdb8"/>
</svg>
