<svg xmlns="http://www.w3.org/2000/svg" width="23.95" height="23.95" viewBox="0 0 23.95 23.95">
  <path d="M0 21.74a4.2 4.2 0 0 1 1.2-1.48.25.25 0 0 0 0-.36 3.65 3.65 0 0 1-.42-3.13 3.14 3.14 0 0 1 .49-.85l3.61-4.67a.26.26 0 0 0 0-.35 2 2 0 0 1 .22-2.53c.67-.7 1.35-1.4 2.07-2.06a2 2 0 0 1 2.46-.28c0-.18.07-.35.11-.52a3.77 3.77 0 0 1 1-1.84c.67-.69 1.35-1.36 2-2a.37.37 0 0 1 .54-.06.34.34 0 0 1 .08.49c0 .07-.12.12-.18.19-.6.6-1.22 1.2-1.81 1.81a3.16 3.16 0 0 0-1 2.33.53.53 0 0 0 .17.41l6.53 6.53a.51.51 0 0 0 .39.16 3 3 0 0 0 1.59-.4 3.93 3.93 0 0 0 .79-.62l2.29-2.29a3.21 3.21 0 0 0 1-2.38 3.17 3.17 0 0 0-.94-2.25c-1.3-1.31-2.59-2.62-3.91-3.9a3.11 3.11 0 0 0-2.73-.86 3.45 3.45 0 0 0-.88.27.71.71 0 0 1-.37.1c-.15 0-.25-.08-.27-.24a.36.36 0 0 1 .24-.51 3.66 3.66 0 0 1 1.16-.37s.08 0 .09-.05h.94c.23.05.48.09.71.16a4 4 0 0 1 1.74 1.05c1.27 1.27 2.55 2.53 3.82 3.82a4 4 0 0 1 0 5.63c-.82.84-1.65 1.66-2.48 2.48a3.91 3.91 0 0 1-2.29 1.11h-.12a2.22 2.22 0 0 1 .21 1.59 2.14 2.14 0 0 1-.56 1l-1.89 1.89a2.08 2.08 0 0 1-2.67.28c-.13-.08-.19 0-.28 0l-4 3c-.26.2-.35.2-.62 0a.34.34 0 0 1 .07-.53c.18-.16.37-.29.56-.43l2.56-2 .74-.56c.14-.1.17-.17 0-.31l-6.44-6.43c-.12-.13-.19-.12-.29 0s-.39.5-.57.76c-.94 1.24-1.88 2.49-2.84 3.72a2.5 2.5 0 0 0-.33 2.62 3.9 3.9 0 0 0 .93 1.41c.49.46.92 1 1.45 1.39a3.35 3.35 0 0 0 2.23.77 3.44 3.44 0 0 0 .64-.12c.28-.07.43 0 .5.22s0 .43-.35.53a3.72 3.72 0 0 1-3-.46.25.25 0 0 0-.38.05c-.23.26-.49.5-.74.75a1.43 1.43 0 0 1-2.07 0 2.89 2.89 0 0 1-.86-1.15Z"/>
  <path d="M11.38 19.17c-1 .78-2 1.55-3 2.32a.43.43 0 0 0-.2.57 3.51 3.51 0 0 1-.76.57.39.39 0 0 0-.46-.17 3 3 0 0 1-2.91-.64 10 10 0 0 1-2-2.08 3 3 0 0 1-.54-2.59 1.91 1.91 0 0 1 .35-.68l2.93-3.84c.11 0 .16 0 .21.11l6.27 6.27c.04.01.11.06.11.16Z" fill="#8197da"/>
  <path d="M19.13 13.14a2.88 2.88 0 0 1-1.76.42.27.27 0 0 1-.2-.11l-6.69-6.69a.36.36 0 0 1-.11-.24 3.2 3.2 0 0 1 1-2.43c.63-.66 1.28-1.29 1.93-1.94.21-.21.22-.31.07-.57a6.73 6.73 0 0 1 .75-.65c.19.22.28.24.57.11a2.73 2.73 0 0 1 1-.29c.08.09 0 .19 0 .29a10.27 10.27 0 0 0-.26 3.36 14.5 14.5 0 0 0 1.56 5.83 8.48 8.48 0 0 0 2.05 2.67c.02.06.11.12.09.24Z" fill="#383d4b"/>
  <path d="m19.13 13.14-.72-.69a9.73 9.73 0 0 1-1.87-2.87 15.18 15.18 0 0 1-1-3.22c-.1-.53-.17-1.08-.22-1.62s0-.92 0-1.38a9 9 0 0 1 .3-2.41v-.2a3.19 3.19 0 0 1 2.46.61 3.07 3.07 0 0 1 .38.34l3.8 3.8a3.24 3.24 0 0 1 1 2.4 3.21 3.21 0 0 1-.92 2.25c-.82.84-1.66 1.67-2.5 2.49a2.15 2.15 0 0 1-.71.5Z" fill="#444c55"/>
  <path d="M14.14 18.66a1.47 1.47 0 0 1-1.07-.49c-1.55-1.55-3.1-3.11-4.66-4.66l-2.62-2.63a1.43 1.43 0 0 1 0-2.18l1.74-1.73a1.41 1.41 0 0 1 2.16 0l7.31 7.3a1.43 1.43 0 0 1 0 2.15l-1.8 1.8a1.43 1.43 0 0 1-1.06.44Z" fill="#f5ec83"/>
  <path d="m11.38 19.17-.11-.14-6.34-6.33a.81.81 0 0 0-.14-.12l.65-.88c.07-.09.12-.08.18 0l.08.09 6.49 6.48c.15.15.16.22 0 .33s-.56.38-.81.57Z" fill="#5c89cd"/>
  <path d="M1.93 23.25A1.69 1.69 0 0 1 .7 22.07a.69.69 0 0 1 .19-.49l.8-.81c.08-.08.13-.08.21 0 .42.44.85.87 1.28 1.29.1.09.08.15 0 .23l-.75.74a.83.83 0 0 1-.5.22Z" fill="#444c55"/>
  <path d="M8.14 17.51a1.72 1.72 0 0 1-1.76 1.74 1.72 1.72 0 0 1-1.69-1.71 1.71 1.71 0 0 1 1.72-1.69 1.7 1.7 0 0 1 1.73 1.66Z"/>
  <path d="M13.91 4.16a.38.38 0 0 1 .35.37.36.36 0 0 1-.36.33.34.34 0 0 1-.34-.34.36.36 0 0 1 .35-.36Zm7.41 5.33a.36.36 0 0 1-.38.33.35.35 0 0 1-.32-.34.36.36 0 0 1 .35-.36.37.37 0 0 1 .35.37Zm-2.15.76a.34.34 0 0 1 .33.34.34.34 0 0 1-.35.36.38.38 0 0 1-.34-.35.36.36 0 0 1 .36-.35Zm2.29-3.11a.37.37 0 0 1-.34.34.32.32 0 0 1-.36-.31.35.35 0 0 1 .32-.38.4.4 0 0 1 .38.35Zm-5.01-4a.36.36 0 0 1-.36-.32.37.37 0 0 1 .37-.35.31.31 0 0 1 .33.34.31.31 0 0 1-.34.33Z" fill="#010101"/>
  <path d="M9.3 10.57a1 1 0 0 1-1.14 1.15 1.65 1.65 0 0 1-1.31-1 1.15 1.15 0 0 1-.13-.87 1 1 0 0 1 1.24-.73 1.59 1.59 0 0 1 1.12.86.69.69 0 0 0 .22.59Zm5.23 4.76a4.23 4.23 0 0 1 .25.58 1 1 0 0 1-.32 1.12 1.06 1.06 0 0 1-1.12.13 1.7 1.7 0 0 1-1.12-1.34 1 1 0 0 1 1.16-1.17 1.56 1.56 0 0 1 .59.22c.07.5.07.5.56.46Z" fill="#e97d93"/>
  <path d="M14.53 15.33a.36.36 0 0 1-.49 0 .37.37 0 0 1-.06-.48.28.28 0 0 0 0-.43c-.13-.15-.28-.13-.44 0a.36.36 0 0 1-.53 0 .38.38 0 0 1 .12-.53 1 1 0 0 1 1.29 0 1 1 0 0 1 .19 1.26c.01.1-.04.1-.08.18Zm-2.51-2.01a1.44 1.44 0 0 1-1.4-1.41c0-.26.14-.44.35-.44s.34.14.36.4a.73.73 0 0 0 .73.75c.28 0 .43.15.42.36s-.19.34-.46.34Z"/>
  <path d="M9.3 10.57c-.28-.15-.32-.25-.22-.56l.42-.4a.36.36 0 0 1 .52 0 .35.35 0 0 1 0 .52l-.37.36a.39.39 0 0 1-.35.08Z" fill="#010101"/>
  <path d="M6.45 16.51a1 1 0 0 1 1 1 1 1 0 0 1-1 1 1 1 0 0 1-1-1 1 1 0 0 1 1-1Z" fill="#76ce77"/>
</svg>
