<svg xmlns="http://www.w3.org/2000/svg" width="23.81" height="23.97" viewBox="0 0 23.81 23.97">
  <path d="M5.03 0h17.82a1.07 1.07 0 0 1 1 1.17V3a1.21 1.21 0 0 1-1.15 1.28c-.34 0-.34 0-.34.37v17.37A2.08 2.08 0 0 1 22 23.3a1.56 1.56 0 0 1-1.32.67h-1.82c-.27 0-.36-.08-.42-.36s.17-.43.47-.44h1.5a1 1 0 0 0 1.1-1.11V4.79c0-.53 0-.5-.49-.5H2.58c-.17 0-.24.07-.23.23s0 .13 0 .19v17.27a1.75 1.75 0 0 0 0 .46.9.9 0 0 0 .87.72h5.87c.42 0 .42 0 .42-.41v-4.16a1.82 1.82 0 0 1 0-.33.44.44 0 0 1 .46-.43h3.79a.45.45 0 0 1 .46.43v4.48c0 .45 0 .45.46.45h2.53c.35 0 .47.11.53.43s-.15.37-.47.37H3.22a1.71 1.71 0 0 1-1.7-1.69V4.84a1.76 1.76 0 0 0 0-.23c0-.28 0-.28-.29-.31a1.21 1.21 0 0 1-1.2-1.33V1.19A1.24 1.24 0 0 1 .09.76a1 1 0 0 1 .9-.74h2.95a.38.38 0 0 1 .26.44.45.45 0 0 1-.49.34H1.33c-.3 0-.44.14-.45.43v1.78c0 .29.12.4.42.43a6.54 6.54 0 0 0 .77 0h20.31a.8.8 0 0 0 .34 0 .36.36 0 0 0 .26-.37V1.24c0-.28-.14-.4-.42-.42H5.22c-.32 0-.44-.14-.46-.47.03-.2.14-.28.27-.35Z"/>
  <path d="M4.14.38A.68.68 0 0 0 3.91 0h1.12l-.19.24a.2.2 0 0 1-.24.2c-.16 0-.32.05-.46-.06Z" fill="#fafafa"/>
  <path d="M18.42 23.6h-.68c-.09-.3-.16-.36-.48-.36h-2.85c-.18 0-.22 0-.22-.22v-4.63c0-.4-.09-.5-.49-.5h-3.6c-.39 0-.49.11-.49.51V23c0 .2 0 .24-.25.24h-5.6a.66.66 0 0 1-.37-.4 1.5 1.5 0 0 1-.13-.66V4.54a.49.49 0 0 1 .07-.33h17.89c.34 0 .3 0 .3.3v17.63a1 1 0 0 1-1.11 1.11h-1.54c-.29 0-.38.07-.45.35Z" fill="#26bada"/>
  <path d="M4.14.38h.45a.23.23 0 0 0 .25-.14c0 .35.09.46.46.46h17.13c.5 0 .6.11.6.6v1.73c0 .22-.07.4-.32.44a1.06 1.06 0 0 1-.25 0H2.22c-.34 0-.42-.06-.44-.4v-2a.43.43 0 0 1 .2-.4h1.71a.44.44 0 0 0 .45-.29Z" fill="#ece9ea"/>
  <path d="M3.34 4.21V22.1a1.51 1.51 0 0 0 .43 1.14h-.49a1 1 0 0 1-1-.95 1.47 1.47 0 0 1 0-.21V4.48c0-.22.05-.31.28-.29a7 7 0 0 0 .78.02Z" fill="#009bbd"/>
  <path d="M10.31 20.93v-2.08c0-.2.06-.24.25-.24h2.71c.17 0 .23 0 .23.22v4.2c0 .18-.06.22-.23.22h-2.73c-.2 0-.23-.07-.23-.24.01-.7 0-1.39 0-2.08Z" fill="#323f41"/>
  <path d="M1.94.74a1.08 1.08 0 0 0-.14.56v1.87c0 .23.12.32.39.32H22.7a.43.43 0 0 1-.25 0H1.22c-.32 0-.46-.15-.46-.47V1.16a.4.4 0 0 1 .46-.42Z" fill="#cdcbcc"/>
  <path d="M17.75 4.87h1.17a.86.86 0 0 1 .9.82v2.06a.86.86 0 0 1-.89.84h-2.41a.88.88 0 0 1-.9-.89V5.76a.87.87 0 0 1 .94-.89Zm-11.66 0h1.19a.84.84 0 0 1 .89.8v2.11a.85.85 0 0 1-.89.81H4.87a.87.87 0 0 1-.89-.87v-2a.87.87 0 0 1 .94-.86Zm-.03 8.04H4.89a.86.86 0 0 1-.9-.83v-2.06a.86.86 0 0 1 .89-.84h2.41a.87.87 0 0 1 .89.87v2a.88.88 0 0 1-.93.88Zm11.65 0h-1.14a.88.88 0 0 1-1-.87v-2a.89.89 0 0 1 .91-.88h2.39a.87.87 0 0 1 .9.86v2a.88.88 0 0 1-.92.84Zm-11.61.6h1.12a.89.89 0 0 1 .94.89v1.94a.87.87 0 0 1-.92.88H4.87a.86.86 0 0 1-.92-.9v-1.91a.87.87 0 0 1 .93-.9c.43-.01.82 0 1.22 0Zm11.63 0h1.19a.86.86 0 0 1 .9.82v2.06a.84.84 0 0 1-.89.83h-2.41a.87.87 0 0 1-.9-.88V14.4a.87.87 0 0 1 .94-.89c.39-.01.78 0 1.17 0Zm-5.82 0h1.17a.89.89 0 0 1 .93.93v1.87a.88.88 0 0 1-.89.91h-2.43a.87.87 0 0 1-.89-.91v-1.9a.88.88 0 0 1 .9-.9c.4-.01.81 0 1.21 0Zm-.01-8.64h1.17a.89.89 0 0 1 .94.94v1.85a.9.9 0 0 1-.9.93H10.7a.89.89 0 0 1-.9-.93V5.79a.88.88 0 0 1 .93-.92Zm-.01 8.04h-1.16a.89.89 0 0 1-.93-.93v-1.87a.88.88 0 0 1 .88-.93h2.44a.89.89 0 0 1 .89.92V12a.9.9 0 0 1-.92.91h-1.2Zm.01-9.9a1.62 1.62 0 0 1-1.21-.51.34.34 0 0 1 0-.53.36.36 0 0 1 .52 0 1 1 0 0 0 1.46 0 .35.35 0 0 1 .51 0 .34.34 0 0 1 0 .52 1.63 1.63 0 0 1-1.28.52Z"/>
  <path d="M7.49 1.9v-.4a.33.33 0 0 1 .34-.32.33.33 0 0 1 .35.31 7.63 7.63 0 0 1 0 .83.31.31 0 0 1-.33.3.33.33 0 0 1-.35-.31V1.9Zm8.84.01v.42a.32.32 0 0 1-.34.29.32.32 0 0 1-.34-.29 4.12 4.12 0 0 1 0-.86.32.32 0 0 1 .34-.29.32.32 0 0 1 .34.31 3 3 0 0 1 0 .42Z" fill="#020202"/>
  <path d="M17.73 5.57h1.1c.2 0 .3.08.3.29v1.75c0 .22-.1.29-.3.29h-2.22c-.21 0-.29-.09-.29-.3V5.87c0-.22.09-.3.31-.3h1.1Zm-11.63 0h1.12c.18 0 .26.08.26.25v1.83c0 .18-.09.25-.26.25H4.95c-.18 0-.27-.07-.27-.26v-1.8a.23.23 0 0 1 .27-.27Z" fill="#ece9ea"/>
  <path d="M6.08 12.21h-1.1c-.2 0-.3-.07-.3-.28v-1.78a.23.23 0 0 1 .27-.27h2.27c.18 0 .26.09.26.27v1.78c0 .2-.08.28-.28.28Zm11.63 0h-1.1c-.19 0-.29-.07-.29-.27v-1.8a.23.23 0 0 1 .26-.26h2.29c.18 0 .25.09.25.26v1.8c0 .19-.08.27-.26.27Zm-11.63 2h1.14c.18 0 .25.08.25.25v1.82c0 .17-.07.24-.24.24H4.92c-.17 0-.25-.07-.25-.24v-1.82c0-.17.08-.25.26-.25Z" fill="#fedf7c"/>
  <path d="M17.72 16.52h-1.1c-.22 0-.3-.09-.3-.31v-1.7c0-.22.07-.31.3-.31h2.22c.21 0 .29.08.29.29v1.73c0 .23-.09.3-.31.3Zm-5.84 0h-1.07c-.22 0-.32-.07-.31-.3v-1.73c0-.2.07-.29.28-.29h2.24c.22 0 .29.09.29.29v1.73c0 .23-.1.3-.31.3Z" fill="#ece9ea"/>
  <path d="M11.91 5.57h1.12c.2 0 .28.09.28.29v1.77a.23.23 0 0 1-.27.27h-2.26c-.2 0-.28-.09-.28-.28V5.84a.23.23 0 0 1 .27-.27Z" fill="#fedf7c"/>
  <path d="M11.89 12.21h-1.12c-.19 0-.27-.08-.27-.27v-1.79c0-.18.08-.27.25-.27h2.31c.17 0 .25.1.25.27v1.78c0 .21-.1.28-.3.28Z" fill="#ece9ea"/>
</svg>
