<svg xmlns="http://www.w3.org/2000/svg" width="23.95" height="23.97" viewBox="0 0 23.95 23.97">
  <path d="M0 13v-2a13.75 13.75 0 0 1 .2-1.57 12.07 12.07 0 0 1 2.52-5.15 7.5 7.5 0 0 1 .91-1 .39.39 0 0 1 .55 0 .45.45 0 0 1-.08.7 10.92 10.92 0 0 0-1.52 1.86 11.25 11.25 0 0 0-1.74 4.74 11.23 11.23 0 0 0 .46 4.82 10.78 10.78 0 0 0 2.16 3.85 11.73 11.73 0 0 0 2.46 2.15l.19.12c.09.05.16 0 .18-.07a5 5 0 0 1 .57-1.55c.07-.12 0-.15-.11-.18a5.62 5.62 0 0 1-.83-.36 5.48 5.48 0 0 1-3-4.33 11.89 11.89 0 0 1 0-1.33 1 1 0 0 0-.13-.51 1.94 1.94 0 0 1 0-2.21 1.74 1.74 0 0 0 .2-.73 8.19 8.19 0 0 1 2.29-4.66 9.07 9.07 0 0 1 5.23-2.69 9.41 9.41 0 0 1 5.36.71 8.88 8.88 0 0 1 4.06 3.6 8 8 0 0 1 1.1 3.35.73.73 0 0 0 .12.35 2 2 0 0 1 0 2.33.86.86 0 0 0-.11.47 7 7 0 0 1-.22 2.24 5.47 5.47 0 0 1-2.92 3.47 5.21 5.21 0 0 1-.74.3c-.12 0-.14.1-.08.21a4.89 4.89 0 0 1 .55 1.48c0 .18.12.14.23.08a10.07 10.07 0 0 0 1.72-1.32 12.6 12.6 0 0 0 .88-.91.42.42 0 0 1 .65-.08.41.41 0 0 1 0 .59 9.39 9.39 0 0 1-1.29 1.31 11.89 11.89 0 0 1-4.24 2.36 10.41 10.41 0 0 1-2.77.5 15.11 15.11 0 0 1-2.93-.13 11.94 11.94 0 0 1-5.6-2.6 11.91 11.91 0 0 1-3.45-4.7 11.21 11.21 0 0 1-.78-2.9C.02 13.4.04 13.17 0 13Z"/>
  <path d="M4.7 2.87a.4.4 0 0 1 .16-.53 12.1 12.1 0 0 1 6-2.3h1.94a7.18 7.18 0 0 0 .93.13 12 12 0 0 1 10 9.52 11.83 11.83 0 0 1-1.66 8.77.4.4 0 0 1-.54.22.33.33 0 0 1-.17-.51c.13-.25.29-.49.43-.73a11 11 0 0 0 1.31-4 10.87 10.87 0 0 0-1.22-6.67 11.08 11.08 0 0 0-6.53-5.44 10.77 10.77 0 0 0-2.57-.47 11.12 11.12 0 0 0-5.84 1.16 9.19 9.19 0 0 0-1.44.87 1.9 1.9 0 0 1-.33.22.32.32 0 0 1-.47-.24Z"/>
  <path d="M4.7 2.87c.22.21.34.22.59 0a11 11 0 0 1 4.75-2 11 11 0 0 1 7.34 1.21 10.91 10.91 0 0 1 5.5 7 11 11 0 0 1-1.32 8.79 1.4 1.4 0 0 1-.1.16.37.37 0 0 0 .07.57 3.33 3.33 0 0 0-.43.56c-.26-.13-.37-.12-.58.13a11.48 11.48 0 0 1-2.74 2.31l-.13.07a5.06 5.06 0 0 0-.72-2l.59-.21a5.51 5.51 0 0 0 3.49-5.05v-.4a2 2 0 0 1 .24-1.13 1.77 1.77 0 0 0 0-1.83 2.14 2.14 0 0 1-.28-.84 8.26 8.26 0 0 0-5.33-6.71 9 9 0 0 0-9.66 1.48 8 8 0 0 0-2.92 5.36 1.43 1.43 0 0 1-.21.63 2 2 0 0 0 .05 2.18.61.61 0 0 1 .11.36 7.08 7.08 0 0 0 .29 2.59 5.42 5.42 0 0 0 3.59 3.49c.17.06.2.09.1.25a4.55 4.55 0 0 0-.62 1.78 9.1 9.1 0 0 1-1.19-.79 11 11 0 0 1-4.26-7.07 11 11 0 0 1 3-9.68l.26-.27c.2-.2.21-.32.05-.57a1.68 1.68 0 0 0 .47-.37Z" fill="#fe96be"/>
  <path d="M3.7 14a2.09 2.09 0 0 0 .84.16.34.34 0 0 0 .37-.37v-3.28c0-.25-.14-.37-.4-.38a2.11 2.11 0 0 0-.7.13 8.08 8.08 0 0 1 7.35-6.62 8.24 8.24 0 0 1 9.08 6.6 5.65 5.65 0 0 0-.7-.11c-.29 0-.41.13-.41.41v3.23c0 .29.11.38.39.39a2.09 2.09 0 0 0 .81-.16 4.94 4.94 0 0 1-.36 2.29 4.75 4.75 0 0 1-3.31 2.85c-.11 0-.19 0-.26-.07a5.34 5.34 0 0 0-.91-.87c-.18-.13-.17-.15 0-.25a7.77 7.77 0 0 0 2.5-1.83.39.39 0 0 0 .11-.32v-5a1.83 1.83 0 0 0-1.58-1.75 7.2 7.2 0 0 1-3.28-1.19 4.84 4.84 0 0 1-.95-.86c-.23-.27-.4-.27-.63 0a6.18 6.18 0 0 1-3.62 1.95 4.42 4.42 0 0 0-1.13.26 1.71 1.71 0 0 0-1.05 1.59v5a.49.49 0 0 0 .11.33 7.7 7.7 0 0 0 2.51 1.83c.21.1.21.11 0 .27a4.93 4.93 0 0 0-.88.83.23.23 0 0 1-.28.09 4.84 4.84 0 0 1-3.59-3.81A5.88 5.88 0 0 1 3.7 14Z" fill="#40414e"/>
  <path d="M17.39 13.16v2.32a.44.44 0 0 1-.14.34 7.25 7.25 0 0 1-4.77 2.15 7.3 7.3 0 0 1-5.79-2.13.45.45 0 0 1-.16-.36V10.9a1.13 1.13 0 0 1 1.06-1.23A8.16 8.16 0 0 0 10.9 8.5a5 5 0 0 0 .95-.76c.08-.09.13-.09.22 0a7 7 0 0 0 4.07 1.89c.71.1 1.1.4 1.22 1a1.51 1.51 0 0 1 0 .3Z" fill="#fed3c6"/>
  <path d="M15.44 19.12a4.48 4.48 0 0 1 1.49 2.75.24.24 0 0 1-.16.3 11.3 11.3 0 0 1-9.53 0 .34.34 0 0 1-.23-.44 4.63 4.63 0 0 1 1.54-2.7 5.16 5.16 0 0 1 .85.25 9.48 9.48 0 0 0 5.53-.12c.16-.02.33-.16.51-.04Z" fill="#fed861"/>
  <path d="M15.44 19.12c-.43.12-.86.26-1.29.37a9.06 9.06 0 0 1-2.84.23 8.15 8.15 0 0 1-2.67-.59l-.09-.06a4.35 4.35 0 0 1 .85-.69c.08-.07.15 0 .23 0a8.44 8.44 0 0 0 4.7 0 .22.22 0 0 1 .22 0 5.8 5.8 0 0 1 .89.74Z" fill="#e3c05b"/>
  <path d="M19.78 13.36v-2.5a1.27 1.27 0 0 1 1 1.25 1.28 1.28 0 0 1-1 1.25Zm-15.63 0a1.31 1.31 0 0 1-1-1.26 1.3 1.3 0 0 1 1-1.24Z" fill="#f2b8a8"/>
  <path d="M11.89 13.27a1.16 1.16 0 0 1-.8-.37.35.35 0 0 1 0-.5.35.35 0 0 1 .5 0c.31.25.48.24.8 0a.36.36 0 0 1 .5 0 .37.37 0 0 1 0 .49 1.27 1.27 0 0 1-1 .38Z"/>
  <path d="M8.36 12.62h.46a.37.37 0 0 1 .38.34.38.38 0 0 1-.35.35 8 8 0 0 1-1 0 .36.36 0 0 1-.34-.37.36.36 0 0 1 .38-.32Zm7.2.7h-.45a.41.41 0 0 1-.41-.32.35.35 0 0 1 .39-.35h.88a.37.37 0 0 1 .4.34.39.39 0 0 1-.39.36h-.46Z" fill="#fe737c"/>
  <path d="M8.7 11.59v.38a.31.31 0 0 1-.32.31.31.31 0 0 1-.35-.27 2.48 2.48 0 0 1 0-.86.29.29 0 0 1 .35-.26.31.31 0 0 1 .32.31v.39Zm6.53-.02v-.38a.31.31 0 0 1 .32-.3.31.31 0 0 1 .36.26 2.76 2.76 0 0 1 0 .86.32.32 0 0 1-.36.27.32.32 0 0 1-.32-.32v-.39Z" fill="#010101"/>
</svg>
