<svg xmlns="http://www.w3.org/2000/svg" width="23.63" height="23.95" viewBox="0 0 23.63 23.95">
  <path d="M21.77 23.9c0-.12.1-.1.17-.12a2.17 2.17 0 0 0 1.66-1.9 2.42 2.42 0 0 0-.05-.76c-.16-1.11-.33-2.22-.5-3.33a.66.66 0 0 0-.24-.53l-.08-.05c-.2-.17-.14-.44-.16-.68a.67.67 0 0 0 .21-.72q-.69-4.62-1.39-9.24a2.17 2.17 0 0 0-2.31-2h-2.71c-.35 0-.39 0-.39-.38v-2a2.14 2.14 0 0 0-2-2.16 2.16 2.16 0 0 0-2.28 1.7 2.3 2.3 0 0 0-.07.58v1.9c0 .31 0 .35-.35.35H8.5a2.13 2.13 0 0 0-2.24 1.9c-.22 1.36-.42 2.72-.62 4.09-.08.56-.08.56-.63.56H3.53a2.11 2.11 0 0 0-2.16 1.79c-.24 1.31-.41 2.63-.61 4s-.42 2.84-.64 4.25a2.39 2.39 0 0 0 .11 1.4 2.18 2.18 0 0 0 1.31 1.23c.09 0 .21 0 .25.14s-.06 0-.09 0a2.27 2.27 0 0 1-1.66-2.7c.29-1.83.56-3.66.83-5.49.14-.94.27-1.88.43-2.82a2.18 2.18 0 0 1 2.1-1.79h1.85c.17 0 .23-.05.26-.23.22-1.52.43-3.05.69-4.57a2.14 2.14 0 0 1 2.15-1.75h3c.16 0 .21 0 .21-.2V2.26A2.23 2.23 0 0 1 13.9.03 2.22 2.22 0 0 1 16 2.14v2.22c0 .17 0 .21.21.21h2.82a2.25 2.25 0 0 1 2.39 2.1c.34 2.36.71 4.73 1.06 7.09.12.78.23 1.55.35 2.33a.39.39 0 0 1-.28.51 3.64 3.64 0 0 1 .07.44.26.26 0 0 0 .2.25c.2.09.23.27.26.46.18 1.25.38 2.49.55 3.74a2.17 2.17 0 0 1-1.86 2.41Z" fill="#fefefe"/>
  <path d="M23.61 21.45c-.17-1.25-.37-2.49-.55-3.74 0-.19-.06-.37-.26-.46h-.14c-.3 0-.42.16-.38.51a.2.2 0 0 1 0 .07c.17 1.05.32 2.1.48 3.14a3.29 3.29 0 0 1 .09.88 1.46 1.46 0 0 1-1.51 1.34h-3.85v-.09a2.54 2.54 0 0 0 .37-2c-.21-1.37-.41-2.74-.62-4.11s-.39-2.68-.6-4a2.25 2.25 0 0 0-2.1-1.93h-3.53c-.29 0-.41.13-.45.41.11.31.2.38.55.38h3.2a1.43 1.43 0 0 1 1.51 1.28c.11.68.21 1.36.31 2l.93 6.19a1.56 1.56 0 0 1-.22 1.17 1.53 1.53 0 0 1-1.36.63H2.22a1.46 1.46 0 0 1-1.43-1.69c.35-2.38.71-4.75 1.06-7.12a12.68 12.68 0 0 1 .25-1.5 1.41 1.41 0 0 1 1.3-1 11.41 11.41 0 0 1 1.17 0h4.8c.36 0 .48-.11.53-.42a.35.35 0 0 0-.12-.29.56.56 0 0 0-.43-.13H6.5c-.28 0-.3 0-.25-.3.2-1.37.4-2.75.62-4.13a1.42 1.42 0 0 1 1.46-1.27h10.68a1.53 1.53 0 0 1 1.17.49 1.61 1.61 0 0 1 .39.93c.45 3 .91 6.06 1.36 9.09a2.41 2.41 0 0 0 .11.52.31.31 0 0 0 .4.23.39.39 0 0 0 .28-.51c-.12-.78-.23-1.55-.35-2.33-.35-2.36-.72-4.73-1.06-7.09a2.25 2.25 0 0 0-2.39-2.1H16.1c-.17 0-.21 0-.21-.21V2.07a2.22 2.22 0 0 0-2.1-2.11 2.23 2.23 0 0 0-2.34 2.23V4.3c0 .17-.05.2-.21.2h-3a2.14 2.14 0 0 0-2.15 1.75c-.26 1.52-.47 3.05-.69 4.57 0 .18-.09.23-.26.23H3.29a2.18 2.18 0 0 0-2.1 1.79c-.16.94-.29 1.88-.43 2.82-.27 1.83-.54 3.66-.83 5.49a2.27 2.27 0 0 0 1.66 2.7s.07 0 .09 0h20.05a2.17 2.17 0 0 0 1.88-2.4ZM12.25 2.22A1.52 1.52 0 0 1 13.78.7a1.51 1.51 0 0 1 1.5 1.53v2.12c0 .16-.05.19-.2.19h-2.65c-.13 0-.19 0-.19-.17.01-.72-.01-1.44.01-2.15Z"/>
  <path d="M21.5 23.24h-2.43a.07.07 0 0 1 0-.06.36.36 0 0 1 0-.1 4.28 4.28 0 0 0 .16-2.3c-.41-2.66-.8-5.33-1.21-8a3.64 3.64 0 0 0-3.05-3.11c-.11 0-.24 0-.32-.12 0-.11.1-.18.16-.26a1.56 1.56 0 0 0 .35-.92.92.92 0 0 0-.85-1.08 3.29 3.29 0 0 0-1.17 0 .88.88 0 0 0-.75.92 1.58 1.58 0 0 0 .37 1.12c.05.06.11.12.09.2a.24.24 0 0 1-.13.05 10.14 10.14 0 0 1-1.35 0s0 0-.06 0 0-.11 0-.17a1 1 0 0 0-.59-1.17c-.08-.05-.17-.07-.19-.17a1.77 1.77 0 0 0 .05-.76c0-.16-.1-.29-.3-.29s-.24.14-.28.29a4.33 4.33 0 0 0 0 .72.2.2 0 0 1-.12.08 2.62 2.62 0 0 0-.68.24.11.11 0 0 1-.11 0 .32.32 0 0 1 0-.25c.07-.52.16-1 .24-1.56a1.83 1.83 0 0 1 .54-1.11l.12-.1.13-.07h9a1.54 1.54 0 0 1 1.66 1.47c.28 1.94.58 3.87.87 5.81l.54 3.58c0 .32.11.41.39.45a3.64 3.64 0 0 1 .07.44.26.26 0 0 0 .2.25h-.11c-.29 0-.38.17-.34.51.19 1.25.39 2.51.57 3.76a1.51 1.51 0 0 1-1.47 1.71Z" fill="#c4e6f8"/>
  <path d="M4.71 11.79h4.74c.32 0 .39-.05.49-.35a1.1 1.1 0 0 1 .67 0c.06.27.23.35.5.35h3a1.57 1.57 0 0 1 1.82 1.52c.4 2.7.8 5.39 1.21 8.09a1.52 1.52 0 0 1-1.58 1.84H3.44a1.18 1.18 0 0 1-.62-.66 1.87 1.87 0 0 1-.17-1.21c.41-2.76.82-5.51 1.24-8.27a2.21 2.21 0 0 1 .43-1 .71.71 0 0 1 .39-.31Z" fill="#ed92a6"/>
  <path d="M10.61 11.44a3.74 3.74 0 0 1-.67 0c-.11-.3-.17-.35-.5-.35H6.38c-.17 0-.2-.05-.18-.21.23-1.46.44-2.92.67-4.38a1.49 1.49 0 0 1 1.42-1.26h1.75a2.14 2.14 0 0 0-.69 1.06c-.08.43-.14.87-.2 1.3a4.67 4.67 0 0 0-.09.74c0 .1-.07.15-.12.22a.89.89 0 0 0 .2 1.31 1.51 1.51 0 0 0 2-.15c.06-.06.1-.15.2-.14h1.54c.06 0 .17 0 .24.06a1.31 1.31 0 0 0 1.42 0c.05 0 .1-.08.17 0a6.82 6.82 0 0 1 1.16.3 3.71 3.71 0 0 1 2 2 6.74 6.74 0 0 1 .38 1.77c.16 1 .31 2 .46 3s.26 1.74.38 2.62c.11.72.24 1.43.32 2.15a3.47 3.47 0 0 1-.31 1.82h-1.78a2.59 2.59 0 0 0 .51-1 3.84 3.84 0 0 0-.07-1.62c-.28-1.94-.58-3.88-.87-5.82-.09-.63-.18-1.26-.28-1.89a2.2 2.2 0 0 0-2.18-1.86h-3.31c-.35-.03-.42.03-.51.33Z" fill="#93d8fb"/>
  <path d="M4.71 11.79a2.2 2.2 0 0 0-.8 1.64c-.1.76-.23 1.51-.34 2.27s-.21 1.39-.31 2.09-.2 1.33-.31 2-.19 1.11-.25 1.68a1.88 1.88 0 0 0 .74 1.78 9 9 0 0 1-1.56 0 1.5 1.5 0 0 1-1.17-1.67c.39-2.62.79-5.23 1.18-7.85 0-.23.06-.45.1-.67a1.5 1.5 0 0 1 1.41-1.22Z" fill="#e67e8c"/>
  <path d="M14.67 9.55a1.45 1.45 0 0 1-1.83 0 1.89 1.89 0 0 1-.53-1.2 1 1 0 0 1 .86-1.12 3 3 0 0 1 1.16 0 1.07 1.07 0 0 1 .83 1.52 1.76 1.76 0 0 1-.49.8Z"/>
  <path d="M11.3 9.58a1.58 1.58 0 0 1-2.28.28.94.94 0 0 1-.05-1.42l.09-.1A2.45 2.45 0 0 1 9.97 8a.69.69 0 0 0 .56.06c0 .09.14.09.22.12a1 1 0 0 1 .55 1.4Zm6.25-1.55a1.58 1.58 0 0 1 .74.21 1 1 0 0 1 0 1.76 1.68 1.68 0 0 1-1.8-.1 1 1 0 0 1 .26-1.71l.23-.1a1.09 1.09 0 0 0 .57-.06Z" fill="#e67e8c"/>
  <path d="M10.53 8.06c-.25.16-.35.15-.56-.06a2 2 0 0 1 0-.8.31.31 0 0 1 .3-.28.28.28 0 0 1 .35.19 1.3 1.3 0 0 1-.09.95Z" fill="#020202"/>
  <path d="M17.55 8.03a.4.4 0 0 1-.54.06 1.42 1.42 0 0 1-.07-.95c0-.16.18-.24.36-.23a.3.3 0 0 1 .3.28 1.84 1.84 0 0 1-.05.84Z" fill="#010101"/>
  <path d="M8.93 16.93a3.16 3.16 0 0 1-3.15-3.05c0-.29.12-.46.35-.46s.34.16.35.43a2.47 2.47 0 0 0 2.42 2.38 2.46 2.46 0 0 0 2.48-2.33.61.61 0 0 0 0-.14.35.35 0 0 1 .35-.34.36.36 0 0 1 .35.36 3 3 0 0 1-.18 1 3.16 3.16 0 0 1-2.97 2.15Z"/>
  <path d="M6.06 19.88a1.41 1.41 0 0 1 .37.56 1.06 1.06 0 0 1-.59 1.2 1.69 1.69 0 0 1-1.86-.16 1 1 0 0 1 0-1.6 1.76 1.76 0 0 1 1.49-.28.6.6 0 0 0 .59.28Zm7.06-.29a1.25 1.25 0 0 1 1 .56.92.92 0 0 1 0 1.16 1.65 1.65 0 0 1-2.27.15 1 1 0 0 1 .2-1.69.69.69 0 0 1 .43-.14c.28.27.33.26.59 0a.18.18 0 0 1 .05-.04Z" fill="#fefefe"/>
  <path d="M13.12 19.59a.38.38 0 0 1-.35.32.36.36 0 0 1-.36-.27c0-.2-.07-.37-.3-.37s-.28.13-.31.33a.34.34 0 0 1-.37.31.35.35 0 0 1-.32-.39 1 1 0 0 1 .86-1 1 1 0 0 1 1.11.74 2.7 2.7 0 0 1 .04.33Zm-4.19.72a1.45 1.45 0 0 1-1-.44.36.36 0 0 1 0-.54.36.36 0 0 1 .52 0 .72.72 0 0 0 1.07 0 .35.35 0 0 1 .52 0 .36.36 0 0 1 0 .52 1.44 1.44 0 0 1-1.11.46Z"/>
  <path d="M6.06 19.88c-.32.1-.43 0-.56-.28s0-.37 0-.56a.36.36 0 0 1 .35-.38.35.35 0 0 1 .35.38v.51a.41.41 0 0 1-.14.33Z" fill="#010101"/>
  <path d="M13.77 7.89a2.47 2.47 0 0 1 .54 0 .32.32 0 0 1 .19.15 1 1 0 0 1-.26.88.64.64 0 0 1-.77.13.9.9 0 0 1-.43-1c0-.11.12-.14.22-.17a2.92 2.92 0 0 1 .51.01Z" fill="#4c5369"/>
</svg>
