<svg xmlns="http://www.w3.org/2000/svg" width="23.94" height="21.61" viewBox="0 0 23.94 21.61"><path d="M492-179.7c.07,0,.06-.13.09-.2a1.25,1.25,0,0,1,1-.78c.15,0,.18-.07.2-.21a10.7,10.7,0,0,1,8.11-9,10.55,10.55,0,0,1,9.64,2.29c.24.2.26.3.14.57a.33.33,0,0,1-.53.09c-.31-.22-.58-.47-.89-.68a10,10,0,0,0-4.41-1.74,9.83,9.83,0,0,0-5.4.77,9.39,9.39,0,0,0-2.45,1.52,9.59,9.59,0,0,0-2.51,3.22,9.69,9.69,0,0,0-1,3.65,9.93,9.93,0,0,0,2.35,7.28,10.27,10.27,0,0,0,3.05,2.43,4.46,4.46,0,0,0,.55.25,10.47,10.47,0,0,0,3.3.83,10,10,0,0,0,5.12-1,10,10,0,0,0,2.34-1.58,9.8,9.8,0,0,0,2.21-2.87,9.76,9.76,0,0,0,1.08-3.82A10.08,10.08,0,0,0,513-184a9.45,9.45,0,0,0-1.28-1.92,1.18,1.18,0,0,1-.17-.22.32.32,0,0,1,.13-.48c.26-.11.36-.09.56.14a10.72,10.72,0,0,1,2.52,5.58c0,.15.07.19.22.22a1.26,1.26,0,0,1,1.05,1.25,1.27,1.27,0,0,1-1,1.26c-.16,0-.22.06-.24.23a10.75,10.75,0,0,1-8.6,9.11,10.78,10.78,0,0,1-12.7-8.51c-.05-.22-.08-.45-.11-.67s0-.13-.11-.14a1.33,1.33,0,0,1-1.15-1Z" transform="translate(-492.04 190.23)"/><path d="M499.94-188.64a8,8,0,0,1,2.4-.73,10,10,0,0,1,8.25,2.29c.27.22.36.23.61.05a1.9,1.9,0,0,0,.43.42c-.18.24-.18.35,0,.58a9.83,9.83,0,0,1,2.36,5.17,9.79,9.79,0,0,1-2,7.58,9.83,9.83,0,0,1-6.52,3.85,9.82,9.82,0,0,1-5.48-.72l-.08,0a9.7,9.7,0,0,1-1.49-1,10.7,10.7,0,0,1-3.08-3.94,10,10,0,0,1-.9-3.46,10.43,10.43,0,0,1,.65-4.59,10.64,10.64,0,0,1,4-5C499.39-188.35,499.68-188.47,499.94-188.64Z" transform="translate(-492.04 190.23)" fill="#ee8f7b"/><path d="M499.94-188.64c-.07.14-.22.18-.33.24a10.76,10.76,0,0,0-2.67,2.27,9.37,9.37,0,0,0-1.37,2.1,10.54,10.54,0,0,0-1,3.16,11.64,11.64,0,0,0-.07,2.28,9.57,9.57,0,0,0,.62,2.83,9.91,9.91,0,0,0,1.64,2.88,10.59,10.59,0,0,0,2.06,1.95c.32.22.64.43,1,.62a.22.22,0,0,1,.11.12,8.91,8.91,0,0,1-2.47-1.54,9.87,9.87,0,0,1-3.45-6.21,10.1,10.1,0,0,1,5.74-10.64Z" transform="translate(-492.04 190.23)" fill="#e77d67"/><path d="M493.21-178.87a.55.55,0,0,1-.47-.5.6.6,0,0,1,.34-.57c.08,0,.14-.06.14.07C493.21-179.53,493.21-179.2,493.21-178.87Z" transform="translate(-492.04 190.23)" fill="#fcb37f"/><path d="M514.81-178.87v-1c0-.14.05-.12.14-.08a.59.59,0,0,1,.33.57A.55.55,0,0,1,514.81-178.87Z" transform="translate(-492.04 190.23)" fill="#fcb37f"/><path d="M504.36-170.48a5.49,5.49,0,0,1-5.77-5.38,3.16,3.16,0,0,0-2.86-3.23.68.68,0,0,1-.64-.77,8.88,8.88,0,0,1,4.75-7.45.66.66,0,0,1,1,.57,4.83,4.83,0,0,0,.12.85,3.17,3.17,0,0,0,3.33,2.3,3.14,3.14,0,0,0,2.85-3c0-.36.09-.67.46-.81a.69.69,0,0,1,.61.06,8.92,8.92,0,0,1,4.48,5.84,8.5,8.5,0,0,1,.23,1.5.71.71,0,0,1-.73.87,3.18,3.18,0,0,0-2.76,3.11,5.38,5.38,0,0,1-1.63,3.95A5.14,5.14,0,0,1,504.36-170.48Z" transform="translate(-492.04 190.23)"/><path d="M500.17-186.34a3.86,3.86,0,0,0,4,3.46,3.86,3.86,0,0,0,3.7-3.51c0-.09,0-.17,0-.28a4.59,4.59,0,0,1,.81.49,8.17,8.17,0,0,1,3.54,6.21c0,.13,0,.17-.14.19a3.86,3.86,0,0,0-3.35,3.9,4.72,4.72,0,0,1-4.36,4.68,4.74,4.74,0,0,1-5-3.72c-.11-.51-.06-1-.14-1.53a3.78,3.78,0,0,0-2.75-3.21l-.11,0a.67.67,0,0,1-.05-.5,8.61,8.61,0,0,1,2.07-4.86,8.54,8.54,0,0,1,1.47-1.35C500.07-186.55,500.11-186.53,500.17-186.34Z" transform="translate(-492.04 190.23)" fill="#fecb9d"/><path d="M500.17-186.34c-.05-.15-.13-.12-.23,0a8.38,8.38,0,0,0-1.6,1.49,8.46,8.46,0,0,0-1.55,2.82,7.28,7.28,0,0,0-.4,2.37l-.14,0c-.15,0-.37,0-.44-.12s0-.3,0-.46a8.19,8.19,0,0,1,4.19-6.3l.13-.06Z" transform="translate(-492.04 190.23)" fill="#feb47f"/><path d="M500.32-182.83h1.61a.81.81,0,0,1,.86.82c0,.14,0,.17.17.16h2.1c.14,0,.17,0,.17-.17a.81.81,0,0,1,.84-.82h3.25a.78.78,0,0,1,.83.77c0,.65,0,1.3,0,1.94a.8.8,0,0,1-.82.79c-1.09,0-2.18,0-3.27,0a.82.82,0,0,1-.83-.86V-181c0-.11,0-.17-.15-.17-.71,0-1.43,0-2.15,0-.11,0-.14,0-.14.15q0,.42,0,.84a.82.82,0,0,1-.81.83c-1.1,0-2.21,0-3.31,0a.79.79,0,0,1-.8-.79q0-1,0-1.92a.8.8,0,0,1,.84-.79Z" transform="translate(-492.04 190.23)"/><path d="M504-175.2h-.91a.81.81,0,0,1-.84-.84c0-.33,0-.66,0-1a.35.35,0,0,0-.14-.3,2.73,2.73,0,0,1-.71-1,.35.35,0,0,1,.15-.51c.2-.09.38,0,.49.23a2.06,2.06,0,0,0,1.94,1.29,2.08,2.08,0,0,0,2-1.3.35.35,0,0,1,.49-.22.36.36,0,0,1,.14.52,2.63,2.63,0,0,1-.68,1,.41.41,0,0,0-.16.38c0,.29,0,.58,0,.87a.83.83,0,0,1-.9.9Z" transform="translate(-492.04 190.23)"/><path d="M499.62-182.12h2.28c.11,0,.19,0,.19.17v1.77c0,.06,0,.11-.07.13-.77,0-1.54,0-2.31,0-.11,0-.15-.07-.16-.16a2.54,2.54,0,0,1,0-.39v-1.21A.39.39,0,0,1,499.62-182.12Z" transform="translate(-492.04 190.23)" fill="#f1f1f1"/><path d="M507-182.12h2.27c.1,0,.18,0,.18.15v1.82s0,.08-.06.09a9.51,9.51,0,0,1-1.07,0c-.39,0-.78,0-1.17,0-.13,0-.21,0-.21-.17,0-.59,0-1.17,0-1.76A.2.2,0,0,1,507-182.12Z" transform="translate(-492.04 190.23)" fill="#f1f1f1"/><path d="M507-182.12c0,.59,0,1.18,0,1.77,0,.21,0,.29.27.28.7,0,1.41,0,2.12,0-.05.06-.11,0-.17,0h-3c-.2,0-.26-.07-.25-.26q0-.79,0-1.59c0-.2.07-.26.26-.25Z" transform="translate(-492.04 190.23)" fill="#dedede"/><path d="M499.62-182.12c0,.61,0,1.21,0,1.82,0,.19.06.23.24.23.72,0,1.44,0,2.17,0-.06.05-.14,0-.2,0h-3c-.2,0-.27-.06-.27-.27,0-.53,0-1,0-1.58,0-.2.06-.26.25-.25Z" transform="translate(-492.04 190.23)" fill="#dedede"/><path d="M503-176.78l.61.14a.1.1,0,0,1,.09.11c0,.18,0,.36,0,.54a.07.07,0,0,1,0,.05,1.37,1.37,0,0,1-.57,0c-.12,0-.12-.1-.12-.19Z" transform="translate(-492.04 190.23)" fill="#f0f0f0"/><path d="M505.06-176.79v.71c0,.13-.05.17-.18.18-.52,0-.51,0-.52-.48,0-.19,0-.28.25-.29A2.33,2.33,0,0,0,505.06-176.79Z" transform="translate(-492.04 190.23)" fill="#f0f0f0"/></svg>
