<svg xmlns="http://www.w3.org/2000/svg" width="23.94" height="23.95" viewBox="0 0 23.94 23.95">
  <path d="M0 13.8c.09-.1.08-.23.12-.34a2.59 2.59 0 0 1 2.23-1.86.4.4 0 0 0 .39-.33 8.49 8.49 0 0 1 .87-2c.07-.12.08-.18 0-.27a2.37 2.37 0 0 1-.72-.69 1.43 1.43 0 0 1 0-1.68 3.18 3.18 0 0 1 1.1-1c.49-.27 1-.53 1.5-.75a.37.37 0 0 0 .26-.29c0-.29.14-.57.21-.86a.36.36 0 0 1 .29-.32c.33 0 .5.14.46.46s0 .3.23.46a9.07 9.07 0 0 0 3.81 1.21 6.65 6.65 0 0 0 .89.06 11.56 11.56 0 0 0 3.31-.36 10.83 10.83 0 0 0 1.21-.42.44.44 0 0 1 .59.17c.07.35 0 .48-.31.61a10.36 10.36 0 0 1-3.21.79 13.59 13.59 0 0 1-3.87-.23 9.55 9.55 0 0 1-2.53-.95l-.15-.07c-.24-.12-.24-.12-.31.13-.12.48-.24 1-.35 1.43-.07.27-.06.29.19.42a12.43 12.43 0 0 0 4 1.19 15 15 0 0 0 2.84.08 12.26 12.26 0 0 0 4.85-1.28.3.3 0 0 0 .18-.41c-.21-.68-.34-1.39-.51-2.08a14.84 14.84 0 0 0-.54-2A3.09 3.09 0 0 0 14.39.67a2 2 0 0 0-1.89.8c-.27.32-.38.36-.69.23a3.76 3.76 0 0 0-.69-.69A2.29 2.29 0 0 0 9.04.8a3.24 3.24 0 0 0-1.88 1.62.67.67 0 0 1-.25.3c-.11.07-.22.11-.33 0s-.27-.28-.16-.51a3.84 3.84 0 0 1 3.49-2.3 2.72 2.72 0 0 1 2 .78c.06.06.11.16.22 0a3.13 3.13 0 0 1 3.74-.4 4.12 4.12 0 0 1 2.15 2.95c.1.45.23.89.32 1.34a.31.31 0 0 0 .2.23 15.52 15.52 0 0 1 1.58.79 3.34 3.34 0 0 1 .93.74 1.48 1.48 0 0 1 0 2 2.55 2.55 0 0 1-.63.55c-.11.07-.1.13 0 .22a9.18 9.18 0 0 1 .93 2.13c0 .14.13.14.24.16a2.66 2.66 0 0 1 2.38 2 2.66 2.66 0 0 1-2.29 3.26.35.35 0 0 0-.37.3 9.38 9.38 0 0 1-2 3.45c-.2.23-.29.25-.57.12s-.22-.3-.06-.54.4-.49.58-.75a8.73 8.73 0 0 0 1.64-4.27 9 9 0 0 0-.89-5c-.08-.16-.18-.3-.25-.45s-.16-.18-.31-.1a13.2 13.2 0 0 1-2.08.9 15.09 15.09 0 0 1-3.32.76 18.32 18.32 0 0 1-2.87.08 15.51 15.51 0 0 1-4.57-.85 13.63 13.63 0 0 1-2-.9c-.14-.07-.21 0-.29.09a8.85 8.85 0 0 0-1.19 4.32 8.84 8.84 0 0 0 .83 4 8.79 8.79 0 0 0 2.21 2.92 8.8 8.8 0 0 0 4.4 2.09 7.31 7.31 0 0 0 2.09.1 9 9 0 0 0 3.61-1 8.94 8.94 0 0 0 1.27-.83 1.59 1.59 0 0 1 .27-.18.32.32 0 0 1 .46.12c.12.28.1.38-.13.56a9.6 9.6 0 0 1-5.2 2.11s-.08 0-.09 0h-1.64a9.44 9.44 0 0 1-1.4-.2 9.75 9.75 0 0 1-4-2 9.72 9.72 0 0 1-3-4.51.38.38 0 0 0-.37-.29 2.66 2.66 0 0 1-2.13-1.58 3.25 3.25 0 0 1-.18-.68Z" fill="#020304"/>
  <path d="M6.58 10.51a17 17 0 0 0 2.55.64 20 20 0 0 0 4.17.18 15.35 15.35 0 0 0 6.17-1.74c.15-.08.2-.05.28.09a9 9 0 0 1-.89 10.38c-.32.36-.33.42-.15.7l-.5.47a.39.39 0 0 0-.56 0 8.92 8.92 0 0 1-4.58 1.93h-.46a1 1 0 0 1-.55 0 9.3 9.3 0 0 1-3.45-2.1 9.24 9.24 0 0 1-1.74-2.24c-.07-.12-.19-.23-.12-.4s.23 0 .34 0a1.74 1.74 0 0 0 1.46-.86 1.19 1.19 0 0 0-.24-1.43c-.07-.07-.17-.12-.18-.24a2.41 2.41 0 0 0 .09-1.1.22.22 0 0 0-.22-.23.25.25 0 0 0-.27.15 1 1 0 0 0-.07.41 1.06 1.06 0 0 1-.06.53.43.43 0 0 1-.25 0 2.41 2.41 0 0 0-1.25.09.36.36 0 0 1-.25 0 1 1 0 0 1-.14-.62 9.45 9.45 0 0 1 .37-3.62 7.34 7.34 0 0 1 .27-.74c.02-.12.05-.25.23-.25Z" fill="#fcde9a"/>
  <path d="M6.5 2.82c.27.05.36 0 .51-.28A3.27 3.27 0 0 1 8.87.88a2.32 2.32 0 0 1 2.87.88c.06.11 0 .2 0 .29a3 3 0 0 0-.32 1.44v1.7a.68.68 0 0 0 .17.55 9.5 9.5 0 0 1-4.15-1c-.21-.11-.42-.24-.64-.33s-.3-.21-.2-.43a.39.39 0 0 0 0-.28.36.36 0 0 0-.39-.23.23.23 0 0 0 .2-.21 4.05 4.05 0 0 1 .09-.44Z" fill="#d38881"/>
  <path d="M6.73 18.43a6.62 6.62 0 0 0 .91 1.48 9.34 9.34 0 0 0 3.42 2.78 4.46 4.46 0 0 0 1.53.51 5.93 5.93 0 0 1-1.63 0 8.72 8.72 0 0 1-4.68-2 8.74 8.74 0 0 1-3.24-5.95A8.8 8.8 0 0 1 4.2 9.69c.09-.16.16-.17.32-.09a14.91 14.91 0 0 0 2 .91 2.1 2.1 0 0 0-.42 1 9.48 9.48 0 0 0-.4 2.25 8.75 8.75 0 0 0 .11 2c0 .11-.13.15-.21.21a1.23 1.23 0 0 0 0 2.07 2.15 2.15 0 0 0 .87.36c.11-.03.21-.04.26.03Z" fill="#fec76e"/>
  <path d="M17.58 4.67c.19.56.27 1.16.43 1.73.06.18.09.37.15.56s0 .18-.11.23a13.16 13.16 0 0 1-3.57 1.19 15 15 0 0 1-3.35.17 12.63 12.63 0 0 1-5.1-1.34c-.13-.07-.18-.13-.14-.29.17-.63.32-1.26.48-1.91.56.28 1.09.57 1.66.79a10.57 10.57 0 0 0 2.89.61 12.7 12.7 0 0 0 1.95 0 10.3 10.3 0 0 0 3.63-.85c.22-.1.2-.3.19-.48a2.07 2.07 0 0 1 .89-.41Z" fill="#424b8b"/>
  <path d="M17.58 4.67c-.3.13-.57.33-.89.44-.15-.22-.33-.22-.57-.12a10.12 10.12 0 0 1-4.52.75c-.19 0-.25-.13-.24-.32v-2a2.93 2.93 0 0 1 .35-1.45c0-.07.05-.14.08-.22a.39.39 0 0 0 .54-.1 2.34 2.34 0 0 1 3-.7 3.25 3.25 0 0 1 1.89 2.24c.08.5.19.99.36 1.48Zm-5.42 4.6a13.86 13.86 0 0 0 4.51-.75 13.42 13.42 0 0 0 2-.88.38.38 0 0 0 .22-.52l-.34-1.38a8.22 8.22 0 0 1 1.76 1 .89.89 0 0 1 0 1.48 6.67 6.67 0 0 1-1.5.89 14.76 14.76 0 0 1-7.09 1.52 1 1 0 0 1-.2-.85c0-.45.09-.52.53-.53a.33.33 0 0 0 .11.02Z" fill="#e7aba8"/>
  <path d="M12.16 9.27H12c-.36 0-.43.08-.45.47a1.78 1.78 0 0 0 .14.88 14.71 14.71 0 0 1-5.92-1.23 16 16 0 0 1-1.7-.87 2 2 0 0 1-.64-.57.78.78 0 0 1 0-1 1.6 1.6 0 0 1 .41-.41 12.33 12.33 0 0 1 1.57-.88c-.12.47-.22.9-.32 1.33s-.05.43.26.6a13.16 13.16 0 0 0 6.39 1.59Z" fill="#d38881"/>
  <path d="M.7 14.25a2 2 0 0 1 1.53-1.93c.16 0 .24 0 .2.17a9.42 9.42 0 0 0 0 3.51c0 .18 0 .21-.18.17A2 2 0 0 1 .7 14.25Zm22.54-.01a2 2 0 0 1-1.54 1.93c-.17 0-.23 0-.19-.19a9.26 9.26 0 0 0 0-3.48c0-.18 0-.23.19-.19a2 2 0 0 1 1.54 1.93Z" fill="#fec76e"/>
  <path d="M16.36 15.57a2.32 2.32 0 0 1 2 .3 1.28 1.28 0 0 1 .16 2 2.19 2.19 0 0 1-2.89 0 1.24 1.24 0 0 1 0-1.85l.21-.18a.71.71 0 0 0 .52-.27Zm-9.63 2.86a1.8 1.8 0 0 1-1.64-1.06 1.29 1.29 0 0 1 .47-1.46l.29-.2a2.41 2.41 0 0 1 1.73-.14.55.55 0 0 0 .51.27 1.87 1.87 0 0 1 .47.54 1.31 1.31 0 0 1-.4 1.61 2.15 2.15 0 0 1-1.43.44Z" fill="#fe8294"/>
  <path d="M11.8 15.18a1.82 1.82 0 0 1 1.37.16.38.38 0 0 1 .2.51.35.35 0 0 1-.52.12 1.05 1.05 0 0 0-1.5.44c-.13.22-.31.29-.5.18a.35.35 0 0 1-.12-.51 1.77 1.77 0 0 1 1.07-.9Z"/>
  <path d="M8.13 15.85c-.3.08-.41 0-.55-.28s0-.49 0-.74.16-.43.37-.42.33.16.34.42 0 .4 0 .61a.47.47 0 0 1-.16.41Zm8.23-.28c-.13.3-.24.36-.55.28a.5.5 0 0 1-.17-.41v-.65a.35.35 0 0 1 .33-.38.36.36 0 0 1 .37.37c.02.27.02.53.02.79Z" fill="#010101"/>
</svg>
