<svg xmlns="http://www.w3.org/2000/svg" width="23.54" height="23.96" viewBox="0 0 23.54 23.96">
  <path d="M19.29 15.83c.29.1.35.2.3.52a3.7 3.7 0 0 1-1.08 2.15c-1.45 1.46-2.91 2.91-4.36 4.36a3.61 3.61 0 0 1-2.12 1 .07.07 0 0 0-.07 0h-1a1.21 1.21 0 0 0-.46-.12 3.84 3.84 0 0 1-1.66-1L.78 14.68a2.67 2.67 0 0 1-.8-2v-1.82c0-.38 0-.43.36-.55s.38.11.39.39v1.38a5.5 5.5 0 0 0 0 .91 2 2 0 0 0 .58 1.15l4.59 4.59.46.47c.12.14.2.08.31 0 .87-.88 1.76-1.77 2.64-2.64.13-.14.1-.19 0-.27a2.72 2.72 0 0 1-1.35-1.74 1.91 1.91 0 0 1 .81-2.18 2.06 2.06 0 0 1 1.87-.1 2.71 2.71 0 0 1 1.43 1.28c.09.16.15.15.25 0a1.59 1.59 0 0 1 .13-.13c.36-.36.36-.28 0-.66a12.42 12.42 0 0 1-1.84-2.59 8 8 0 0 1-.91-3 6.51 6.51 0 0 1 .08-1.65.34.34 0 0 0-.16-.37 1.94 1.94 0 0 0-.83-.3 1.83 1.83 0 0 0-.33 0H3.52c-.1 0-.23-.05-.28 0s0 .19.1.27a7.11 7.11 0 0 0 .46.62.34.34 0 0 0 .38.12 3.46 3.46 0 0 1 1-.07 3.21 3.21 0 0 1 2.88 2.62 3.2 3.2 0 0 1-2.85 3.77 3.7 3.7 0 0 1-1.61-.24 3.22 3.22 0 0 1-1.85-3.52.8.8 0 0 0-.23-.82A6.1 6.1 0 0 1 .7 6.46v2.42c0 .28-.15.41-.4.39s-.36-.17-.36-.48V6.05a1.45 1.45 0 0 1 .1-.62 1.38 1.38 0 0 0 .08-.85 5.76 5.76 0 0 1 .44-2.81 5.38 5.38 0 0 1 .24-.55A1.4 1.4 0 0 1 2.62.57a1.39 1.39 0 0 1 .74 1.76 6.21 6.21 0 0 0-.46 1.48c0 .17 0 .23.2.23h5a3.14 3.14 0 0 1 1.95.47 10.4 10.4 0 0 1 1.38-2.67A12.43 12.43 0 0 1 12.74.25a1.54 1.54 0 0 1 2.3 0 12.09 12.09 0 0 1 2.35 3.4c.06.15.12.15.25.09a12 12 0 0 1 4.27-.8 1.52 1.52 0 0 1 1.57 1.52 11 11 0 0 1-1.16 5.12 6.68 6.68 0 0 1-3.59 3.17l-.2.08h-.06a4.1 4.1 0 0 1 .78 1.15c.13.3.11.4-.15.59a.33.33 0 0 1-.47-.15 6.58 6.58 0 0 0-1.62-2l-.66-.66c-.11-.12-.19-.11-.29 0-.24.32-.51.62-.77.93a1.76 1.76 0 0 1-1.66.71.3.3 0 0 0-.27.1l-.89.9a.43.43 0 0 0-.14.31 1.8 1.8 0 0 1-1.67 1.69.63.63 0 0 0-.38.19l-3 3c-.18.18-.18.2 0 .38l1.91 1.91a3 3 0 0 0 4.42.05c1.43-1.41 2.85-2.84 4.26-4.27a3.06 3.06 0 0 0 .89-1.69 1.21 1.21 0 0 1 .09-.31c.15.2.25.08.44.17Z"/>
  <path d="M19.29 15.83a.4.4 0 0 0-.38.39 3.2 3.2 0 0 1-1 1.9l-4.13 4.13a3.07 3.07 0 0 1-4.55 0c-.67-.67-1.33-1.34-2-2-.11-.12-.11-.18 0-.29l3.12-3.12a.4.4 0 0 1 .31-.14 1.75 1.75 0 0 0 1.69-1.69.35.35 0 0 1 .12-.29c.32-.31.63-.63.94-.94a.28.28 0 0 1 .29-.1 1.47 1.47 0 0 0 1.36-.43 10.58 10.58 0 0 0 1.07-1.24c.09-.13.15-.15.27 0 .55.56 1.12 1.11 1.67 1.67a2.76 2.76 0 0 1 .62.93.41.41 0 0 0 .48.28 3.42 3.42 0 0 1 .12.94Z" fill="#6e95d3"/>
  <path d="m5.93 18.94-2.3-2.28c-.76-.76-1.5-1.52-2.27-2.27a2.11 2.11 0 0 1-.66-1.61v-1.8a.43.43 0 0 0-.35-.49v-.93a.41.41 0 0 0 .35-.47V6.55a9.35 9.35 0 0 0 .6.9 6.42 6.42 0 0 1 .59.72c.18.29-.07.59-.08.89a3.15 3.15 0 0 0 3.37 3.36h.09c0 .11-.11.09-.18.1s-.15.08-.15.19a23.69 23.69 0 0 0 .82 5.44c.06.18.12.36.17.54a.24.24 0 0 1 0 .25Z" fill="#f4dd9b"/>
  <path d="M17.45 6.8a7.1 7.1 0 0 1-1 3.54 12 12 0 0 1-1.81 2.38.83.83 0 0 1-1.21.06 10.48 10.48 0 0 1-2.62-4.14 6.19 6.19 0 0 1 .57-4.94 12 12 0 0 1 2-2.7.82.82 0 0 1 1.21-.06 10.23 10.23 0 0 1 2.71 4.43 6.22 6.22 0 0 1 .15 1.43Z" fill="#7adcc6"/>
  <path d="M5.93 18.94c-.15-.56-.34-1.12-.47-1.7a21.53 21.53 0 0 1-.42-2.53 16.1 16.1 0 0 1-.14-1.83c0-.14-.12-.29 0-.4s.26 0 .37-.07a3.15 3.15 0 0 0 2.84-3 3.18 3.18 0 0 0-2.53-3.26l-.3-.05a.2.2 0 0 1-.05-.18q.06-.37.15-.75A.2.2 0 0 1 5.6 5h3.28a1.73 1.73 0 0 1 1 .4c.08.05.08.12.07.2a6.91 6.91 0 0 0 .8 4.67 12.44 12.44 0 0 0 2 2.8c.14.15.13.22 0 .35s-.34.35-.53.55a2.73 2.73 0 0 0-1.72-1.59 1.84 1.84 0 0 0-2 .4 1.85 1.85 0 0 0-.44 2 2.66 2.66 0 0 0 1.56 1.73c0 .08-.08.11-.13.16l-2.75 2.76c-.14.14-.21.13-.32 0s-.32-.32-.49-.49Z" fill="#faeeca"/>
  <path d="M18.27 4.56a9.85 9.85 0 0 1 2.5-.57c.38 0 .76 0 1.14-.07a.84.84 0 0 1 .93.85 10.19 10.19 0 0 1-1.15 4.87 5.33 5.33 0 0 1-1.46 1.74c-.12 0-.18-.08-.25-.15a5.39 5.39 0 0 1-1.24-2c-.27-.64-.28-.55.21-1l.66-.66a.55.55 0 0 0 .12-.14.28.28 0 0 0 0-.38.28.28 0 0 0-.39 0c-.13.1-.23.23-.35.34s-.28.3-.43.43-.24.11-.29-.1a4.23 4.23 0 0 1-.11-.87c0-.39-.08-.76-.07-1.14a6.48 6.48 0 0 1 .08-1 .18.18 0 0 1 .1-.15Z" fill="#5ac687"/>
  <path d="M.85 4.32a6 6 0 0 1 .64-2.51.69.69 0 0 1 .92-.31.7.7 0 0 1 .34.92 5.94 5.94 0 0 0-.47 1.48 2.69 2.69 0 0 0 .47 1.95 12.55 12.55 0 0 0 1.52 1.74.72.72 0 0 1 .23.72.68.68 0 0 1-1.11.36 9.64 9.64 0 0 1-2.12-2.59 3.9 3.9 0 0 1-.42-1.76Z" fill="#7adcc6"/>
  <path d="M18.27 4.56a6.11 6.11 0 0 0-.12 1.71 9.29 9.29 0 0 0 .17 1.38.49.49 0 0 0 .09.22l.82-.83a.38.38 0 0 1 .55-.07c.15.15.12.37-.06.56l-1 1c-.06.06-.13.13-.09.24a5.8 5.8 0 0 0 1.61 2.6 6.78 6.78 0 0 1-2.17 1.16.18.18 0 0 1-.2-.06c-.36-.37-.72-.74-1.09-1.09-.13-.12-.07-.2 0-.3a9.67 9.67 0 0 0 1-2.23 6.44 6.44 0 0 0 0-3.86c-.07-.22 0-.32.18-.36Z" fill="#21ad60"/>
  <path d="M11.64 14.88a1.08 1.08 0 0 1-1.13 1.13 2 2 0 0 1-1.85-1.81 1.09 1.09 0 0 1 1.3-1.16 1.94 1.94 0 0 1 1.68 1.84Z" fill="#d69d7b"/>
  <path d="M5.45 10.77a1.56 1.56 0 0 0 .71-2.52 1.42 1.42 0 0 0-.78-.48.3.3 0 0 1-.25-.2 2.2 2.2 0 0 0-.54-.7 2.21 2.21 0 0 1 1 0 2.43 2.43 0 0 1 1.87 2.2 2.41 2.41 0 0 1-1.55 2.46.17.17 0 0 1-.19 0 .8.8 0 0 1-.28-.65.15.15 0 0 1 .01-.11Z" fill="#6e95d3"/>
  <path d="M5.45 10.77a.62.62 0 0 0 .37.79 2.44 2.44 0 0 1-3.23-1.8 1.94 1.94 0 0 1 0-.87l.43.38a2.35 2.35 0 0 1 .55.67 1.61 1.61 0 0 0 1.88.83Z" fill="#4c7ecb"/>
  <path d="M8.88 5.05H5.71c-.19 0-.26.07-.28.23l-.15.85a3.46 3.46 0 0 0-1.2.12.12.12 0 0 1-.16-.05 5.43 5.43 0 0 1-.75-1c-.07-.13-.05-.16.09-.16h5.42a.34.34 0 0 1 .2.01Z" fill="#f4dd9b"/>
  <path d="M5.8 9.26a.83.83 0 0 1-.62.84.87.87 0 0 1-1-.43c-.06-.11-.07-.17.08-.22a1.36 1.36 0 0 0 .86-.86c0-.14.13-.13.23-.06a.79.79 0 0 1 .45.73Z" fill="#444c55"/>
  <path d="M13.6 6.86V5.13c0-.28.14-.46.36-.45s.34.17.34.45v3.43c0 .27-.13.43-.34.44s-.36-.16-.36-.44Z" fill="#5ac687"/>
</svg>
