<svg xmlns="http://www.w3.org/2000/svg" width="21.18" height="23.94" viewBox="0 0 21.18 23.94"><path d="M510.17-210.8c.26-.14.36-.13.58.08a9.26,9.26,0,0,1,2.5,4,.27.27,0,0,0,.29.22,2.6,2.6,0,0,1,2.41,2.61,2.6,2.6,0,0,1-2.44,2.59.22.22,0,0,0-.25.18,9.38,9.38,0,0,1-5.51,6c-.15.06-.17.11-.09.25a1.26,1.26,0,0,1-.21,1.6c-.82.83-1.64,1.65-2.47,2.47a4.52,4.52,0,0,1-3.31,1.38,3.77,3.77,0,0,1-2.82-1.29.36.36,0,0,1,0-.51.32.32,0,0,1,.21-.15.45.45,0,0,1,.4.18,3.61,3.61,0,0,0,.86.65,3.31,3.31,0,0,0,3.24-.12,4.41,4.41,0,0,0,1.09-.84c.77-.76,1.54-1.52,2.29-2.3a.6.6,0,0,0,0-.8.58.58,0,0,0-.83-.07.44.44,0,0,1-.58,0,.42.42,0,0,1-.06-.49l.05-.08c.2-.34.19-.59,0-.8a.61.61,0,0,0-.83,0,.42.42,0,0,1-.57,0,.4.4,0,0,1,0-.6l.19-.2a.59.59,0,0,0-.23-1.05.62.62,0,0,0-.56.16,3,3,0,0,0-.26.24c-.23.22-.37.22-.62,0a.45.45,0,0,1,.08-.61c.52-.53,1.05-1,1.56-1.57a.62.62,0,0,0,0-.85.65.65,0,0,0-.87,0c-.08.06-.15.14-.23.21l-3,3-.2.19a.38.38,0,0,1-.55,0,.42.42,0,0,1-.05-.53,1.88,1.88,0,0,1,.33-.36.49.49,0,0,0,.16-.38c0-.39,0-.78,0-1.16a1.18,1.18,0,0,0-.09-.46.7.7,0,0,0-.7-.48.71.71,0,0,0-.7.48,1.2,1.2,0,0,0-.07.46c0,.47,0,.94,0,1.4a1.36,1.36,0,0,1-.33.93,3.58,3.58,0,0,0-.84,2.26,3.61,3.61,0,0,0,1.07,2.63.66.66,0,0,1,.21.31c0,.14,0,.28-.13.35a.39.39,0,0,1-.56-.06,4.37,4.37,0,0,1-.63-5.57.21.21,0,0,0,0-.31,9.08,9.08,0,0,1-2.27-4.95,9.29,9.29,0,0,1,2.77-8.06,9.26,9.26,0,0,1,5.17-2.59,2.44,2.44,0,0,0,.6-.11H505a4.74,4.74,0,0,0,.84.13,9.51,9.51,0,0,1,3.65,1.46.39.39,0,0,1,.18.48.35.35,0,0,1-.52.2,1.64,1.64,0,0,1-.26-.16,8.67,8.67,0,0,0-4-1.32,4.58,4.58,0,0,0-1.11,0,9,9,0,0,0-2,.34,8.7,8.7,0,0,0-4.7,3.39,8.19,8.19,0,0,0-1.51,4.17,8.57,8.57,0,0,0,1.91,6.28,0,0,0,0,0,0,0c0-.43,0-.87,0-1.3a1.7,1.7,0,0,1,1-1.56,1.56,1.56,0,0,1,1.83.43,1.76,1.76,0,0,1,.41,1.1c0,.22,0,.43,0,.68a1.7,1.7,0,0,0,.19-.18l1.87-1.87a1.42,1.42,0,0,1,1.71-.32,1.4,1.4,0,0,1,.42,2.19l-.37.38c-.1.09-.12.15,0,.23a1.39,1.39,0,0,1,.76,1.41.2.2,0,0,0,.14.21,1.48,1.48,0,0,1,1,1.17c0,.19.24.26.49.18a6.28,6.28,0,0,0,.85-.34,8.54,8.54,0,0,0,5-6.72,8.4,8.4,0,0,0-2.08-7c-.19-.22-.4-.43-.59-.64A.33.33,0,0,1,510.17-210.8Z" transform="translate(-494.77 213.33)"/><path d="M510.17-210.8c-.15.27-.14.37.11.61a8.6,8.6,0,0,1,2.59,5,8.55,8.55,0,0,1-1.89,6.92,8.68,8.68,0,0,1-3.93,2.74,1.47,1.47,0,0,1-.55,0c-.09,0-.07-.07-.08-.12a1.35,1.35,0,0,0-1-1.26c-.07,0-.12,0-.12-.13a1.41,1.41,0,0,0-.95-1.6l.49-.47a1.35,1.35,0,0,0,0-1.94,1.34,1.34,0,0,0-1.94,0l-2,2a1,1,0,0,0-.15.2l-.07,0v-.83a1.54,1.54,0,0,0-1.46-1.56,1.77,1.77,0,0,0-.68.11,1,1,0,0,1-.18-.64.34.34,0,0,1,.2-.15,1.88,1.88,0,0,0,.56-.41,1.15,1.15,0,0,0,0-1.63c-.16-.19-.38-.29-.55-.46a3.33,3.33,0,0,1,0-.55.75.75,0,0,0-.29-.73,1.39,1.39,0,0,1,.13-.7.34.34,0,0,1,.37,0,3,3,0,0,1,.41.18c.2.08.36,0,.44-.1s0-.28-.16-.41A2.11,2.11,0,0,0,499-207a.43.43,0,0,1-.21-.09.32.32,0,0,1,0-.27,9.19,9.19,0,0,1,3.22-4,8.9,8.9,0,0,1,2.23-1.15,1.36,1.36,0,0,1,.66-.06A8.41,8.41,0,0,1,509-211.2c.3.19.44.18.64-.06A1.43,1.43,0,0,0,510.17-210.8Z" transform="translate(-494.77 213.33)" fill="#fcde9a"/><path d="M498.34-191.68c.15-.26.14-.35-.07-.57a3.67,3.67,0,0,1-.27-5,1.33,1.33,0,0,0,.31-.86v-1.52a.83.83,0,0,1,.82-.91.84.84,0,0,1,.83.89c0,.47,0,.95,0,1.42a.34.34,0,0,1-.11.25c-.12.11-.24.22-.35.34a.36.36,0,0,0,0,.51.34.34,0,0,0,.5,0c.11-.1.21-.21.31-.32l3-3a.85.85,0,0,1,.41-.26.67.67,0,0,1,.73.33.66.66,0,0,1-.16.8,1,1,0,0,0-1.13.24c-1.26,1.26-2.53,2.52-3.78,3.79a3,3,0,0,0-.84,2,4.1,4.1,0,0,0,.29,2c.05.12.12.23.17.35l-.18.11Z" transform="translate(-494.77 213.33)" fill="#fea957"/><path d="M499-191.3c-.23-.12-.25-.38-.32-.58a4,4,0,0,1,.12-3,2.28,2.28,0,0,1,.48-.71l3.89-3.9a1,1,0,0,1,.92-.28c.08,0,.18,0,.2.14l-1.53,1.54a.4.4,0,0,0-.11.56c.06.11,0,.17-.09.24s-.29.3-.45.44-.11.22,0,.33a.54.54,0,0,0,.79,0l.25-.24a1.12,1.12,0,0,1,1-.26c.09,0,.22,0,.17.18l-.17.18c-.2.21-.21.31-.07.57,0,.1,0,.15-.11.21a6.25,6.25,0,0,1-.44.45c-.14.12-.12.21,0,.32a.56.56,0,0,0,.78,0,1.11,1.11,0,0,1,.87-.26c.11,0,.27,0,.3.19a.41.41,0,0,0,.06.46,3.3,3.3,0,0,1-.57.61c-.19.21-.19.26,0,.44a.51.51,0,0,0,.74,0,1.15,1.15,0,0,1,.92-.28c.12,0,.24,0,.25.19-.88.91-1.74,1.85-2.7,2.68a3.5,3.5,0,0,1-3.69.74,3.08,3.08,0,0,1-1.14-.79A.5.5,0,0,0,499-191.3Z" transform="translate(-494.77 213.33)" fill="#fec76e"/><path d="M498.39-201.82a5,5,0,0,0,.14.65,1.63,1.63,0,0,0-.93,1.64c0,.44,0,.88,0,1.33-.08,0-.1-.05-.12-.09a8.33,8.33,0,0,1-1.94-6.56,8.54,8.54,0,0,1,5.95-7.33,8.19,8.19,0,0,1,3.22-.44l.18,0a4.39,4.39,0,0,0-1.83.63,9,9,0,0,0-2.55,2,8.83,8.83,0,0,0-1.18,1.62,5.9,5.9,0,0,0-.57,1.22c-.09.1-.22.06-.33.06a.89.89,0,0,0-.71.38c-.1.14-.13.28,0,.4a.3.3,0,0,0,.41,0,1.49,1.49,0,0,0,.14-.12c.07,0,.14-.08.21,0,0,.24-.14.46-.14.7s-.31.16-.34.36a1.53,1.53,0,0,0,0,.37c0,.39,0,.4-.39.41a1.93,1.93,0,0,0-1.25.44,1.23,1.23,0,0,0,0,2,2.23,2.23,0,0,0,1.75.38C498.21-201.84,498.3-201.89,498.39-201.82Z" transform="translate(-494.77 213.33)" fill="#fec76e"/><path d="M513.5-205.74a1.85,1.85,0,0,1,1.68,1.35,1.93,1.93,0,0,1-1.5,2.41c-.15,0-.18,0-.15-.16A9.48,9.48,0,0,0,513.5-205.74Z" transform="translate(-494.77 213.33)" fill="#fec76e"/><path d="M504.33-196.82c0-.1-.09-.13-.17-.14a1.1,1.1,0,0,0-1,.31l-.12.11a.62.62,0,0,1-1.05,0c-.09-.1-.09-.16,0-.24s.35-.34.52-.52a.3.3,0,0,0,.14-.2c.25.18.37.17.58,0a2.61,2.61,0,0,1,.24-.23.65.65,0,0,1,.95,0A.64.64,0,0,1,504.33-196.82Z" transform="translate(-494.77 213.33)" fill="#fea957"/><path d="M506.94-193.74a.86.86,0,0,0-.95,0c-.16.1-.28.26-.48.31a.86.86,0,0,1-.75-.37.14.14,0,0,1,0-.15,10.29,10.29,0,0,1,.76-.72.43.43,0,0,0,.54-.05.64.64,0,0,1,.88.11A.61.61,0,0,1,506.94-193.74Z" transform="translate(-494.77 213.33)" fill="#fea957"/><path d="M505.5-195.13a.89.89,0,0,0-1.13.12.68.68,0,0,1-1-.19c-.07-.09,0-.13.07-.17l.67-.7a.38.38,0,0,0,.51,0,.65.65,0,0,1,.92,0C505.79-195.8,505.78-195.49,505.5-195.13Z" transform="translate(-494.77 213.33)" fill="#fea957"/><path d="M507.74-204.68a1.91,1.91,0,0,1,1.48.53,1.25,1.25,0,0,1,0,1.88,2.22,2.22,0,0,1-2.82.07,1.3,1.3,0,0,1,.28-2.21A1.82,1.82,0,0,1,507.74-204.68Z" transform="translate(-494.77 213.33)" fill="#fe8294"/><path d="M498.39-201.82a2.3,2.3,0,0,1-1.9-.23,1.29,1.29,0,0,1,0-2.29,1.91,1.91,0,0,1,1.23-.33c.18,0,.25-.05.24-.24a1.46,1.46,0,0,1,0-.51c.1,0,.08.14.08.22s0,.33,0,.49.15.38.43.29a.27.27,0,0,1,.15,0,1.34,1.34,0,0,1,.89,1,1.3,1.3,0,0,1-.66,1.34A3.88,3.88,0,0,1,498.39-201.82Z" transform="translate(-494.77 213.33)" fill="#fe8194"/><path d="M503.3-204.6h.45a.33.33,0,0,1,.35.34.34.34,0,0,1-.36.35c-.36,0-.72,0-1.07.06a3.39,3.39,0,0,0-.78.17c-.27.09-.46,0-.54-.19s0-.39.32-.48A5.34,5.34,0,0,1,503.3-204.6Z" transform="translate(-494.77 213.33)"/><path d="M498.48-206.45c-.13,0-.21.08-.29.16a.35.35,0,0,1-.5,0,.36.36,0,0,1,0-.52,1.16,1.16,0,0,1,1.09-.39,2.57,2.57,0,0,1,.77.3c.23.15.3.34.19.52s-.31.22-.54.09A1.09,1.09,0,0,0,498.48-206.45Z" transform="translate(-494.77 213.33)"/><path d="M506.36-206.92a1.11,1.11,0,0,1,.69.17.37.37,0,0,1,.15.52.35.35,0,0,1-.53.07.8.8,0,0,0-.55,0,4.12,4.12,0,0,0-.59.12c-.25.05-.42,0-.47-.26a.35.35,0,0,1,.29-.43A3.62,3.62,0,0,1,506.36-206.92Z" transform="translate(-494.77 213.33)"/><path d="M498.61-204.45a.39.39,0,0,1-.45.13c-.18-.08-.21-.25-.21-.43s0-.44,0-.67a.39.39,0,0,1,.39-.33.42.42,0,0,1,.32.49A3.68,3.68,0,0,1,498.61-204.45Z" transform="translate(-494.77 213.33)" fill="#010101"/><path d="M505.91-205c0-.13,0-.26,0-.39a.31.31,0,0,1,.32-.31.3.3,0,0,1,.35.26,3.08,3.08,0,0,1,0,.91.3.3,0,0,1-.36.26.31.31,0,0,1-.32-.31c0-.13,0-.28,0-.42Z" transform="translate(-494.77 213.33)" fill="#010101"/></svg>
