<svg xmlns="http://www.w3.org/2000/svg" width="23.94" height="21.34" viewBox="0 0 23.94 21.34">
  <path d="M23.94 15.44a.65.65 0 0 1-.53.2h-13c-.21 0-.27 0-.27.27v3.13a2.2 2.2 0 0 1-1.87 2.27 2.2 2.2 0 0 1-2.55-2v-3.39c0-.21-.06-.26-.26-.26H2.3a2.21 2.21 0 0 1-2.28-2.31 2.17 2.17 0 0 1 .88-1.68c.07 0 .16-.08 0-.17a2.23 2.23 0 0 1 .09-3.66 2.23 2.23 0 0 1-1-1.87 2.19 2.19 0 0 1 1-1.86 2.32 2.32 0 0 1-.93-1.29 2.21 2.21 0 0 1 2-2.79h21.3a.52.52 0 0 1 .51.24v10.85a.35.35 0 0 1-.39.29.44.44 0 0 1-.38-.42V1.25c0-.44 0-.44-.44-.44h-2.68c-.31 0-.33 0-.33.32v13.38c0 .31 0 .34.34.34h2.78c.32 0 .33 0 .33-.35v-2a.48.48 0 0 1 .33-.53c.28 0 .35 0 .45.28Z"/>
  <path d="M23.59 11.33a.45.45 0 0 0 .35-.24v1.17a.53.53 0 0 0-.36-.24.68.68 0 0 1 .01-.69Z" fill="#fdfafa"/>
  <path d="M14.96 3.65c-.3.09-.36.17-.36.53v10.47c0 .25-.07.29-.3.29H9.93c-.42 0-.52.09-.52.52v3.56a1.51 1.51 0 0 1-1.26 1.59 1.5 1.5 0 0 1-1.75-1.35v-3.51a.15.15 0 0 1 .14-.17 2.15 2.15 0 0 0 1.67-1.7 2.13 2.13 0 0 0-.82-2.22c-.08-.06-.15-.09 0-.19a2.21 2.21 0 0 0-.11-3.64 2.22 2.22 0 0 0 1-1.88 2.23 2.23 0 0 0-1-1.86A2.27 2.27 0 0 0 7.71.71h6.67c.21 0 .25.06.25.26v1.56c0 .3.11.4.4.44a1.09 1.09 0 0 1-.07.68Z" fill="#f2b8a8"/>
  <path d="M23.59 11.33v.69a.4.4 0 0 0-.34.47v2.24c0 .17-.05.21-.21.21h-3.2c-.17 0-.2-.05-.2-.21V.91c0-.18.06-.21.23-.21h3.15c.2 0 .24.06.24.25v9.91c-.02.32.05.41.33.47Z" fill="#fe4e54"/>
  <path d="M14.96 3.65a2.64 2.64 0 0 1 0-.69.38.38 0 0 0 .31-.43V.9c0-.16 0-.2.2-.2h3.2c.18 0 .23.05.23.23v13.83c0 .14 0 .18-.17.18h-3.27c-.21 0-.18-.11-.18-.23V4.17c.03-.36-.01-.42-.32-.52Z" fill="#e8e7e9"/>
  <path d="M4.11.71h1.84a1.52 1.52 0 0 1 1.58 1.52 1.52 1.52 0 0 1-1.57 1.51H2.22A1.53 1.53 0 0 1 .69 2.41a1.52 1.52 0 0 1 1-1.63A1.75 1.75 0 0 1 2.2.7Zm0 3.73h1.84a1.52 1.52 0 0 1 1.58 1.5 1.51 1.51 0 0 1-1.52 1.53H2.27A1.52 1.52 0 0 1 .68 5.98a1.5 1.5 0 0 1 1.49-1.53Zm0 3.74H6a1.52 1.52 0 0 1 1.53 1.5 1.48 1.48 0 0 1-1.46 1.51h-4A1.48 1.48 0 0 1 .63 9.64a1.51 1.51 0 0 1 1.51-1.46Zm0 6.75H2.17a1.5 1.5 0 0 1-1.48-1.35 1.51 1.51 0 0 1 1.16-1.62 1.5 1.5 0 0 1 .37 0h3.81a1.51 1.51 0 0 1 1.51 1.4 1.51 1.51 0 0 1-1.39 1.6h-2Z" fill="#fed3c6"/>
  <path d="M17.11 13.33a1 1 0 0 1-1.05-1.06 1 1 0 0 1 1.05-1 1.05 1.05 0 0 1 1.05 1 1.06 1.06 0 0 1-1.05 1.06Z"/>
  <path d="M17.46 12.28a.36.36 0 0 1-.35.35.36.36 0 0 1-.34-.37.35.35 0 0 1 .36-.33.35.35 0 0 1 .33.35Z" fill="#fc4d53"/>
</svg>
