<svg xmlns="http://www.w3.org/2000/svg" width="23.94" height="20.77" viewBox="0 0 23.94 20.77">
  <path d="M19.37 18.85c-.07.29-.16.36-.5.36H10.5c-.19 0-.25 0-.29.24a1.65 1.65 0 0 1-1.58 1.31H4.16a1.67 1.67 0 0 1-1.6-1.41l-2.07-11C.34 7.54.18 6.73.03 5.92c0 0 0-.08-.05-.1v-.7c.08 0 .07-.13.09-.2A1.72 1.72 0 0 1 .85 4c.28-.15.41-.12.59.14s.05.28 0 .4a1.4 1.4 0 0 1-.2.16 1 1 0 0 0-.42 1q.93 5 1.85 9.88c.21 1.09.42 2.19.62 3.28a2.7 2.7 0 0 0 .08.39.93.93 0 0 0 .93.74h4.2a.79.79 0 0 0 .45-.1 1 1 0 0 0 .55-.88V5.66a1.11 1.11 0 0 0-.21-.79 1 1 0 0 0-.61-.36.94.94 0 0 0-.37 0H3a1.37 1.37 0 0 1-.35 0 .31.31 0 0 1-.27-.38c.09-.29.17-.36.46-.36H8.5a1.69 1.69 0 0 1 1.75 1.44c0 .1.06.13.17.13a1.46 1.46 0 0 0 1-.25 6 6 0 0 0 2.67-3.44A2.15 2.15 0 0 1 17.44.43a2.15 2.15 0 0 1 .78 2.29 9.89 9.89 0 0 1-1 2.37l-.14.25h4.83a2 2 0 0 1 2.05 2.07 2 2 0 0 1-.87 1.58c-.06 0-.18 0-.07.17a2 2 0 0 1-.36 3.22 2 2 0 0 1 .7 1.28 1.94 1.94 0 0 1-.83 1.91c-.11.08-.16.11 0 .24a1.89 1.89 0 0 1 .46 2.12 1.91 1.91 0 0 1-1.76 1.29 3.65 3.65 0 0 1-.47 0c-.26 0-.36-.09-.42-.36s.1-.38.36-.39a5.06 5.06 0 0 0 .68 0 1.21 1.21 0 0 0 1-1.21 1.21 1.21 0 0 0-1-1.2l-.32-.05a.37.37 0 0 1-.33-.34.38.38 0 0 1 .22-.41.89.89 0 0 1 .43-.07 1.2 1.2 0 0 0 1.24-1 1.21 1.21 0 0 0-1.07-1.45.58.58 0 0 1-.45-.2.44.44 0 0 1-.06-.35.37.37 0 0 1 .36-.28h.33a1.26 1.26 0 0 0 1.2-1.19 1.23 1.23 0 0 0-1.05-1.26h-.23a.39.39 0 0 1-.34-.39.43.43 0 0 1 .34-.42 1.53 1.53 0 0 1 .37 0 1.23 1.23 0 0 0 1.2-1.2 1.24 1.24 0 0 0-1.16-1.23H10.6c-.17 0-.24.08-.24.24a1.47 1.47 0 0 1 0 .21v11.34c0 .41 0 .41.42.41h8.24c.28.1.38.2.35.43Z"/>
  <path d="M21.09 12.48a.52.52 0 0 0 .36.14 1.3 1.3 0 0 1 1.22 1.31 1.3 1.3 0 0 1-1.27 1.27h-.26c-.25 0-.41.15-.41.36s.14.33.38.35a1.25 1.25 0 0 1 1.18.84 1.29 1.29 0 0 1-1.16 1.75h-.42a.36.36 0 0 0-.42.34h-.92a.38.38 0 0 0-.29-.34.76.76 0 0 0-.26 0h-3.74a.67.67 0 0 1-.53-.23 8.39 8.39 0 0 1-1.44-2.11 14.08 14.08 0 0 1-.86-2.32.43.43 0 0 1 0-.25c0-.12.17-.12.27-.15a1.25 1.25 0 0 0 .7-.49.93.93 0 0 0-.43-1.38c-.1-.06-.24-.09-.27-.24a4.83 4.83 0 0 0 0-.76c0-.16 0-.28-.22-.31a.29.29 0 0 0-.33.26 2.62 2.62 0 0 0 0 .56v.25a.09.09 0 0 1-.07 0c-.14 0-.15-.15-.17-.25-.11-.79-.18-1.58-.25-2.37s-.08-1.63-.12-2.45a.3.3 0 0 1 .05-.24h10.52a1.3 1.3 0 0 1 1.34 1.06 1.29 1.29 0 0 1-1.18 1.52h-.35a.35.35 0 0 0-.38.36c0 .2.13.32.36.34a1.31 1.31 0 0 1 1.24 1 1.29 1.29 0 0 1-1.33 1.61c-.22 0-.45 0-.55.24-.08 0-.12 0-.16-.11a1.34 1.34 0 0 0-.93-.62c-.11 0-.21 0-.25-.17a4.42 4.42 0 0 1 0-.63c0-.25-.1-.36-.28-.36s-.28.13-.29.36a2.19 2.19 0 0 0 0 .72c0 .15-.16.17-.26.23a1 1 0 0 0-.59.9 1 1 0 0 0 .49.8 1.6 1.6 0 0 0 1.78-.08 1 1 0 0 0 .36-.51c.01-.08.01-.19.14-.2Z" fill="#fecdb7"/>
  <path d="M8.98 20.01a.8.8 0 0 1-.43.09H4.28a1 1 0 0 1-1-.85c-.63-3.33-1.25-6.65-1.87-10C1.18 8.07.96 6.9.74 5.72a1 1 0 0 1 .51-1.13.39.39 0 0 0 .22-.46h.92c.09.29.16.34.47.34h5.53a.69.69 0 0 1 .32 0c-.1.1-.23.07-.35.07H4.97c-.33 0-.34 0-.36.33a35 35 0 0 0-.08 3.55 28.91 28.91 0 0 0 .5 5 20.09 20.09 0 0 0 .52 2c0 .16-.13.2-.23.26a1.6 1.6 0 0 0-.47 2.17 1.6 1.6 0 0 0 2 .64.86.86 0 0 1 .27-.09c.29.25.52.55.82.79a6 6 0 0 0 .87.62.4.4 0 0 1 .17.2Z" fill="#5c89cd"/>
  <path d="M8.98 20.01a6 6 0 0 1-1.84-1.46s0-.05 0-.08.15-.22.24-.31a1.51 1.51 0 0 0 .37-1.6 1.53 1.53 0 0 0-1.25-1.08 1.51 1.51 0 0 0-.7 0c-.08 0-.16.06-.24 0a5.52 5.52 0 0 1-.43-1.36 20.81 20.81 0 0 1-.48-2.93c-.07-.75-.1-1.5-.14-2.25s0-1.41 0-2.12.06-1.45.08-2.18c0-.18.12-.15.23-.15h3.94a1 1 0 0 1 .88.93v13.59a1 1 0 0 1-.66 1Z" fill="#80a4da"/>
  <path d="M11.36 6.01c.05 1 .08 1.92.15 2.88.05.71.15 1.43.24 2.14 0 .09 0 .23.13.27 0 .12-.13.09-.2.1a1.32 1.32 0 0 0-.84.51.88.88 0 0 0 .08 1.12 1.46 1.46 0 0 0 1 .45c.11 0 .22 0 .31.06a13.86 13.86 0 0 0 .7 2.09 8.8 8.8 0 0 0 1.17 2 6 6 0 0 0 .63.71.38.38 0 0 0 .32.1h4.01-8.56c-.19 0-.17-.1-.17-.22V6.21c0-.22.06-.28.27-.26s.49.06.76.06Zm.98-.71.33-.28a6.76 6.76 0 0 0 2.11-3.26A1.42 1.42 0 0 1 16.23.7a1.41 1.41 0 0 1 1.33 1.17 1.35 1.35 0 0 1 0 .69 9.39 9.39 0 0 1-1.21 2.61.25.25 0 0 1-.23.15h-3.65Z" fill="#feb696"/>
  <path d="M19.73 11.26a.28.28 0 0 0 .11.08 1.55 1.55 0 0 1 1.19.81.47.47 0 0 0 .06.33.5.5 0 0 0-.08.14 1.27 1.27 0 0 1-1.16.93 1.45 1.45 0 0 1-1.53-.71 1 1 0 0 1 .33-1.19c.15-.11.32-.19.48-.29a.72.72 0 0 0 .6-.1Zm-7.48 2.3a1.62 1.62 0 0 1-1.35-.44 1 1 0 0 1 .05-1.42 1.31 1.31 0 0 1 .82-.34s.07 0 .11 0h.06a.8.8 0 0 0 .59 0c.18.15.4.24.58.41a1 1 0 0 1-.13 1.5 1.8 1.8 0 0 1-.73.29Z" fill="#ee95a1"/>
  <path d="M15.82 10.48a2.24 2.24 0 0 1 .58 0 1 1 0 0 1 .9 1.08 1.53 1.53 0 0 1-1.67 1.6 1.56 1.56 0 0 1-1.28-1.44 1 1 0 0 1 1.1-1.27Z"/>
  <path d="M12.5 11.35a.38.38 0 0 1-.59 0 2.11 2.11 0 0 1 0-.83.33.33 0 0 1 .37-.31.32.32 0 0 1 .32.34 1.84 1.84 0 0 1-.1.8Zm7.23-.09c-.2.25-.34.27-.6.1a1.48 1.48 0 0 1-.06-.95.3.3 0 0 1 .38-.23.32.32 0 0 1 .29.31c0 .26-.01.52-.01.77Z" fill="#010101"/>
  <path d="M5.5 15.48a1.68 1.68 0 0 1 1.66.2 1.65 1.65 0 0 1 .18 2.52l-.26.23a1.7 1.7 0 0 1-2.09-.24 1.67 1.67 0 0 1 .23-2.53c.12-.07.22-.12.28-.18Z"/>
  <path d="M15.85 11.17h.26c.44 0 .58.21.47.64a.76.76 0 0 1-1.21.52 1 1 0 0 1-.31-.95.29.29 0 0 1 .21-.16 1.9 1.9 0 0 1 .58-.05Z" fill="#444c55"/>
  <path d="M5.75 16.18a10.37 10.37 0 0 0 .89 1.68.92.92 0 0 1-1.27-.39.93.93 0 0 1 .38-1.29Z" fill="#f5de9c"/>
</svg>
